<svg xmlns="http://www.w3.org/2000/svg" xmlns:xlink="http://www.w3.org/1999/xlink" width="600" height="140" viewBox="0 0 600 140">
  <defs>
    <clipPath id="clip-horizontal-ad">
      <rect width="600" height="140"/>
    </clipPath>
  </defs>
  <g id="horizontal-ad" clip-path="url(#clip-horizontal-ad)">
    <rect width="600" height="140" fill="#edf4f9"/>
    <text id="Web_Hosting" data-name="Web Hosting" transform="translate(452 59)" fill="#3575d3" font-size="30" font-family="SegoeUI, Segoe UI"><tspan x="-86.038" y="0">Web Hosting</tspan></text>
    <rect id="Rectangle_1" data-name="Rectangle 1" width="215" height="140" fill="#3575d3"/>
    <g id="Layer_2" data-name="Layer 2" transform="translate(93 37)">
      <g id="Layer_1" data-name="Layer 1">
        <path id="Path_18" data-name="Path 18" d="M21.256,0c2.6.043,5.221.028,7.808,0q.052,3.949,0,7.9H21.237c0-2.634-.047-5.269,0-7.9Z" transform="translate(-11.145)" fill="#fff"/>
        <path id="Path_19" data-name="Path 19" d="M0,.037q3.945-.024,7.88,0V7.9H.009V.037Z" transform="translate(0 -0.013)" fill="#fff"/>
        <path id="Path_20" data-name="Path 20" d="M42.42.037q3.93-.024,7.87,0V7.9H42.425V.037Z" transform="translate(-22.284 -0.013)" fill="#fff"/>
        <path id="Path_21" data-name="Path 21" d="M0,21.26c2.634-.033,5.269-.038,7.9,0-.028,2.606,0,5.221,0,7.823-2.63,0-5.259.028-7.894,0,0-2.611.024-5.221,0-7.827Z" transform="translate(0 -11.154)" fill="#fff"/>
        <path id="Path_22" data-name="Path 22" d="M21.23,21.25h7.861v7.861H21.23Z" transform="translate(-11.153 -11.163)" fill="#fff"/>
        <path id="Path_23" data-name="Path 23" d="M42.41,21.258c2.625-.024,5.25,0,7.88,0v7.865c-2.62-.028-5.221,0-7.865-.028.028-2.611,0-5.221,0-7.832Z" transform="translate(-22.279 -11.162)" fill="#fff"/>
        <path id="Path_24" data-name="Path 24" d="M21.24,42.43h7.842c.043,2.62,0,5.221.028,7.865-2.62.043-5.221,0-7.865.024v-7.88Z" transform="translate(-11.158 -22.289)" fill="#fff"/>
        <path id="Path_25" data-name="Path 25" d="M0,42.44H7.88V50.3H.014V42.44Z" transform="translate(0 -22.295)" fill="#fff"/>
        <path id="Path_26" data-name="Path 26" d="M42.44,42.46h7.851q.009,3.921.009,7.851H42.445V42.465Z" transform="translate(-22.295 -22.305)" fill="#fff"/>
      </g>
    </g>
    <g id="Layer_2-2" data-name="Layer 2" transform="translate(32 76.541)">
      <g id="Layer_1-2" data-name="Layer 1" transform="translate(16)">
        <path id="Path_27" data-name="Path 27" d="M43.37,0h1.814V25.094H43.37Z" transform="translate(-24.905)" fill="#fff"/>
        <path id="Path_28" data-name="Path 28" d="M137.524,0h3.325V10.737a6.459,6.459,0,0,1,5.237-2.5,5.109,5.109,0,0,1,4.117,2.061,8.391,8.391,0,0,1,1.277,5.156v9.643h-3.321V15.037a4.683,4.683,0,0,0-.979-3.176,3.189,3.189,0,0,0-3.376-.792,6.859,6.859,0,0,0-2.98,2.269c0,3.925.03,7.851,0,11.772h-3.3V0Z" transform="translate(-78.971)" fill="#fff"/>
        <path id="Path_29" data-name="Path 29" d="M253.863,17.153c1.775-1.7,3.508-3.444,5.292-5.143,0,1.154-.03,2.312.021,3.466,1.737-.03,3.478-.026,5.215,0v2.98c-1.754.026-3.508-.034-5.262.03.055,2.874,0,5.748.034,8.621a2.244,2.244,0,0,0,1.941,2.205,7.056,7.056,0,0,0,4.121-1.192v3.125c-2.095,1.047-4.683,1.562-6.863.481a4.786,4.786,0,0,1-2.525-4.211c-.03-3.027.026-6.05-.026-9.073-.954.026-1.9,0-2.857,0-.047-.613.549-.92.911-1.311Z" transform="translate(-145.259 -6.897)" fill="#fff"/>
        <path id="Path_30" data-name="Path 30" d="M227.527,19.455a9.812,9.812,0,0,1,6.365,1.247V24a9.96,9.96,0,0,0-4.883-1.741,1.966,1.966,0,0,0-2.027,1.2c-.187.617.375,1.107.783,1.473,1.95,1.58,4.411,2.5,6.071,4.479a4.136,4.136,0,0,1,.2,4.683,5.241,5.241,0,0,1-3.968,2.418,11.67,11.67,0,0,1-6.659-1.456V31.44a11.95,11.95,0,0,0,5.186,2.176,2.455,2.455,0,0,0,2.631-1.49c.187-.775-.464-1.371-1.022-1.78-1.907-1.333-4.215-2.171-5.735-4a4.2,4.2,0,0,1-.307-4.845,4.809,4.809,0,0,1,3.363-2.048Z" transform="translate(-128.294 -11.102)" fill="#fff"/>
        <path id="Path_31" data-name="Path 31" d="M57.26,20.081h1.818V30.508a4.683,4.683,0,0,0,1.788,3.862,5.107,5.107,0,0,0,4.257.609,5.773,5.773,0,0,0,3.108-2.384c.255-.392.668-.754.634-1.277V20.06h1.818c0,5.5-.026,11.01,0,16.515a16.774,16.774,0,0,1-1.809.064V33.9a6.68,6.68,0,0,1-3.351,2.784,6.93,6.93,0,0,1-6.131-1.043,6.322,6.322,0,0,1-2.129-4.934V20.064Z" transform="translate(-32.882 -11.52)" fill="#fff"/>
        <path id="Path_32" data-name="Path 32" d="M0,0H1.818V10.742c.536-.345.971-.822,1.5-1.175C6.412,7.323,11.346,7.9,13.56,11.116a9.585,9.585,0,0,1,1.392,7.059A8.34,8.34,0,0,1,11.7,23.71a10.014,10.014,0,0,1-6.62,1.712A15.608,15.608,0,0,1,0,24.208ZM2.273,12.428c-.187.221-.477.426-.451.749v9.728a10.163,10.163,0,0,0,6.224.456,6.884,6.884,0,0,0,4.2-3.253,7.927,7.927,0,0,0-.221-7.868A5.4,5.4,0,0,0,6.769,9.792a7.778,7.778,0,0,0-4.5,2.627Z" fill="#fff"/>
        <path id="Path_33" data-name="Path 33" d="M98.839,20.9a7.485,7.485,0,0,1,9.754.532,8.348,8.348,0,0,1,2.2,5.914H97.779a6.6,6.6,0,0,0,5.484,7.348,9.092,9.092,0,0,0,7.2-2.393V34.39a10.022,10.022,0,0,1-5.535,2.129,8.2,8.2,0,0,1-6.637-2.286A9.141,9.141,0,0,1,95.829,27.6a8.572,8.572,0,0,1,3.006-6.7Zm1.2,1.418a6.484,6.484,0,0,0-2.065,3.551c3.546.051,7.1,0,10.644,0a5.984,5.984,0,0,0-2.457-4.074,5.535,5.535,0,0,0-6.127.5Z" transform="translate(-55.026 -11.11)" fill="#fff"/>
        <path id="Path_34" data-name="Path 34" d="M185.037,19.374a9.3,9.3,0,0,1,7.663,2.789,9.026,9.026,0,0,1,1.107,9.928,8.089,8.089,0,0,1-5.492,4.181,9.559,9.559,0,0,1-7.885-1.426,8.884,8.884,0,0,1-1.886-11.819,8.634,8.634,0,0,1,6.484-3.653Zm-.788,3.176A5.075,5.075,0,0,0,181.58,24.4a6.324,6.324,0,0,0-.03,7.029c2.044,3.061,7.353,2.78,9.1-.426,1.277-2.393.966-5.811-1.316-7.5a5.926,5.926,0,0,0-5.083-.928Z" transform="translate(-101.693 -11.106)" fill="#fff"/>
      </g>
    </g>
    <text id="The_Best" data-name="The Best" transform="translate(302 59)" fill="#3575d3" font-size="30" font-family="SegoeUI-Semilight, Segoe UI" font-weight="300"><tspan x="-54.778" y="0">The Best</tspan></text>
    <text id="only_2.95_mo" data-name="only $2.95 / mo" transform="translate(255 102)" fill="#3575d3" font-size="25" font-family="SegoeUI, Segoe UI"><tspan x="0" y="0">only $2.95 / mo</tspan></text>
    <g id="Group_1" data-name="Group 1" transform="translate(380 -150)">
      <rect id="Rectangle_2" data-name="Rectangle 2" width="106" height="33" rx="7" transform="translate(56 225)" fill="#06ba00"/>
      <text id="Get_Started" data-name="Get Started" transform="translate(62 247)" fill="#fff" font-size="16" font-family="Poppins-Light, Poppins" font-weight="300"><tspan x="0" y="0">Get Started</tspan></text>
    </g>
  </g>
</svg>
