<svg xmlns="http://www.w3.org/2000/svg" xmlns:xlink="http://www.w3.org/1999/xlink" width="200" height="500" viewBox="0 0 200 500">
  <defs>
    <clipPath id="clip-side-ad">
      <rect width="200" height="500"/>
    </clipPath>
  </defs>
  <g id="side-ad" clip-path="url(#clip-side-ad)">
    <rect width="200" height="500" fill="#fff336"/>
    <path id="Rectangle_1" data-name="Rectangle 1" d="M20,0H161a20,20,0,0,1,20,20V294a0,0,0,0,1,0,0H0a0,0,0,0,1,0,0V20A20,20,0,0,1,20,0Z" transform="translate(10 206)" fill="#5f26a9"/>
    <g id="Group_1" data-name="Group 1" transform="translate(-6)">
      <rect id="Rectangle_2" data-name="Rectangle 2" width="142" height="43" rx="5" transform="translate(35 444)" fill="#3eb784"/>
      <text id="LEARN_MORE" data-name="LEARN MORE" transform="translate(54 471)" fill="#fff" font-size="17" font-family="Poppins-SemiBold, Poppins" font-weight="600"><tspan x="0" y="0">LEARN MORE</tspan></text>
    </g>
    <text id="Code_Now" data-name="Code 
Now" transform="translate(100 300)" fill="#fff" font-size="33" font-family="Poppins-SemiBold, Poppins" font-weight="600"><tspan x="-48.493" y="0">Code </tspan><tspan x="-36.58" y="28">Now</tspan></text>
    <text id="A_world_of_new_ideas_for_young_ones" data-name="A world of
 new ideas
 for young ones" transform="translate(100 358)" fill="#b8b8b8" font-size="17" font-family="Poppins-Regular, Poppins"><tspan x="-41.922" y="0">A world of</tspan><tspan x="-45.509" y="26" xml:space="preserve"> new ideas</tspan><tspan x="-65.654" y="52" xml:space="preserve"> for young ones</tspan></text>
    <g id="book" transform="translate(76 163.697)">
      <g id="Group_2" data-name="Group 2" transform="translate(0 58.303)">
        <path id="Path_1" data-name="Path 1" d="M47.837,61.216H44.622v-1.1a.946.946,0,0,0-.681-.946,26.635,26.635,0,0,0-6.818-.87c-3.782,0-8.936.851-12.747,4.728C20.595,59.117,15.4,58.3,11.631,58.3a26.635,26.635,0,0,0-6.818.87.946.946,0,0,0-.681.946v1.087H.946A.946.946,0,0,0,0,62.152v30.2a.943.943,0,0,0,1.409.823c.095-.047,9.55-5.22,22.751-1.891h.227a.946.946,0,0,0,.227,0c13.238-3.357,22.694,1.806,22.751,1.891a.946.946,0,0,0,1.418-.813v-30.2A.946.946,0,0,0,47.837,61.216ZM1.891,90.851V63.107h2.26V86.822a.946.946,0,0,0,1.087.946,41.379,41.379,0,0,1,5.91-.473,24.528,24.528,0,0,1,8.075,1.22A34.762,34.762,0,0,0,1.891,90.851Zm9.257-5.437A41.605,41.605,0,0,0,6,85.744V60.866a26.08,26.08,0,0,1,5.607-.624c3.536,0,8.416.813,11.8,4.633l.028,23.555C21.474,87.144,17.635,85.413,11.148,85.413ZM25.332,64.875c3.385-3.782,8.264-4.633,11.8-4.633a26.194,26.194,0,0,1,5.607.624V85.744a41.593,41.593,0,0,0-5.116-.34c-6.449,0-10.3,1.73-12.293,3.016Zm21.55,25.975a34.769,34.769,0,0,0-17.37-2.336,24.586,24.586,0,0,1,8.113-1.22,41.369,41.369,0,0,1,5.948.463.946.946,0,0,0,1.087-.946V63.107h2.26Z" transform="translate(0 -58.303)" fill="#fff"/>
      </g>
    </g>
    <g id="Group_20" data-name="Group 20" transform="translate(5.156)">
      <g id="_Human_Standing" data-name="ðŸ˜Human/Standing" transform="translate(10.844 51)">
        <g id="Head_Front" data-name="Head/Front" transform="translate(24.156)">
          <g id="Head" transform="translate(14.719 8.633)">
            <path id="Head-2" data-name="Head" d="M0,21,2.361,9.922A7.825,7.825,0,0,1,.3,4.322C.731-1.834,9.243-.48,10.9,2.628s1.459,10.989-.681,11.544c-.853.221-2.671-.321-4.521-1.444L6.857,21Z" transform="translate(0.281 0.367)" fill="#915b3c"/>
          </g>
          <path id="hair" d="M12.31,6.865a8.838,8.838,0,0,0-2.831-.313,4.862,4.862,0,0,0,.345-2.459,7.491,7.491,0,0,0-.8-2.224,3.042,3.042,0,0,0-.591-.92A2.018,2.018,0,0,0,7.479.436a2.559,2.559,0,0,0-1.1,0c-.16.034-.3.107-.461.147S5.679.524,5.562.423A2.014,2.014,0,0,0,4.513.017,2.707,2.707,0,0,0,3.319.16,2.337,2.337,0,0,0,2.325.8a1.666,1.666,0,0,0-.3.456c-.029.069-.034.11-.1.136s-.139.024-.2.047A2.578,2.578,0,0,0,.237,2.777,4.253,4.253,0,0,0,0,4.526,7.6,7.6,0,0,0,1.3,7.851,4.14,4.14,0,0,0,3.44,9.058,6.112,6.112,0,0,0,2.322,11.14a10.182,10.182,0,0,0-.512,2.529,8.248,8.248,0,0,0,.127,2.493,2.7,2.7,0,0,0,1.209,1.759,5.778,5.778,0,0,0,.931.437,6.131,6.131,0,0,0,.959.307,1.925,1.925,0,0,0,1.821-.389,3.417,3.417,0,0,0,.49-.622c.045-.078.073-.13.018-.207a1.478,1.478,0,0,0-.258-.234,2.427,2.427,0,0,1-.859-1.607,1.717,1.717,0,0,1,.743-1.8,2.753,2.753,0,0,1,2.37.433,3.872,3.872,0,0,1,1.878-2.491c1.066-.536,2.29-.6,3.385-1.058a2.02,2.02,0,0,0,.787-.5,1.016,1.016,0,0,0,.226-.369.6.6,0,0,0-.157-.464A8.64,8.64,0,0,0,12.31,6.865Z" transform="translate(10.995 1.127)" fill="#191847"/>
        </g>
        <g id="Bottom_Skinny_Jeans_1" data-name="Bottom/Skinny Jeans 1" transform="translate(0 52.603)">
          <path id="Leg" d="M0,0,20.949,34.993,36.654,64.578h3.383L13.722,0Z" transform="translate(37.938 0)" fill="#784931"/>
          <g id="Right_Shoe" data-name="Right Shoe" transform="translate(72.156 56.397)">
            <path id="shoe" d="M1.261,1.656a.564.564,0,0,0-.723.38L0,3.93A18.082,18.082,0,0,0,.254,6.154h15.9s.62-2.047-.716-2.211-2.219-.295-2.219-.295L5.83.356a.282.282,0,0,0-.375.15L4.98,1.658a6.394,6.394,0,0,1-2.009.576Z" transform="translate(0.282 5.114)" fill="#e4e4e4"/>
          </g>
          <path id="Pant" d="M35.776,59.84,42.3,57.868S38.012,45.062,31.79,29.683,18.425,0,18.425,0H0A339.079,339.079,0,0,0,16.837,32.88,251.267,251.267,0,0,0,35.776,59.84Z" transform="translate(34.455 0)" fill="#db2721"/>
          <path id="Leg-2" data-name="Leg" d="M32.062,0c-1.977,12.3-5.791,28.008-6.15,28.493q-.36.485-25.912,8.676l.731,2.981Q31.2,35.756,32.842,33.333c1.64-2.423,9.83-21.568,13-33.333Z" transform="translate(4.499 0)" fill="#915b3c"/>
          <path id="Pant-2" data-name="Pant" d="M0,34.592l1.287,4.8q22.79,2,27.928-2.886T40.927,0H23.357Q19.192,25.895,18.7,26.982T0,34.592Z" transform="translate(10.487 0)" fill="#ff4133"/>
          <g id="Left_Shoe" data-name="Left Shoe" transform="matrix(0.174, 0.985, -0.985, 0.174, 16.742, 30.56)">
            <path id="shoe-2" data-name="shoe" d="M1.833,2.33A.815.815,0,0,0,.782,2.9L0,5.761A28.269,28.269,0,0,0,.369,9.116H23.485s.9-3.089-1.04-3.335-3.225-.445-3.225-.445L8.475.369A.4.4,0,0,0,7.93.6L7.239,2.332a9.047,9.047,0,0,1-2.921.87Z" transform="translate(0.41 7.884)" fill="#e4e4e4"/>
          </g>
        </g>
        <g id="Body_Long_Sleeve_1" data-name="Body/Long Sleeve 1" transform="translate(8.156 23)">
          <path id="Skin" d="M15.326,14.493l4.3-2.36s.9-3.44,2.163-3.461c.325-.151.2.51.154,1.17s-.017,1.3.589,1.177c1.221-.251,4.2-2.467,4.717-2.017.76.666.082,2.709-.716,3.725-1.492,1.9-2.728,2.55-5.782,3.4A20.294,20.294,0,0,0,15.571,18.8ZM0,9.975,9.785,4.62A24.2,24.2,0,0,1,14.6.122c.483-.2,1.327-.323.537,1.076s-1.556,2.907-1.154,3.339c.177.189.469.179.783.169a1.122,1.122,0,0,1,1.1.376q.48.716-5.139,2.264l-7.11,6.5Z" transform="translate(44.724 2.053)" fill="#915b3c"/>
          <path id="Sleeve" d="M1.554,1.8A24.059,24.059,0,0,0,14.873.007L16.1,4.521C12.253,7.29,7.152,9.257,3.085,8.495A3.733,3.733,0,0,1,1.554,1.8Z" transform="translate(38.143 9.303) rotate(-9)" fill="#2026a2"/>
          <path id="Clothes" d="M9.422,40.135c-3.442-.447-6.645-.894-8.506-.528C-2.275,29.254,3.895,25.046,3.9,18.422,3.9,11.167,9.735,0,10.593,0h7.823c.431,5.538,2.6,11.641,4.384,17.67,5.685,1.29,18.308-3.2,18.308-3.2s3.187,6.587,2.946,9.392c-7.348,3.835-13.645,5.545-18.834,5.658A17.828,17.828,0,0,1,23.752,38.2c-.942,2-3.547,2.6-6.727,2.6A61.887,61.887,0,0,1,9.422,40.135Z" transform="translate(21.771 0)" fill="#1f28cf"/>
        </g>
      </g>
      <g id="_Human_Standing-2" data-name="ðŸ˜Human/Standing" transform="matrix(-0.981, -0.017, 0.003, 0.995, 177.704, 54.178)">
        <g id="Head_Front-2" data-name="Head/Front" transform="translate(18.503)">
          <g id="Head-3" data-name="Head" transform="translate(16.653 8.514)">
            <path id="Head-4" data-name="Head" d="M0,20.049,2.548,9.472A6.99,6.99,0,0,1,.326,4.127C.789-1.751,9.976-.458,11.763,2.509S13.337,13,11.028,13.53c-.921.211-2.883-.306-4.88-1.378l1.254,7.9Z" transform="translate(0 0)" fill="#b28b67"/>
          </g>
          <path id="hair-2" data-name="hair" d="M45.475,9.526c-.975-.142-3.6-.24-4.086-.24-.31,0-.645.063-.828-.19-.15-.207-.1-.558-.14-.8-.052-.279-.126-.555-.2-.83a7.924,7.924,0,0,0-.984-2.227A7.444,7.444,0,0,0,35.593,2.3a13.022,13.022,0,0,0-5.531-.678A26.74,26.74,0,0,0,24.4,2.9a13.235,13.235,0,0,1-5.525.474,14.046,14.046,0,0,1-4.892-2.028A9.964,9.964,0,0,0,8.584.019a11.2,11.2,0,0,0-4.93,1.664A7.5,7.5,0,0,0,.476,4.9,4,4,0,0,0,.924,9.372c1.657,1.923,4.734,2.421,7.294,2.371a15.472,15.472,0,0,0,4.333-.707,44.044,44.044,0,0,0,5.22-2.377,14.6,14.6,0,0,1,2.551-.909A3.157,3.157,0,0,1,22.81,7.9a12.187,12.187,0,0,0,2.506,1.278,8.972,8.972,0,0,0,2.827.452,30.974,30.974,0,0,0,5.545-.882,12.732,12.732,0,0,1,4.588-.294c.632.114,1.555.349,1.783.934-3.841.62-5.349,4.85-4.266,7.956.584,1.676,4.1,3.636,5.463,2.754.865-.558.34-1.291,0-1.775-.651-.926-.874-2.117.331-2.762,1.039-.556,2.132.765,2.152.763a13.362,13.362,0,0,0,4.454-3.077c1.677.089,1.932-.9,1.531-1.7S46.823,9.723,45.475,9.526Z" transform="translate(-21.278 -1.923)" fill="#191847"/>
        </g>
        <g id="Bottom_Skinny_Jeans_1-2" data-name="Bottom/Skinny Jeans 1" transform="translate(0.617 42.788)">
          <path id="Leg-3" data-name="Leg" d="M27.057.041c-5.218,4.332-.972,45.089-1.309,45.581C25.523,45.95.076,49.986.076,49.986l.908,3.187s30.024.115,31.655-2.112c2.335-3.189,4.225-36.888,4.225-36.888Z" transform="matrix(0.574, -0.819, 0.819, 0.574, 13.016, 30.712)" fill="#b28b67"/>
          <path id="Pant-3" data-name="Pant" d="M.075,48.947l1.575,5.139c15.057,2.617,24.8.952,28.091-2.291s4.246-36.786,4.246-36.786L23.5.036c-12.464,9.489-2.928,43.344-3.22,44.09S12.133,45.04.075,48.947Z" transform="matrix(0.574, -0.819, 0.819, 0.574, 14.693, 27.82)" fill="#2f3676"/>
          <g id="Right_Show" data-name="Right Show" transform="translate(54.758 51.98) rotate(20)">
            <path id="shoe-3" data-name="shoe" d="M1.32,1.742a.589.589,0,0,0-.757.4L0,4.164A19.58,19.58,0,0,0,.266,6.532H16.909s.649-2.18-.749-2.354-2.322-.314-2.322-.314L6.1.358a.293.293,0,0,0-.393.16l-.5,1.226a6.608,6.608,0,0,1-2.1.614Z" transform="translate(0.295 5.468)" fill="#e4e4e4"/>
          </g>
          <path id="Leg-4" data-name="Leg" d="M31.641,0,15.684,34.119,0,62.963H3.7L44.184,0Z" transform="translate(1.047 8.571)" fill="#997659"/>
          <g id="Left_Shot" data-name="Left Shot" transform="translate(0 63.226)">
            <path id="shoe-4" data-name="shoe" d="M1.38,1.623a.633.633,0,0,0-.791.37L0,3.84A15.8,15.8,0,0,0,.278,6.008H17.671s.678-2-.783-2.155-2.427-.287-2.427-.287L6.377.356A.323.323,0,0,0,5.967.5l-.52,1.123a7.635,7.635,0,0,1-2.2.562Z" transform="translate(0.308 4.978)" fill="#e4e4e4"/>
          </g>
          <path id="Pant-4" data-name="Pant" d="M0,56.971l8.222,1.373C14.58,50.02,41.185,15.889,44.1,0H25.8C16.056,11.486,6.06,48.509,0,56.971Z" transform="translate(2.464 8.571)" fill="#5c63ab"/>
        </g>
        <g id="Body_Long_Sleeve_1-2" data-name="Body/Long Sleeve 1" transform="translate(0 22.521)">
          <path id="Skin-2" data-name="Skin" d="M9.8,31.933a1.884,1.884,0,0,0-2.351-.938c-2.591.573-4.788,2.044-7.2.06-.3-.244-.515-1.006.5-1.4C3.27,28.683,7,26.86,7.6,26.152Q8.839,24.7,15.267,9.613l6.319,1.117Q12.054,26.551,11.362,27.5c-1.038,1.424-.069,4.034.288,5.408a2.175,2.175,0,0,1-.44.049C10.45,32.958,10.146,32.445,9.8,31.933ZM60.443,8.409l11.174-4.37A26.309,26.309,0,0,1,77.288.077c.545-.154,1.476-.2.483,1.091S75.8,3.861,76.194,4.313s1.547-.047,2,.69q.455.737-5.816,1.762L64.011,12.48Z" transform="translate(0.617 12.908)" fill="#b28b67"/>
          <path id="Coat_Back" data-name="Coat Back" d="M0,.637,2.621,0c6.223,4.493,9.635,16.3,13.63,17.548,3.777,1.184,8.818-.723,14.789-3.224L33.249,17.9c-5.111,5.866-16.6,11.45-21.651,9.278C3.529,23.707.454,9.051,0,.637Z" transform="matrix(0.996, 0.087, -0.087, 0.996, 39.435, 0.829)" fill="#db2721"/>
          <path id="Shirt" d="M0,31.31H23.595c1.078,0,.875-1.387.719-2.086-1.8-8.075-8.82-16.779-8.82-28.273L8.688,0C3.058,8.063,1.112,17.991,0,31.31Z" transform="translate(27.754)" fill="#dde3e9"/>
          <path id="Coat_Front" data-name="Coat Front" d="M0,38.961Q4.778,12.567,27.677,0h2.695s9.165,27.823,5.053,37.077H14.186a62.327,62.327,0,0,1,2.889-13.943Q9.86,34.725,4.946,39.824Z" transform="translate(8.326)" fill="#ff4133"/>
        </g>
      </g>
      <g id="study" transform="translate(83 -4.169)">
        <path id="Path_2" data-name="Path 2" d="M33.986,96.089H32.431v20.392s-2.09.609-7.028-.879a8,8,0,0,0-7.09,1.1c-.27.19-.591.505-.921.505H17.35c-.33,0-.651-.315-.921-.505a8,8,0,0,0-7.09-1.1c-4.938,1.488-7.028.879-7.028.879V96.089H.756A.756.756,0,0,0,0,96.845v21.261a.756.756,0,0,0,.756.756H14.34a1.041,1.041,0,0,1,.944.587,2.307,2.307,0,0,0,4.172,0,1.041,1.041,0,0,1,.944-.587H33.986a.756.756,0,0,0,.756-.756V96.845a.756.756,0,0,0-.756-.756Z" transform="translate(0 -40.94)" fill="#f87c68"/>
        <g id="Group_3" data-name="Group 3" transform="translate(0 55.149)">
          <path id="Path_3" data-name="Path 3" d="M3.868,118.106v-1.5a5.8,5.8,0,0,1-1.557-.121V96.089H.756A.756.756,0,0,0,0,96.845v21.261a.756.756,0,0,0,.756.756H4.624A.756.756,0,0,1,3.868,118.106Z" transform="translate(0 -96.089)" fill="#ec625e"/>
        </g>
        <path id="Path_4" data-name="Path 4" d="M263.193,53.522a18.3,18.3,0,0,1-6.563-.974,8,8,0,0,0-8.032,1.894l-.539.708v20.37l.539.723v.028h.021a1.6,1.6,0,0,0,.921-.3,8,8,0,0,1,7.09-1.1c4.938,1.488,7.238.879,7.238.879v-21.6A.626.626,0,0,0,263.193,53.522Z" transform="translate(-231.228)" fill="#dbedff"/>
        <path id="Path_5" data-name="Path 5" d="M250.65,64.285a7.47,7.47,0,0,0-2.051,1.45l-.539.708v20.37l.539.723v.028h.021a1.6,1.6,0,0,0,.921-.3,8.31,8.31,0,0,1,1.109-.658Z" transform="translate(-231.228 -11.294)" fill="#b5dcff"/>
        <g id="Group_4" data-name="Group 4" transform="translate(19.285 55.258)">
          <path id="Path_6" data-name="Path 6" d="M295.129,100.091l-.041,0a23.506,23.506,0,0,1-4.91-.983,7.467,7.467,0,0,0-5.235.245.524.524,0,1,1-.414-.963,8.49,8.49,0,0,1,5.951-.285,22.472,22.472,0,0,0,4.688.941.524.524,0,0,1-.039,1.047Z" transform="translate(-284.212 -97.699)" fill="#8bcaff"/>
        </g>
        <g id="Group_5" data-name="Group 5" transform="translate(19.285 57.486)">
          <path id="Path_7" data-name="Path 7" d="M295.129,132.927l-.041,0a23.5,23.5,0,0,1-4.91-.983,7.467,7.467,0,0,0-5.235.245.524.524,0,1,1-.414-.963,8.49,8.49,0,0,1,5.951-.285,22.464,22.464,0,0,0,4.688.941.524.524,0,0,1-.039,1.047Z" transform="translate(-284.212 -130.535)" fill="#8bcaff"/>
        </g>
        <g id="Group_6" data-name="Group 6" transform="translate(19.285 68.627)">
          <path id="Path_8" data-name="Path 8" d="M295.129,297.115l-.041,0a23.506,23.506,0,0,1-4.91-.983,7.469,7.469,0,0,0-5.235.245.524.524,0,1,1-.414-.963,8.49,8.49,0,0,1,5.951-.285,22.469,22.469,0,0,0,4.688.941.524.524,0,0,1-.039,1.047Z" transform="translate(-284.212 -294.723)" fill="#8bcaff"/>
        </g>
        <g id="Group_7" data-name="Group 7" transform="translate(19.285 70.856)">
          <path id="Path_9" data-name="Path 9" d="M295.129,329.954l-.041,0a23.507,23.507,0,0,1-4.91-.983,7.468,7.468,0,0,0-5.235.245.524.524,0,1,1-.414-.963,8.49,8.49,0,0,1,5.951-.285,22.473,22.473,0,0,0,4.688.941.524.524,0,0,1-.039,1.047Z" transform="translate(-284.212 -327.562)" fill="#8bcaff"/>
        </g>
        <g id="Group_8" data-name="Group 8" transform="translate(19.285 59.715)">
          <path id="Path_10" data-name="Path 10" d="M295.129,165.765l-.041,0a23.5,23.5,0,0,1-4.91-.983,7.468,7.468,0,0,0-5.235.245.524.524,0,1,1-.414-.963,8.49,8.49,0,0,1,5.951-.285,22.467,22.467,0,0,0,4.688.941.524.524,0,0,1-.039,1.047Z" transform="translate(-284.212 -163.373)" fill="#8bcaff"/>
        </g>
        <g id="Group_9" data-name="Group 9" transform="translate(19.286 64.171)">
          <path id="Path_11" data-name="Path 11" d="M295.13,231.44h-.041a23.506,23.506,0,0,1-4.91-.983,7.468,7.468,0,0,0-5.235.245.524.524,0,0,1-.414-.963,8.49,8.49,0,0,1,5.951-.285,22.46,22.46,0,0,0,4.688.941.524.524,0,0,1-.039,1.047Z" transform="translate(-284.213 -229.048)" fill="#8bcaff"/>
        </g>
        <g id="Group_10" data-name="Group 10" transform="translate(19.285 61.943)">
          <path id="Path_12" data-name="Path 12" d="M295.129,198.6l-.041,0a23.506,23.506,0,0,1-4.91-.983,7.467,7.467,0,0,0-5.235.245.524.524,0,1,1-.414-.963,8.489,8.489,0,0,1,5.951-.285,22.473,22.473,0,0,0,4.688.941.524.524,0,0,1-.039,1.047Z" transform="translate(-284.212 -196.211)" fill="#8bcaff"/>
        </g>
        <g id="Group_11" data-name="Group 11" transform="translate(19.286 66.399)">
          <path id="Path_13" data-name="Path 13" d="M295.13,264.277h-.041a23.5,23.5,0,0,1-4.91-.983,7.468,7.468,0,0,0-5.235.245.524.524,0,0,1-.414-.963,8.489,8.489,0,0,1,5.951-.285,22.462,22.462,0,0,0,4.688.941.524.524,0,0,1-.039,1.047Z" transform="translate(-284.213 -261.885)" fill="#8bcaff"/>
        </g>
        <path id="Path_14" data-name="Path 14" d="M31.641,53.522a18.3,18.3,0,0,0,6.563-.974,8,8,0,0,1,8.032,1.894V76.269h-.021a1.6,1.6,0,0,1-.921-.3,8,8,0,0,0-7.09-1.1c-4.938,1.488-7.238.879-7.238.879v-21.6A.626.626,0,0,1,31.641,53.522Z" transform="translate(-28.864)" fill="#dbedff"/>
        <path id="Path_15" data-name="Path 15" d="M33.273,72.061a11.124,11.124,0,0,1-1.631,0,.626.626,0,0,0-.675.625v21.6a7.963,7.963,0,0,0,2.307.092Z" transform="translate(-28.865 -18.542)" fill="#b5dcff"/>
        <g id="Group_12" data-name="Group 12" transform="translate(4.016 55.258)">
          <path id="Path_16" data-name="Path 16" d="M59.706,100.089a.524.524,0,0,1-.04-1.047,22.473,22.473,0,0,0,4.688-.941,8.489,8.489,0,0,1,5.951.285.524.524,0,1,1-.414.963,7.468,7.468,0,0,0-5.235-.245,23.5,23.5,0,0,1-4.91.983Z" transform="translate(-59.182 -97.697)" fill="#8bcaff"/>
        </g>
        <g id="Group_13" data-name="Group 13" transform="translate(4.016 57.486)">
          <path id="Path_17" data-name="Path 17" d="M59.706,132.926a.524.524,0,0,1-.039-1.047,22.463,22.463,0,0,0,4.688-.941,8.489,8.489,0,0,1,5.951.285.524.524,0,1,1-.414.963,7.468,7.468,0,0,0-5.235-.245,23.5,23.5,0,0,1-4.91.983l-.041,0Z" transform="translate(-59.182 -130.534)" fill="#8bcaff"/>
        </g>
        <g id="Group_14" data-name="Group 14" transform="translate(4.016 68.627)">
          <path id="Path_18" data-name="Path 18" d="M59.706,297.114a.524.524,0,0,1-.04-1.047,22.464,22.464,0,0,0,4.688-.941,8.49,8.49,0,0,1,5.951.285.524.524,0,0,1-.414.963,7.468,7.468,0,0,0-5.235-.245,23.5,23.5,0,0,1-4.91.983Z" transform="translate(-59.182 -294.722)" fill="#8bcaff"/>
        </g>
        <g id="Group_15" data-name="Group 15" transform="translate(4.016 70.856)">
          <path id="Path_19" data-name="Path 19" d="M59.706,329.952a.524.524,0,0,1-.04-1.047,22.472,22.472,0,0,0,4.688-.941,8.489,8.489,0,0,1,5.951.285.524.524,0,0,1-.414.963,7.468,7.468,0,0,0-5.235-.245,23.506,23.506,0,0,1-4.91.983Z" transform="translate(-59.182 -327.56)" fill="#8bcaff"/>
        </g>
        <g id="Group_16" data-name="Group 16" transform="translate(4.016 59.715)">
          <path id="Path_20" data-name="Path 20" d="M59.706,165.764a.524.524,0,0,1-.04-1.047,22.466,22.466,0,0,0,4.688-.941,8.49,8.49,0,0,1,5.951.285.524.524,0,0,1-.414.963,7.468,7.468,0,0,0-5.235-.245,23.5,23.5,0,0,1-4.91.983Z" transform="translate(-59.182 -163.372)" fill="#8bcaff"/>
        </g>
        <g id="Group_17" data-name="Group 17" transform="translate(4.016 64.171)">
          <path id="Path_21" data-name="Path 21" d="M59.706,231.439a.524.524,0,0,1-.039-1.047,22.457,22.457,0,0,0,4.688-.941,8.489,8.489,0,0,1,5.951.285.524.524,0,0,1-.414.963,7.468,7.468,0,0,0-5.235-.245,23.506,23.506,0,0,1-4.91.983l-.041,0Z" transform="translate(-59.182 -229.046)" fill="#8bcaff"/>
        </g>
        <g id="Group_18" data-name="Group 18" transform="translate(4.016 61.943)">
          <path id="Path_22" data-name="Path 22" d="M59.706,198.6a.524.524,0,0,1-.04-1.047,22.472,22.472,0,0,0,4.688-.941,8.489,8.489,0,0,1,5.951.285.524.524,0,1,1-.414.963,7.468,7.468,0,0,0-5.234-.245,23.5,23.5,0,0,1-4.91.983Z" transform="translate(-59.182 -196.21)" fill="#8bcaff"/>
        </g>
        <g id="Group_19" data-name="Group 19" transform="translate(4.016 66.399)">
          <path id="Path_23" data-name="Path 23" d="M59.706,264.277a.524.524,0,0,1-.039-1.047,22.462,22.462,0,0,0,4.688-.941,8.49,8.49,0,0,1,5.951.285.524.524,0,1,1-.414.963,7.469,7.469,0,0,0-5.235-.245,23.5,23.5,0,0,1-4.91.983l-.041,0Z" transform="translate(-59.182 -261.885)" fill="#8bcaff"/>
        </g>
      </g>
    </g>
  </g>
</svg>
