<svg xmlns="http://www.w3.org/2000/svg" viewBox="0 0 4000 4000"><defs><style>.cls-1{fill:#ffcc80;}.cls-2{opacity:0.25;}.cls-3{fill:#1d1c22;}.cls-4{fill:#494849;}.cls-5{fill:#3c424c;}.cls-6{opacity:0.35;}.cls-7{fill:#fff;}.cls-8{fill:#f99191;}.cls-9{fill:#dd7f40;}.cls-10{fill:#e4b684;}.cls-11{fill:#ef5f5e;}</style></defs><g id="Layer_2" data-name="Layer 2"><g id="Layer_1-2" data-name="Layer 1"><rect class="cls-1" width="4000" height="4000"/><g class="cls-2"><ellipse class="cls-3" cx="2042.5" cy="3342.5" rx="1132.5" ry="117.5"/></g><path class="cls-4" d="M3289.72,2671.16c-14.94,97.09-235.72,150-235.72,150s49.63,22.74,23.54,55.4c-40.32,50.42-199.3,38.66-199.3,38.66s46.88,69.62,2,78.32c-88.9,17.29-317.76-20.58-434.15-27.79l-11.19-199.77c5.2-.87,10.43-1.73,15.52-2.64,2.34-.39,4.73-.79,7-1.3,5.34-.93,10.57-1.95,15.77-3q40.07-8,75.86-18.45,13.65-3.95,26.71-8.3c263.37-86.62,339.38-268.92,279.82-389.1-12.34-24.94-52.55-59.34-103.36-65.33a129.26,129.26,0,0,0-29.64-.11c-29.37,3.25-60.95,16.93-92,47.1-39.67,38.58-77.31,15.49-87.35-34.14a.74.74,0,0,0-.1-.4,119.36,119.36,0,0,1-2.1-15.91c-.07-.69-.14-1.34-.18-2-6.1-101,23.28-158.37,23.28-158.37s-55.54-35.23-47.46-68.32c25.19-102.68,285.45-89.33,285.45-89.33s-30.71-96.69,30.1-92.94c140,8.63,295.16,177.36,295.16,177.36s38.91-33.6,65.22-25c70.92,23.32,60.16,262.21,60.16,262.21s63-14.51,79.23,37.14C3373.74,2448,3214,2627.06,3214,2627.06S3297.48,2620.63,3289.72,2671.16Z"/><path class="cls-5" d="M3289.72,2671.16c-14.94,97.09-235.72,150-235.72,150s49.63,22.74,23.54,55.4c-40.32,50.42-199.3,38.66-199.3,38.66s46.88,69.62,2,78.32c-88.9,17.29-317.76-20.58-434.15-27.79l-11.19-199.77c5.2-.87,10.43-1.73,15.52-2.64,2.34-.39,4.73-.79,7-1.3,5.34-.93,10.57-1.95,15.77-3q40.07-8,75.86-18.45,13.65-3.95,26.71-8.3c263.37-86.62,339.38-268.92,279.82-389.1-12.34-24.94-52.55-59.34-103.36-65.33a129.26,129.26,0,0,0-29.64-.11c-29.37,3.25-60.95,16.93-92,47.1-39.67,38.58-77.31,15.49-87.35-34.14a.74.74,0,0,0-.1-.4,119.36,119.36,0,0,1-2.1-15.91c-.07-.69-.14-1.34-.18-2-6.1-101,23.28-158.37,23.28-158.37s-55.54-35.23-47.46-68.32c25.19-102.68,285.45-89.33,285.45-89.33s-30.71-96.69,30.1-92.94c140,8.63,295.16,177.36,295.16,177.36s38.91-33.6,65.22-25c70.92,23.32,60.16,262.21,60.16,262.21s63-14.51,79.23,37.14C3373.74,2448,3214,2627.06,3214,2627.06S3297.48,2620.63,3289.72,2671.16Z"/><g class="cls-6"><path class="cls-7" d="M2851.69,2606.14c-62.65,82.94-208,163.87-275.87,126.12,263.37-86.62,339.38-268.92,279.82-389.1-12.34-24.94-52.55-59.34-103.36-65.33a129.26,129.26,0,0,0-29.64-.11c14.66-6.64,29.42-9.74,44.07-8.12C2878.45,2282,2977.76,2439.25,2851.69,2606.14Z"/></g><path class="cls-7" d="M3289.72,2671.15c-14.95,97.1-235.73,150-235.73,150s49.63,22.72,23.53,55.41c-40.3,50.4-199.29,38.64-199.29,38.64s46.9,69.62,2,78.33c-88.92,17.26-317.76-20.6-434.16-27.81l-11.18-199.58a.08.08,0,0,1,.07-.09l15.43-2.71c2.36-.41,4.72-.86,7-1.3,5.33-.94,10.59-2,15.8-3l61.23-20.64a89,89,0,0,1,14.61,2.2c93.6,22.31,162.85,194.32,255.64,149.05,35.26-17.21,16.83-84.22,16.37-85.87,0,0,0,0,0,0,2.15,1.09,134.61,68.19,169.38,24.74,22.68-28.42-56-94.78-56-94.78s202.09,56,251.88-16.48c25.13-36.61-103-53.52-103-53.52s232.45-169.28,183.62-311.8c-10.06-29.37-83.73,37.34-83.73,37.34s47.66-276.57-14-296.88c-22.84-7.5-62.53,64.43-62.53,64.43s-102.69-126-235.24-119.19c-58.3,3-112,33.63-136.31,89-18.08,41.28-23.73,91.15,17.06,151.24-37.09-4.35-79.84,6.39-121.61,47-39.69,38.6-77.31,15.52-87.37-34.11a1.19,1.19,0,0,0-.08-.41c-1-6.27-1.75-11.64-2.12-15.92-.08-.69-.12-1.34-.16-2-6.11-101,23.29-158.37,23.29-158.37s-55.57-35.22-47.47-68.32c25.2-102.68,285.43-89.32,285.43-89.32s-30.69-96.7,30.13-92.95c140,8.63,295.12,177.38,295.12,177.38s38.93-33.62,65.23-25c70.33,23.13,60.34,258.29,60.17,262.18,0,0,0,0,.05,0,2.09-.46,63.25-13.63,79.18,37.15C3373.75,2448,3214,2627.05,3214,2627.05S3297.49,2620.62,3289.72,2671.15Z"/><path class="cls-3" d="M2819.14,3012.39c-67.22,0-157.23-10-239.26-19.11-50.6-5.62-98.4-10.94-134.66-13.18a14.44,14.44,0,1,1,1.79-28.82c37,2.29,85.09,7.64,136.06,13.3,110.46,12.27,235.65,26.17,294.45,14.77,5.76-1.12,6.61-3.17,7-4,4.19-10.1-7.9-36.73-18.24-52.07l-16.6-24.64,29.64,2.18c42.14,3.1,157.82,3.16,186.94-33.27,4.88-6.11,4.71-9.91,4.16-12.23-2.15-9-16.28-18.22-22.41-21l-38-17.4,40.63-9.76c58.8-14.11,213.8-66.44,224.83-138.14,1.29-8.35-1.24-12.33-3.58-14.87-10.62-11.48-40.47-13.84-56.81-12.62l-35.6,2.65,23.73-26.65c1.55-1.73,153.82-174.52,115.08-298-12-38.15-60.21-27.84-62.25-27.39l-18.41,4.11.79-18.84c4.24-94.65-8.56-234.12-50.28-247.84-12.68-4.18-37.62,10.48-51.27,22.21l-10.59,9.1-9.46-10.26c-1.52-1.65-152.86-164.58-285.4-172.75-10.63-.66-14.63,2.82-16.72,5.5-11,14-3.89,52.32,1.27,68.66l6.25,19.82-20.75-1c-69.06-3.51-252.35,3.7-270.68,78.36-4.24,17.29,25.92,43,41.2,52.68l11.09,7.07-6,11.71c-.25.5-27.51,55.71-21.75,150.91,1.73,28.6,12.65,50.87,27.82,56.75,13.74,5.31,27.94-4.57,37.45-13.79,53.51-52,106.28-55.79,141.12-49.82,51,8.75,92.38,42.89,106.85,72.1,29.79,60.13,27,133.19-7.69,200.47-62.5,121.26-216.93,209.82-423.68,243a14.44,14.44,0,0,1-4.57-28.51C2630.22,2720,2777,2637,2835.21,2524c30.43-59,33.16-122.6,7.49-174.41-9.39-18.95-42.23-49-85.86-56.47-40.47-6.94-80.65,7.6-116.13,42.07-29.67,28.83-55.34,24.89-68,20-26.05-10.1-43.75-41.49-46.2-81.92-4.76-78.59,11.25-131.86,19.84-154.15-18.06-13.58-51.69-43.94-43.61-76.85,23.9-97.37,215.19-102.16,280.79-101-4.3-21.51-7.51-55.32,8.38-75.69,6.49-8.33,18.89-17.94,41.27-16.58,126,7.77,259.73,135.65,295.72,172.43,15.49-11,44.11-27.28,68.25-19.34,35.85,11.79,57.62,61.56,66.56,152.15,4.28,43.43,4.4,85,4,107.38,27.81-1.13,65.24,8.23,78.1,49.21,35,111.5-59.58,248.76-102,302.73,17,2.12,36.84,7.58,49.17,20.87,9.5,10.27,13.3,23.72,11,38.91-12.88,83.73-154.83,135.09-217.5,153.83,5.37,5.87,10,13,12,21.43,2.07,8.72,2.07,22.21-9.7,36.94-34.55,43.21-135.76,46.45-185.23,45.25,7.82,16.73,14.61,38.69,7.61,55.58-3.26,7.87-10.79,18-28.14,21.32C2865.92,3011,2844.1,3012.39,2819.14,3012.39Z"/><path class="cls-3" d="M2819.14,3012.39c-67.22,0-157.23-10-239.26-19.11-50.6-5.62-98.4-10.94-134.66-13.18a14.44,14.44,0,1,1,1.79-28.82c37,2.29,85.09,7.64,136.06,13.3,110.46,12.27,235.65,26.17,294.45,14.77,5.76-1.12,6.61-3.17,7-4,4.19-10.1-7.9-36.73-18.24-52.07l-16.6-24.64,29.64,2.18c42.14,3.1,157.82,3.16,186.94-33.27,4.88-6.11,4.71-9.91,4.16-12.23-2.15-9-16.28-18.22-22.41-21l-38-17.4,40.63-9.76c58.8-14.11,213.8-66.44,224.83-138.14,1.29-8.35-1.24-12.33-3.58-14.87-10.62-11.48-40.47-13.84-56.81-12.62l-35.6,2.65,23.73-26.65c1.55-1.73,153.82-174.52,115.08-298-12-38.15-60.21-27.84-62.25-27.39l-18.41,4.11.79-18.84c4.24-94.65-8.56-234.12-50.28-247.84-12.68-4.18-37.62,10.48-51.27,22.21l-10.59,9.1-9.46-10.26c-1.52-1.65-152.86-164.58-285.4-172.75-10.63-.66-14.63,2.82-16.72,5.5-11,14-3.89,52.32,1.27,68.66l6.25,19.82-20.75-1c-69.06-3.51-252.35,3.7-270.68,78.36-4.24,17.29,25.92,43,41.2,52.68l11.09,7.07-6,11.71c-.25.5-27.51,55.71-21.75,150.91,1.73,28.6,12.65,50.87,27.82,56.75,13.74,5.31,27.94-4.57,37.45-13.79,53.51-52,106.28-55.79,141.12-49.82,51,8.75,92.38,42.89,106.85,72.1,29.79,60.13,27,133.19-7.69,200.47-62.5,121.26-216.93,209.82-423.68,243a14.44,14.44,0,0,1-4.57-28.51C2630.22,2720,2777,2637,2835.21,2524c30.43-59,33.16-122.6,7.49-174.41-9.39-18.95-42.23-49-85.86-56.47-40.47-6.94-80.65,7.6-116.13,42.07-29.67,28.83-55.34,24.89-68,20-26.05-10.1-43.75-41.49-46.2-81.92-4.76-78.59,11.25-131.86,19.84-154.15-18.06-13.58-51.69-43.94-43.61-76.85,23.9-97.37,215.19-102.16,280.79-101-4.3-21.51-7.51-55.32,8.38-75.69,6.49-8.33,18.89-17.94,41.27-16.58,126,7.77,259.73,135.65,295.72,172.43,15.49-11,44.11-27.28,68.25-19.34,35.85,11.79,57.62,61.56,66.56,152.15,4.28,43.43,4.4,85,4,107.38,27.81-1.13,65.24,8.23,78.1,49.21,35,111.5-59.58,248.76-102,302.73,17,2.12,36.84,7.58,49.17,20.87,9.5,10.27,13.3,23.72,11,38.91-12.88,83.73-154.83,135.09-217.5,153.83,5.37,5.87,10,13,12,21.43,2.07,8.72,2.07,22.21-9.7,36.94-34.55,43.21-135.76,46.45-185.23,45.25,7.82,16.73,14.61,38.69,7.61,55.58-3.26,7.87-10.79,18-28.14,21.32C2865.92,3011,2844.1,3012.39,2819.14,3012.39Z"/><g class="cls-6"><path class="cls-3" d="M3289.72,2671.16c-14.94,97.09-235.72,150-235.72,150s49.63,22.74,23.54,55.4c-40.32,50.42-199.3,38.66-199.3,38.66s46.88,69.62,2,78.32c-88.9,17.29-317.76-20.58-434.15-27.79l-2.38-42.7c123,11.95,283.16,55.28,347.82,10.31,38.07-26.49,5-84.42,5-84.42s144.4,37.9,184.72-12.52c26.09-32.67-64.44-92.86-64.44-92.86s245.52,13.8,254.62-57.65c5.3-41.61-101-38.9-101-38.9s259-209.65,205.24-297.93c-19.36-31.77-76.13-8.27-76.13-8.27s60.4-219-26.71-325c6.86-1.66,13.68-2,19.82.07,70.92,23.32,60.16,262.21,60.16,262.21s63-14.51,79.23,37.14C3373.74,2448,3214,2627.06,3214,2627.06S3297.48,2620.63,3289.72,2671.16Z"/></g><path class="cls-8" d="M1868.13,900.89c0,83,57.13,150.79,129,154.8,2.23.14,4.51.21,6.78.21,75,0,135.71-69.4,135.71-155s-60.74-155-135.71-155c-39.92,0-75.83,19.7-100.69,51C1881.41,824.37,1868.13,860.86,1868.13,900.89Z"/><g class="cls-6"><path class="cls-3" d="M2014.34,809.18c4.73,41.61-12.92,207.24-17.25,246.51,2.23.14,4.51.21,6.78.21,75,0,135.71-69.4,135.71-155s-60.74-155-135.71-155c-39.92,0-75.83,19.7-100.69,51C1933.28,785.14,2008.82,760.67,2014.34,809.18Z"/></g><path class="cls-8" d="M1470.18,900.89c0,83-57.13,150.79-129,154.8-2.24.14-4.52.21-6.79.21-75,0-135.7-69.4-135.7-155s60.74-155,135.7-155c39.92,0,75.83,19.7,100.7,51C1456.9,824.37,1470.18,860.86,1470.18,900.89Z"/><g class="cls-6"><path class="cls-3" d="M1324,809.18c-4.72,41.61,12.93,207.24,17.26,246.51-2.24.14-4.52.21-6.79.21-75,0-135.7-69.4-135.7-155s60.74-155,135.7-155c39.92,0,75.83,19.7,100.7,51C1405,785.14,1329.5,760.67,1324,809.18Z"/></g><path class="cls-7" d="M1804.8,2466.69s-181.23-17.36-222.35,215.62c-18.42,104.34,14,296.54,155.7,469,0,0-114,27.74-126.12,113.31-15.19,107.41,152.43,105.7,152.43,105.7h56.4a219.94,219.94,0,0,0,189.61-108.46c102.24-173.88,234.1-540.57-92.27-980.73"/><g class="cls-6"><path class="cls-3" d="M2089.52,3083.29a848,848,0,0,1-79,178.62,220,220,0,0,1-189.63,108.46h-56.37s-167.65,1.7-152.46-105.71a100.64,100.64,0,0,1,12.28-35.92c36.56,60.71,154.61,59.52,154.61,59.52h60.75a237,237,0,0,0,204.28-116.87A914.92,914.92,0,0,0,2089.52,3083.29Z"/></g><path class="cls-3" d="M1763.63,3384.8c-10.42,0-103.47-1.4-145.94-49.79-17.26-19.66-24-44-20-72.37,10-71.08,80.09-105.55,116-118.71-127.89-164.62-165.63-350.19-145.52-464.13,42.94-243.28,236-227.69,238-227.48a14.43,14.43,0,0,1-2.72,28.74c-6.84-.61-168.6-12.64-206.8,203.76-19.64,111.27,19.94,295.84,152.65,457.37L1763.9,3160l-22.34,5.43c-1,.25-104.67,26.57-115.24,101.3-2.81,19.91,1.45,36,13,49.25,35.31,40.3,124,40.07,125,40h56.53A206.31,206.31,0,0,0,1998,3254.58c103.07-175.28,228.24-533.7-91.41-964.81a14.44,14.44,0,1,1,23.19-17.2c329.56,444.48,199.79,815.21,93.12,996.65a235.34,235.34,0,0,1-202.07,115.58h-57.22Z"/><path class="cls-3" d="M1894.53,3166.23a14.45,14.45,0,0,1-2.44-.21c-.87-.15-87.24-14.52-155.73-.52a14.44,14.44,0,0,1-5.78-28.29c73.89-15.08,162.62-.29,166.35.34a14.44,14.44,0,0,1-2.4,28.68Z"/><path class="cls-3" d="M1851.59,3382.63a15.61,15.61,0,0,1-1.92-.13c-27-3.59-78.73-27.7-81.41-93.23-2.24-54.76,49.93-80,77.83-85.63a14.43,14.43,0,0,1,5.79,28.28c-2.32.49-56.57,12.36-54.77,56.17,2.37,57.94,54.16,65.49,56.37,65.79a14.44,14.44,0,0,1-1.89,28.75Z"/><path class="cls-3" d="M1754.21,3201.86c-16.72,9.41-32.28,19.75-44.63,32.1a86.26,86.26,0,0,0-14.73,19.9,52.27,52.27,0,0,0-5.35,21.87c.22,8.34.44,16.6,2.69,24.31.77,3.95,2.36,7.6,3.58,11.35,1.73,3.55,3.15,7.24,5.38,10.52a87.23,87.23,0,0,0,14.75,18.66c2.95,2.72,6,5.39,9.19,7.82,1.6,1.23,3.25,2.37,4.88,3.49s3.52,2.25,4.45,2.82l1.44.87a14.39,14.39,0,0,1-13.5,25.36,84.63,84.63,0,0,1-7.85-4.08c-2.39-1.34-4.62-2.87-6.84-4.4s-4.32-3.21-6.46-4.85l-6-5.36a103.68,103.68,0,0,1-19.77-25.79c-10.77-19.21-13.77-42-11.3-62.67,1.62-11.15,5.43-22.35,11.75-31.42a87.69,87.69,0,0,1,22.81-21.92l6.49-4c2.22-1.2,4.5-2.27,6.74-3.39a104.6,104.6,0,0,1,13.78-5.49A110.43,110.43,0,0,1,1754.21,3201.86Z"/><path class="cls-5" d="M1635.12,2553.28c-.65,3.79-1.31,7.58-1.88,11.32-70.88,431.39,49.23,805-174,805-149.7,0-244.28,11.4-263.25-59.68-28.17-105.45,131.87-123.24,131.87-123.24s26.87-137.89-37.41-348.38q-3.36-10.93-7-22.19c-9.52-28.9-61.19,12.58-84.84-18-20.52-26.59,41.77-118,35.13-141-1.54-5.37-84.6,0-76.21-42.91,6.31-32.12,23.9-97.83,19.62-191.35-3.13-67.91-17.1-141.68-4.56-265.93,12.5-123.53,39.74-283.61,87.66-479.07Z"/><g class="cls-6"><path class="cls-7" d="M1157.52,2614.17c6.31-32.12,23.89-97.81,19.63-191.32-3.14-67.93-17.11-141.7-4.58-265.93,12.52-123.54,23.51-112.5,20.14-4-3.37,108,20,201,23.12,269,4.25,93.51.55,138.52-5.76,170.65-8.41,42.95,71.24,18.44,72.8,23.82,6.64,23-56.78,155.16-36.28,181.76a29,29,0,0,0,9.42,8c-19.16,2.82-43.27,10.25-57.42-8-20.5-26.6,41.8-118,35.15-141C1232.19,2651.74,1149.14,2657.16,1157.52,2614.17Z"/></g><g class="cls-6"><path class="cls-7" d="M1279.76,2809.79c-8.41.65-16.67.14-23.75-3.65C1266,2804.7,1274.56,2804.48,1279.76,2809.79Z"/></g><path class="cls-7" d="M1633.25,2564.62c-30.32,184.53-25.7,358.53-27.94,497.2-3,185.48-18.33,307.79-146,307.79-149.71,0-244.27,11.41-263.25-59.69-28.15-105.43,131.88-123.22,131.88-123.22s26.85-137.91-37.43-348.4c12.56-57.17,37.32-102.72,68.79-139C1437.27,2609.41,1556.51,2576.56,1633.25,2564.62Z"/><g class="cls-6"><path class="cls-3" d="M1597.08,3206.22c-13.21,101.89-47.24,163.39-137.8,163.39-149.71,0-244.27,11.41-263.25-59.69-6.46-24.15-3-43.71,6.13-59.52,29.35,56.81,124.59,46.67,268.85,46.67C1538.76,3297.07,1576.22,3264.08,1597.08,3206.22Z"/></g><path class="cls-3" d="M1361,3384.71c-97.79,0-161.85-7.32-178.87-71.05-7.64-28.56-3.89-54.21,11.15-76.22,29.68-43.44,95.59-58.88,122-63.46,4.59-36.3,15-169.24-45.48-353.35a5.12,5.12,0,0,0-.25-.62c-3-1.09-13,.64-19.07,1.69-18.2,3.15-45.71,7.9-63.22-14.77-17.14-22.21,0-62,16.55-100.54,5-11.65,11.93-27.76,14.79-37.85l-.74-.08c-20-2.34-53.48-6.24-68.19-26.38-6.3-8.64-8.46-19.24-6.23-30.65.84-4.26,1.87-9.11,3-14.51,7.47-35.15,20-94,16.33-173.43-.77-16.85-2.23-34.25-3.79-52.67-4.79-56.77-10.22-121.12-.7-215.37,14-138.07,43.57-299.92,88-481.06a14.44,14.44,0,0,1,28,6.87c-43.48,177.31-73.66,342.29-87.3,477.09-9.26,91.59-4,154.52.74,210,1.58,18.7,3.07,36.37,3.87,53.78,3.81,83.16-9.18,144.25-16.94,180.75-1.11,5.24-2.11,9.93-2.92,14-.87,4.47.13,6.59,1.21,8.08,7.27,9.95,34.93,13.18,48.22,14.73,14.09,1.64,23.41,2.72,26.47,13.32,4,13.9-3.58,32.69-17.35,64.7-8.75,20.36-27,62.73-20.22,71.48,6.42,8.3,17.67,7,35.45,4,17.19-3,43.18-7.48,51.67,18.37,73.56,224,46.13,371.65,44.93,377.82l-2,10.42L1329.5,3201c-.81.08-83.21,9.85-112.46,52.73-10.19,15-12.5,32.1-7.07,52.44,13.09,49,72.38,50.56,194.58,49.33,17.32-.18,35.58-.37,54.75-.37,123.83,0,130.53-125.89,132.31-367.15,1-130.64,2.06-278.72,29.26-437.18a14.44,14.44,0,0,1,28.46,4.89c-26.8,156.14-27.89,303-28.85,432.5-.83,112.85-1.55,210.31-20.54,279.25-21.91,79.53-66.6,116.57-140.64,116.57-19.07,0-37.23.18-54.46.36C1389.56,3384.56,1374.91,3384.71,1361,3384.71Z"/><g class="cls-6"><path class="cls-3" d="M1633.25,2564.62c-30.32,184.53-25.7,358.53-27.94,497.2-23.28-25.08-34.79-41.87-34.79-41.87s-31.87,76.77-88.5-18.48c-19.56-32.91-56.19-198-56.19-198s-37,46.12-53,19.67c-13.25-21.91-18.84-66-13.57-123.4,0-.14,0-.29,0-.43C1437.27,2609.41,1556.51,2576.56,1633.25,2564.62Z"/></g><path class="cls-7" d="M2471.19,2288.37,2361.62,2822.2l-75.8,369.23c-478.54,87.12-708.08-247.27-708.08-247.27s-31.87,76.77-88.5-18.48c-19.56-32.92-56.2-198-56.2-198s-37,46.12-53,19.67c-13.24-21.91-18.84-66-13.57-123.4.62-7,1.45-14.26,2.42-21.69,0,0-108-271,18.12-539.83,47.61-101.38,831.74-596.13,837.84-277.66C2229.23,2013.93,2471.19,2288.37,2471.19,2288.37Z"/><g class="cls-6"><path class="cls-3" d="M2361.62,2822.2l-75.8,369.23c-478.54,87.12-708.08-247.27-708.08-247.27s-31.87,76.77-88.5-18.48c-19.56-32.92-56.2-198-56.2-198s-37,46.12-53,19.67c-13.24-21.91-18.84-66-13.57-123.4,3.76,30.64,13.36,85.61,33.5,77.2,27.75-11.59,59.59-57.1,68.28-49.66s53.78,176.41,109.51,164.29,46.09-53.82,70.92-39.74C1671.54,2789,2122.65,2973.57,2361.62,2822.2Z"/></g><path class="cls-3" d="M1373.64,2602.94c2.57,18.13,3.38,35.64,4.49,52.9.49,8.64,1,17.17,1.66,25.62.87,8.43,1.75,16.77,3.19,24.87a146.77,146.77,0,0,0,5.67,23,69.82,69.82,0,0,0,4.21,9.7,10.18,10.18,0,0,0,1,1.6c.07.19-.32-.15-.55-.1-.69.07.94.31,3.43-.78a40.63,40.63,0,0,0,8.34-5,107.3,107.3,0,0,0,16.72-16l18.94-22.57,6.41,28.48c6,26.51,12.3,53.13,19,79.52s13.65,52.77,21.75,78.32c2,6.43,4.17,12.64,6.37,18.82,1.11,3.09,2.36,5.9,3.52,8.86a31.8,31.8,0,0,0,1.83,4l1.83,3.69c6.41,11,13.93,21.68,22.08,30,4.09,4,8.43,7.42,12.42,9.31s7.12,2.18,10.08,1.44,6.59-3.17,10-6.85a49.39,49.39,0,0,0,4.75-6.28c.74-1.14,1.43-2.33,2.09-3.52s1.35-2.63,1.62-3.24l10.28-23.54,15,20.91c4.2,5.87,9.31,12.4,14.35,18.44s10.37,12.15,15.77,18.08q16.26,17.73,33.88,34.28a677.76,677.76,0,0,0,75.07,60.71c52.88,36.77,110.76,66.56,171.91,86.89,7.61,2.64,15.23,5.25,23,7.35s15.43,4.61,23.23,6.62c15.67,3.75,31.29,7.75,47.19,10.43,15.78,3.36,31.83,5.13,47.78,7.46,8,1,16.06,1.51,24.09,2.29s16.06,1.55,24.13,1.7l24.2,1c8.06.32,16.15,0,24.22,0,8.08-.21,16.16.15,24.23-.53,8.06-.51,16.12-1.19,24.17-1.94,4-.39,8-.66,12.06-1.14s8-1.08,12-1.45c8-.93,16.1-1.42,24.21-1.75,16.2-.94,32.46-1.49,49.77,2.31l.31.07a5.09,5.09,0,0,1,1.41,9.4c-30.55,17.3-64.31,21.14-97.7,22.44-8.37.23-16.73.51-25.09,1s-16.73.3-25.1.49c-8.37,0-16.75.36-25.12,0l-25.11-1c-8.38-.17-16.73-1-25.08-1.76s-16.71-1.37-25-2.39c-16.6-2.41-33.29-4.27-49.72-7.75-16.55-2.81-32.83-6.95-49.15-10.87-8.12-2.1-16.14-4.61-24.22-6.9s-16-4.91-24-7.66c-63.75-21.21-124.11-52.25-179.2-90.57a708.48,708.48,0,0,1-78.27-63.31q-18.39-17.25-35.48-35.9c-5.68-6.24-11.25-12.58-16.66-19.11s-10.56-13-15.92-20.52l25.23-2.64c-1.09,2.54-1.9,4.06-2.92,6s-2,3.57-3.15,5.31a80.31,80.31,0,0,1-7.65,10.07c-5.83,6.32-13.54,12.61-23.92,15.36s-21.69.89-29.82-3.22c-8.39-4-14.82-9.43-20.48-15-11.05-11.28-19.29-23.32-26.67-35.91l-2.8-5.48a49.39,49.39,0,0,1-2.43-5.33c-1.36-3.41-2.87-6.87-4.07-10.24-2.4-6.71-4.76-13.43-6.81-20.08-8.45-26.68-15.44-53.3-22.23-80s-13.11-53.41-19.17-80.35l25.35,5.91a139.64,139.64,0,0,1-21.39,21.26,69.63,69.63,0,0,1-14.38,8.87,40.49,40.49,0,0,1-9.82,3.1,29.91,29.91,0,0,1-12.72-.29c-9.46-2.07-16.5-9.73-19.45-15.14a86.52,86.52,0,0,1-6.94-14.54,146.43,146.43,0,0,1-7.29-28.74,239.59,239.59,0,0,1-1.19-56c1.94-18.35,5.78-36.38,13-53.55a5,5,0,0,1,9.54,1.22Z"/><path class="cls-7" d="M2642.38,3065.86a847.22,847.22,0,0,1-84.28,196,219.82,219.82,0,0,1-189.59,108.49h-56.38s-167.61,1.7-152.45-105.71c12.09-85.58,126.14-113.3,126.14-113.3l-.1-.11c-56.2-68.43-95-140-120.37-207.85-33.89-90.88-43.53-175.33-38.19-237.23.69-8.41,1.66-16.39,2.93-23.86.18-1.08.39-2.09.54-3.1l-342-220.92-29.95-476.09L2199.85,1745c61,234,115.93,333.77,266,536.14C2698,2594.25,2698.32,2870.1,2642.38,3065.86Z"/><g class="cls-6"><path class="cls-3" d="M2453.9,3156.2c-76.51-13.9-136.17-9.6-168.18-4.95-56.2-68.43-95-140-120.37-207.85,67.45,83.73,84.17,89.37,165.23,124.81C2432.79,3112.9,2453.9,3156.2,2453.9,3156.2Z"/></g><g class="cls-6"><path class="cls-3" d="M2660.67,2987a804.75,804.75,0,0,1-18.29,78.82,847.22,847.22,0,0,1-84.28,196,219.82,219.82,0,0,1-189.59,108.49h-56.38s-167.61,1.7-152.45-105.71a99.73,99.73,0,0,1,8-27.47c31.94,60.6,150.57,59.44,150.57,59.44h58.22c80.49,0,154.94-41.29,195.73-108.53a833.24,833.24,0,0,0,87-196C2659.7,2990.43,2660.17,2988.73,2660.67,2987Z"/></g><path class="cls-5" d="M2642.39,3065.85c-59-32.89-115.79-123.88-146.81-180.47-9.81-17.84-36.44-13.89-40.8,6-1,4.8-2,9.49-2.81,13.88a22,22,0,0,1-35.46,13c-42.42-34.44-70.27-90.3-86.1-130.89-7.49-19.22-34.77-18.44-41.41,1.1a264.84,264.84,0,0,0-9.53,37c-2.44,13.43-16.48,21.7-29.23,16.73-62.78-24.63-105-98.36-123.07-136,.69-8.39,1.67-16.37,2.93-23.86.16-1.06.37-2.08.53-3.09l-342-220.91-29.92-476.09L2199.84,1745c61,234,115.95,333.76,266,536.14C2698,2594.24,2698.33,2870.11,2642.39,3065.85Z"/><g class="cls-6"><path class="cls-7" d="M2671.32,2900.16c-13.6-164.76-56.87-368.36-220.18-572.09-170.4-212.55-229.85-312.48-295.57-559.28l44.28-23.78c61,234,115.93,333.77,266,536.14C2638.44,2513.94,2682.91,2726.16,2671.32,2900.16Z"/></g><path class="cls-3" d="M2351.84,2471.46c-17,.12-33.37,4-49.22,9.53-7.92,2.79-15.67,6.18-23.33,9.7-7.56,3.8-15.11,7.6-22.42,11.89s-14.46,8.87-21.35,13.51l-2.5,1.75a10.84,10.84,0,0,0-1.65,1.32c-1.41,1.21-2.88,2.61-4.34,4-2.92,2.81-5.8,5.75-8.58,8.82a261.75,261.75,0,0,0-30.27,39.76,314.26,314.26,0,0,0-38.7,92.43l-2.5,12.38c-.8,4.13-1.86,8.24-2.29,12.4-1.14,8.3-2.44,16.57-2.82,25.06l-.87,12.67-.16,12.78c-.32,8.5.17,17.06.58,25.61a551.52,551.52,0,0,0,15.51,101.89c2.25,8.33,4.06,16.77,6.67,25l7.66,24.75c5.9,16.24,11.44,32.64,18.5,48.44,6.37,16.09,14.33,31.47,21.77,47.09L2224,3035l6.27,11.36,6.83,11c4.58,7.34,9,14.77,13.72,22l14.81,21.33c2.5,3.54,4.87,7.16,7.47,10.63l8,10.25,15.93,20.52,13.71,17.63-21.45,5.56c-4.83,1.25-10.62,3.11-15.89,5s-10.7,4.06-15.93,6.38a211.2,211.2,0,0,0-30,16.07c-18.86,12.17-35.18,27.78-44.67,46.47a83.15,83.15,0,0,0-8.95,29.68c-1.24,10.35-.42,20.37,2.84,29.31a56.92,56.92,0,0,0,16.5,23.67,104.5,104.5,0,0,0,27,16.6c20.28,8.72,43.17,13.49,66.16,15.89,5.76.58,11.55,1,17.29,1.27,2.85.13,5.8.21,8.41.21h45.53c6.09,0,12.23,0,17.73-.23,5.67,0,11.3-.64,16.94-1.23s11.19-1.73,16.79-2.57c5.49-1.42,11.1-2.32,16.49-4.11a203.15,203.15,0,0,0,61-29.22c9.42-6.33,17.88-13.92,26.16-21.64,7.86-8.15,15.58-16.5,22.06-25.81,3.48-4.48,6.39-9.35,9.44-14.12s5.94-10.24,8.92-15.32c5.81-10.41,11.54-20.87,16.88-31.53a823,823,0,0,0,53.72-132.36c28.1-91.05,39.8-187.16,33-282.18-6.46-95.09-30.95-188.61-68.57-276.42-18.6-44-41.12-86.42-65.72-127.5-12-20.74-25.58-40.54-38.67-60.62-14-19.58-27.57-39-42.18-58.67-57.46-78.31-114.15-158.6-157.95-247-44.22-87.9-78-181.55-88.38-279.17a4.87,4.87,0,0,1,9.26-2.56l.05.13c5.15,11.17,9.76,22.45,14.06,33.8s8.8,22.6,12.77,34l12.2,34c2,5.67,3.8,11.41,5.9,17s4.15,11.26,6.12,16.92c16.28,45.1,32.72,90,54,132.9,42.2,85.87,98.07,164.81,155.22,242.79,14.35,19.27,28.56,39.58,42.75,59.48,13.42,20.54,27.27,40.79,39.59,62,25.21,42.1,48.34,85.62,67.5,131,38.75,90.41,64.15,187.19,70.85,285.83,7.08,98.56-5.08,198.36-34.19,292.65a852.75,852.75,0,0,1-55.58,137c-5.53,11-11.45,21.84-17.46,32.61-3.15,5.37-5.94,10.64-9.39,16.11s-6.81,11-10.76,16.11c-7.41,10.6-16.18,20.16-25.18,29.42-9.41,8.84-19.1,17.46-29.82,24.69a231.93,231.93,0,0,1-69.6,33.33c-6.15,2-12.54,3.11-18.8,4.68-6.38,1-12.72,2.37-19.16,2.94s-12.85,1.35-19.32,1.41c-6.62.29-12.61.25-18.64.24h-45.43c-3.45,0-6.57-.09-9.78-.23-6.37-.28-12.68-.76-19-1.4-25.15-2.67-50.38-7.7-74.75-18.14a133.27,133.27,0,0,1-34.64-21.46,85.88,85.88,0,0,1-24.49-35.46c-5.07-13.88-6-28.7-4.38-42.38a112.09,112.09,0,0,1,11.93-39.57,131.9,131.9,0,0,1,24-32.78,178.21,178.21,0,0,1,30.71-24.77,239.26,239.26,0,0,1,34-18.27q8.81-3.89,17.84-7.14c6.15-2.17,11.9-4.09,18.82-5.88l-7.75,23.2-16.56-21.31-8.28-10.66c-2.7-3.6-5.17-7.36-7.76-11l-15.39-22.18c-4.89-7.54-9.52-15.27-14.28-22.91l-7.1-11.48-6.53-11.82c-4.3-7.91-8.72-15.76-12.92-23.72-7.76-16.26-16-32.28-22.68-49-7.34-16.46-13.14-33.55-19.27-50.5l-8-25.85c-2.71-8.6-4.62-17.44-7-26.15-8.54-35.07-14.74-70.82-16.94-107.14-.49-9.08-1.12-18.16-.95-27.31l0-13.71c.16-4.58.48-9.18.72-13.76.77-18.38,3.87-36.87,7.72-54.85,8.62-35.92,22.67-70.84,43.23-101.85a278.59,278.59,0,0,1,35.24-43.26c3.33-3.3,6.8-6.49,10.42-9.62,1.84-1.56,3.66-3.11,5.68-4.67a36.92,36.92,0,0,1,3.68-2.6l3-1.88a254.41,254.41,0,0,1,24.47-13,225.86,225.86,0,0,1,52.34-17.84c18.13-3.69,37.34-4.76,55.57-.42a4.84,4.84,0,0,1-1.09,9.54Z"/><path class="cls-3" d="M2446.85,3151.78c-14,2.09-27.46,3-40.89,3.92s-26.67,1.23-39.85,2.05-26.23,1.82-39.16,3.06-25.6,3.05-38.25,4.69l-.46.05a14.45,14.45,0,0,1-5.32-28.35,223.73,223.73,0,0,1,41.89-5.89,332.72,332.72,0,0,1,41.69,1c13.77,1.3,27.46,2.88,40.91,6.12S2434.17,3145.48,2446.85,3151.78Z"/><path class="cls-5" d="M2201.22,2671.59c-19.77,11-65.75-11.11-68.06-.5-17.18,79.72,23.49,203.52,8.62,210.09-13.21,5.88-25.59,3.28-36.34-.94l-.22-.11c-2.45-1.22-4.87-2.45-7.18-3.68-137.66-73.84-54.5-212.76-212.33-318.76-.29-.18-.58-.4-.87-.58-38.62-25.7-52.15-76-30.53-117.05,111.34-211.64,375.1-705.77,352.4-569.31-38.83,233.73-36.92,430.5-36.2,466.52.07,3.87.14,5.89.14,5.89C2162.53,2417.18,2256.77,2640.81,2201.22,2671.59Z"/><g class="cls-6"><path class="cls-7" d="M2201.22,2671.59c-19.77,11-65.75-11.11-68.06-.5-17.18,79.72,23.49,203.52,8.62,210.09-13.21,5.88-25.59,3.28-36.34-.94l-.22-.11c-2.45-1.22-4.87-2.45-7.18-3.68,47.57-5.63,1.3-84.82-5.38-158.3-7.18-78.9,30.71-94.6,70.74-70.34,62.91,38.08,10-71.25,2.49-141.63-9.17-86-.76-143.61,4.62-168.91.07,3.87.14,5.89.14,5.89C2162.53,2417.18,2256.77,2640.81,2201.22,2671.59Z"/></g><path class="cls-7" d="M2088.37,3307.77c-24.95,71.53-165.74,61.84-165.74,61.84s-132,12-156.5-59.68c-27.11-79.43,43-380.71-58.66-614.23,0-.82.36-59.32,98.6-163.87,24.75-.57,51.42,6.88,79.64,25.85,160.48,107.81,71.77,249.65,219.52,322.44-17.88-7.08-31.11-18.85-35.87-4.39-52.07,159.47-48,312.1-48,312.1S2118.74,3220.72,2088.37,3307.77Z"/><g class="cls-6"><path class="cls-3" d="M2091.72,3255.74c3.86,14.62,3.68,31.87-3.36,52.05-24.93,71.49-165.73,61.82-165.73,61.82s-132,12-156.49-59.69c-7.22-21.19-7.55-58.11-6-105.36,1.12,12.13,2.92,22.38,5.67,30.46,25.77,75.58,164.94,62.91,164.94,62.91S2046.61,3305.91,2091.72,3255.74Z"/></g><path class="cls-3" d="M1711.88,2693.78c18.6,28.69,31.42,60.7,40.92,93.38a637.72,637.72,0,0,1,19.58,100c7.49,67.46,7.74,135.08,6.27,202.14-.82,33.54-2.34,67-3.58,100.23-.61,16.61-1.17,33.19-1.23,49.58s.24,32.72,2.18,48c1.76,15.74,6.06,27.27,15.41,37.11,9.15,9.75,22.41,16.71,36.76,21.46s30,7.58,45.75,9c7.89.72,15.86,1.13,23.84,1.21s16.2-.09,23.53-.67l1.12-.09,1.18.07a336.83,336.83,0,0,0,40.74-.49,281.4,281.4,0,0,0,40.27-5.57c13.07-2.84,25.77-6.81,37-12.48a82.36,82.36,0,0,0,15.48-9.78,53.65,53.65,0,0,0,11.72-12.42,21.64,21.64,0,0,0,2.2-3.5c.61-1.22,1.42-2.36,1.91-3.64l1.58-3.8c.52-1.31.93-2.93,1.41-4.38a82.12,82.12,0,0,0,3.56-17.91,62.35,62.35,0,0,0-6.34-33.79c-5.22-10.43-13.57-19.68-23.49-27.47a125.38,125.38,0,0,0-16-10.54c-2.8-1.58-5.67-3.06-8.58-4.41s-6.1-2.71-8.37-3.52l-9.68-3.42-.14-9.87c-.3-22.16.62-43.33,1.95-64.89s3.4-42.84,6-64.16a1073.57,1073.57,0,0,1,23.24-126.82l8.37-31.22,4.73-15.46,2.37-7.74,1.18-3.86.6-1.93.31-1,.64-1.69.69-1.68c.28-.61.66-1.29,1-1.92s.7-1.25,1.14-1.91,1.07-1.41,1.65-2.09a22.51,22.51,0,0,1,4.41-3.93,21.24,21.24,0,0,1,5.77-2.61,23.66,23.66,0,0,1,10.05-.59,38.28,38.28,0,0,1,6.42,1.63c7,2.54,11.36,5.12,16,7.26,8.89,4.31,16.77,7,23.51,6.53a25,25,0,0,0,4.95-.73c.8-.29,1.62-.41,2.42-.77l1.2-.48s1.06-.48-.58.33a11.93,11.93,0,0,0-2.5,1.93c-2.33,2.73-1.9,3.27-2,3.16a11.1,11.1,0,0,0,.19-1.59,54.51,54.51,0,0,0-.06-6.2c-.57-9.38-2.16-19.88-3.69-30.21-3.17-20.82-6.59-42-9-63.51s-4-43.33-3.26-65.62a228.78,228.78,0,0,1,3.53-33.76l.85-4.26a20.5,20.5,0,0,1,1.23-3.8,16.79,16.79,0,0,1,3.15-4.78,18.34,18.34,0,0,1,7.42-4.8,26,26,0,0,1,8.76-1.34,49,49,0,0,1,5.57.35c6.49.8,11.68,2,16.87,3,10.08,2,20.11,3.82,27.33,3.14a15.8,15.8,0,0,0,4.06-.83,4,4,0,0,0,1.16-.57,7.22,7.22,0,0,0,1.37-1c1.77-1.35,3.38-3.93,4.76-7.28,2.75-6.84,3.72-16.43,3.74-26a236.07,236.07,0,0,0-2.08-29.87c-5.12-40.66-16.19-81.6-26.73-122.66a590.65,590.65,0,0,1-12.38-63.06,253.41,253.41,0,0,1-2.14-32.76c.19-11.06,1-22.47,4.78-33.52a4.93,4.93,0,0,1,9.52.79l.05.26c1.67,10.09,4.11,20,6.76,29.95l8.06,30c5.26,20.14,10.71,40.47,15.48,61.09s9.18,41.46,13.74,62.39c4.32,21,8.82,42.09,11.51,63.93a264.41,264.41,0,0,1,2.3,33.56c-.16,11.52-.78,23.52-5.77,36.54-2.6,6.39-6.47,13.32-13,18.7a34.8,34.8,0,0,1-5.08,3.65,30.87,30.87,0,0,1-6,2.89,43.75,43.75,0,0,1-11.43,2.52,85.76,85.76,0,0,1-19.1-.67c-5.84-.77-11.36-1.84-16.62-2.9s-10.39-2.13-14.44-2.61a23.41,23.41,0,0,0-2.35-.16c-.59-.08-.64.2.91-.32a10.68,10.68,0,0,0,4.07-2.76,12,12,0,0,0,2.08-3.13,9.46,9.46,0,0,0,.64-1.92l-.71,3.55a200.92,200.92,0,0,0-3.06,29.46c-.67,20.12.78,40.72,3.1,61.35s5.65,41.35,8.87,62.46c1.55,10.64,3.23,21.13,4,32.92a81.87,81.87,0,0,1,0,9.7,37.93,37.93,0,0,1-.89,6.28c-.73,2.44-1.14,5.61-5.32,10.29a17.09,17.09,0,0,1-4,3.15,15.17,15.17,0,0,1-2.39,1.14l-2.5,1c-1.65.67-3.43,1.1-5.16,1.63a53.71,53.71,0,0,1-10.74,1.61c-14.68.75-27.33-4.54-37.4-9.33-5-2.37-9.9-5-12.91-6-.72-.26-1.16-.33-1.27-.38.18.06.58.12,2.17-.22a8.52,8.52,0,0,0,3.65-2.28,2.12,2.12,0,0,0,.39-.55c.08-.11.12-.11.16-.18a.88.88,0,0,0,.06-.17l0,.17-8.94,29.07-8.1,30.24a1043.19,1043.19,0,0,0-22.6,123.35c-2.57,20.77-4.57,41.62-5.87,62.5s-2.18,42-1.9,62.26l-9.82-13.29c4.45,1.58,7.69,3,11.36,4.71s7,3.44,10.45,5.36a154.28,154.28,0,0,1,19.68,13c12.45,9.78,23.86,22.06,31.48,37.19a91.64,91.64,0,0,1,9.34,49.18,110.09,110.09,0,0,1-4.73,24c-.63,1.93-1.1,3.77-1.87,5.78l-2.51,6.09c-.84,2-2,3.88-3,5.82a42.3,42.3,0,0,1-3.47,5.55,82.21,82.21,0,0,1-17.46,18.6,111,111,0,0,1-20.59,13.06c-14.25,7.16-29.05,11.65-43.81,14.89a310.21,310.21,0,0,1-44.4,6.17,364,364,0,0,1-44.75.48l2.3,0c-9.31.73-17.68.87-26.49.79s-17.42-.53-26.14-1.33c-17.43-1.6-35-4.64-52.25-10.37s-34.64-14.34-48.55-29a80.71,80.71,0,0,1-16.41-25.42c-2.1-4.73-3.1-9.48-4.4-14.18-.8-4.54-1.9-9.21-2.3-13.61-2.23-17.84-2.44-34.93-2.42-51.93s.64-33.76,1.24-50.5c1.26-33.47,2.77-66.69,3.58-99.88,2-66.33,0-132.56-8.35-197.71-4-32.58-9.11-64.93-15.86-96.94-6.59-32.09-14.53-63.75-22.53-96.31v0a4.88,4.88,0,0,1,8.83-3.82Z"/><path class="cls-7" d="M1871.23,2499.86C1984.82,2426.7,2006,2306,2006,2306s47.34,22,68.34,14c42.84-16.36,33.21-171.34,33.21-171.34s41.39,24.54,57.6-13.32c13.41-31.35-1-188.63-1-188.63s29,18.81,48.75,8c70.92-38.82-50.09-416.39-50.09-416.39,41-11.46,72.29-23,77.87-43.32,8.81-32.24-26.53-79.85-39.5-95.88a2.08,2.08,0,0,1,2.18-3.32c32-14.48,75.41-34.33,73-71.36-3-44.67-89.19-114-172.41-230-53.71-74.79-101.75-156.21-164-202-122-89.62-271.72-29.56-271.72-29.56s-149.73-60.06-271.71,29.56c-62.26,45.74-110.3,127.16-164,202-83.22,115.91-169.44,185.29-172.41,230-2.45,37,41,56.88,73,71.36a2.08,2.08,0,0,1,2.18,3.32c-13,16-48.31,63.64-39.5,95.88,5.58,20.36,36.82,31.86,77.87,43.32,0,0-121,377.57-50.09,416.39,19.76,10.83,48.75-8,48.75-8s-14.36,157.28-1,188.63c16.21,37.86,57.6,13.32,57.6,13.32s-9.63,155,33.21,171.34c21,8,68.34-14,68.34-14s21.18,120.72,134.77,193.88l192.67,131.45Z"/><g class="cls-6"><path class="cls-3" d="M2213,1954.63c-19.77,10.82-48.76-8-48.76-8s14.37,157.29.94,188.62c-16.2,37.86-57.56,13.32-57.56,13.32s9.6,155-33.24,171.36c-21,8-68.33-14-68.33-14s-21.18,120.73-134.76,193.89L1657.9,2631.31l-192.66-131.44C1351.66,2426.71,1330.47,2306,1330.47,2306s-47.35,22-68.36,14c-42.8-16.39-33.2-171.36-33.2-171.36s-41.4,24.54-57.57-13.32c-13.43-31.33.94-188.62.94-188.62s-29,18.8-48.76,8c-47.35-26-9.13-203,21.55-317.72-4.73,101.56-3.32,237.3,35.66,258.67,17.68,9.67,43.63-7.15,43.63-7.15s-12.85,140.76-.83,168.81c14.51,33.89,51.54,11.91,51.54,11.91s-8.63,138.7,29.7,153.35c18.81,7.18,61.18-12.49,61.18-12.49s19,108,120.62,173.5L1659,2501.17l190.93-117.66C1951.58,2318,1970.53,2210,1970.53,2210s42.37,19.67,61.13,12.49c38.37-14.65,29.74-153.35,29.74-153.35s37,22,51.54-11.91c12-28-.83-168.81-.83-168.81s25.92,16.82,43.64,7.15c39-21.37,40.39-157.29,35.66-258.85C2222,1751.47,2260.34,1928.68,2213,1954.63Z"/></g><path class="cls-9" d="M2033,1713.71c-130.73,87.71-235.29-108.27-364-146.71-128.67,38.44-233.27,234.42-364,146.71-81.75-54.89-76.63-269.21-76.63-269.21S1213.93,1246,1666.52,1246h5.13c452.59,0,438,198.5,438,198.5S2114.82,1658.82,2033,1713.71Z"/><path class="cls-5" d="M2206.31,1399c13,16,48.33,63.64,39.5,95.88-5.58,20.36-36.81,31.88-77.85,43.32,0,0,9.61,30,21.82,74v0s-21.61,18.93-58-8.59c-38.19-28.9-24.31-186.26-71-224.53-40.39-33.1-75.69,12.62-106.75,41.61-234.83,219.48-283.28-30.41-283.28-30.41s-48.45,249.89-283.28,30.41c-31.06-29-66.36-74.71-106.74-41.61-46.66,38.27-32.78,195.63-71,224.53-36.39,27.52-58,8.59-58,8.59v0c12.21-44,21.82-74,21.82-74-41-11.44-72.26-23-77.84-43.32-8.84-32.24,26.5-79.84,39.49-95.88a2.1,2.1,0,0,0-2.2-3.34c-31.92-14.45-75.4-34.32-73-71.32,3-44.71,89.21-114.08,172.42-230,53.7-74.79,101.74-156.21,164-201.93,122-89.61,271.72-29.56,271.72-29.56s.89-.37,2.56-1c1.67.61,2.57,1,2.57,1s149.7-60,271.71,29.56c62.25,45.72,110.29,127.14,164,201.93,83.22,115.91,169.45,185.28,172.42,230,2.44,37-41,56.87-73,71.32A2.1,2.1,0,0,0,2206.31,1399Z"/><g class="cls-6"><path class="cls-7" d="M2277.6,1345.21c-17.94-44.86-94.42-111.16-168.55-214.42-53.71-74.78-101.75-156.2-164-201.93-122-89.58-271.7-29.56-271.7-29.56s-.9-.36-2.56-1c-1.66.61-2.56,1-2.56,1s-149.71-60-271.7,29.56c-62.26,45.73-110.3,127.15-164,201.93-74.14,103.26-150.61,169.56-168.55,214.42a41.8,41.8,0,0,1-3.86-20.82c3-44.72,89.18-114.09,172.41-230,53.7-74.79,101.74-156.21,164-201.94,122-89.58,271.7-29.56,271.7-29.56s.9-.36,2.56-1c1.66.61,2.56,1,2.56,1s149.71-60,271.7,29.56c62.26,45.73,110.3,127.15,164,201.94,83.22,115.92,169.45,185.29,172.41,230A42,42,0,0,1,2277.6,1345.21Z"/></g><path class="cls-10" d="M1232.51,1094.39c8.84-12.29,17.47-24.75,26.06-37.17-.65,2.73-1.31,5.41-2,8.06-9.77,36.56-25.16,67-51,83.62-5.09,3.3-10.67,3.91-16.73,2.49C1203.12,1133.76,1217.85,1114.79,1232.51,1094.39Z"/><path class="cls-10" d="M2147.61,1151.22c-6.27,1.63-12.09,1.1-17.31-2.32-25.85-16.65-41.24-47.06-51-83.62-.85-3.13-1.63-6.31-2.4-9.53,8.92,12.91,17.91,25.9,27.07,38.64C2118.58,1114.71,2133.28,1133.64,2147.61,1151.22Z"/><path class="cls-3" d="M1868.63,2495.81c15.42-12.64,30.64-25.2,43.61-40,6.9-7,12.82-14.81,19-22.36,3-3.86,5.68-7.94,8.57-11.86l4.24-5.94,3.87-6.2a325.37,325.37,0,0,0,26.9-51.58c1.88-4.46,3.5-9,5.31-13.5s3.21-9.11,4.72-13.68,2.84-9.19,4-13.81,2.29-9.45,3-13.39l3.24-17.92,17,7.35a222.49,222.49,0,0,0,27.53,9.9,118,118,0,0,0,13.68,3.1,49.47,49.47,0,0,0,12,.72c3.65-.36,4.08-.71,6.1-2.3a29,29,0,0,0,5.86-7.91c3.73-7.18,6.46-16.38,8.49-25.77,4-19,5.9-39.39,6.75-59.76s.73-41.22-.3-61.35L2090.7,2121l24.72,14.32c.3.18,1.46.78,2.31,1.18s1.89.87,2.85,1.26a54.09,54.09,0,0,0,5.82,2A29.59,29.59,0,0,0,2137,2141a15.06,15.06,0,0,0,7.42-2.46,19.24,19.24,0,0,0,5.62-7c.4-.8.91-1.58,1.26-2.38.2-.82.42-1.63.67-2.43a21,21,0,0,0,.76-2.58l.56-3.41c.92-4.33,1.2-9.56,1.72-14.47.7-10.15,1-20.58,1-31.09,0-21-.77-42.28-1.88-63.53s-2.58-42.59-4.37-63.69l-2.45-28.87,24.7,15.44c1.22.76,3.37,2,5.18,2.86s3.83,1.8,5.77,2.6a50.72,50.72,0,0,0,11.3,3.18,22.61,22.61,0,0,0,9.06-.24,11.72,11.72,0,0,0,5.88-3.61c3.79-3.91,6.87-11.92,8.59-20.38s2.55-18,2.84-27.41c.49-19-1-38.61-3.27-58.14s-5.43-39.16-9-58.7c-7.24-39.11-16.34-78-26.34-116.75s-21-77.35-32.91-115.29l-4.48-14.25,14.34-4.06c16.09-4.56,32.17-9.29,46.15-15.67,6.86-3.18,13.31-6.93,17.3-10.89a16.76,16.76,0,0,0,3.94-5.55c.11-.46.34-.76.47-1.34l.33-2c.1-.68.32-1.28.36-2l.05-2.22c.16-6-1.3-12.92-3.69-19.88a130.29,130.29,0,0,0-9.57-21,228.89,228.89,0,0,0-12.75-20.35c-2.32-3.31-4.7-6.59-7.17-9.8l-3.68-4.7-.45-.57-.58-.74a16.23,16.23,0,0,1-1.59-2.54,16.53,16.53,0,0,1,19.16-23.36l-9.8.77c17.72-8,35-16,48-26.78,6.46-5.32,11.53-11.27,14.21-17.36a28.53,28.53,0,0,0,1.14-19.25c-2-7.06-6.18-14.88-11.14-22.47s-10.61-15.19-16.54-22.67c-11.9-15-24.8-29.67-37.7-44.46-25.89-29.55-51.93-59.54-76.36-90.94-24.67-31.35-46.89-64.35-69.19-96.53s-44.75-64-70.05-92.63a335.13,335.13,0,0,0-40.58-39.26,232.89,232.89,0,0,0-47-29.29c-33.5-15.81-70.87-23.1-108.37-23.26a323.82,323.82,0,0,0-56.22,4.65c-9.3,1.57-18.55,3.51-27.67,5.84-4.56,1.14-9.08,2.44-13.55,3.79s-9.09,2.9-12.81,4.34l-5.38,2.06-5.37-2.06c-3.72-1.44-8.44-3-12.81-4.34s-9-2.65-13.55-3.79c-9.12-2.33-18.37-4.27-27.67-5.84a323.82,323.82,0,0,0-56.22-4.65c-37.5.16-74.87,7.45-108.37,23.26a232.89,232.89,0,0,0-47,29.29,335.13,335.13,0,0,0-40.58,39.26c-25.3,28.59-47.75,60.4-70,92.63s-44.52,65.18-69.19,96.53C1193,1170,1166.91,1200,1141,1229.58c-12.9,14.79-25.8,29.5-37.7,44.46-5.93,7.48-11.61,15-16.54,22.67s-9.1,15.41-11.14,22.47a28.53,28.53,0,0,0,1.14,19.25c2.68,6.09,7.75,12,14.21,17.36,13.08,10.73,30.31,18.75,48,26.78l-9.8-.77a16.64,16.64,0,0,1,12.25,1.39,16.51,16.51,0,0,1,6.91,22,16.23,16.23,0,0,1-1.59,2.54l-.58.74-.45.57-3.68,4.7c-2.47,3.21-4.85,6.49-7.17,9.8a228.89,228.89,0,0,0-12.75,20.35,130.29,130.29,0,0,0-9.57,21c-2.39,7-3.85,13.93-3.69,19.88l0,2.22c0,.72.26,1.32.36,2l.33,2c.13.58.36.88.47,1.34a16.76,16.76,0,0,0,3.94,5.55c4,4,10.43,7.71,17.3,10.89,14,6.38,30.06,11.11,46.15,15.67l14.34,4.06-4.48,14.25c-11.91,37.94-22.88,76.62-32.91,115.29s-19.1,77.64-26.34,116.75c-3.63,19.54-6.74,39.14-9,58.7s-3.76,39.13-3.27,58.14c.29,9.46,1,18.86,2.84,27.41s4.8,16.47,8.59,20.38a11.72,11.72,0,0,0,5.88,3.61,22.61,22.61,0,0,0,9.06.24,50.72,50.72,0,0,0,11.3-3.18c1.94-.8,3.87-1.64,5.77-2.6s4-2.1,5.19-2.85l24.74-15.25-2.51,28.67c-1.85,21.09-3.35,42.46-4.54,63.68s-2,42.5-2,63.54c0,10.51.23,21,.87,31.13.5,4.92.75,10.16,1.65,14.54l.55,3.42a20.53,20.53,0,0,0,.75,2.64l.67,2.5c.35.83.86,1.62,1.26,2.44a20.14,20.14,0,0,0,5.78,7.31,15.88,15.88,0,0,0,7.79,2.68,30.13,30.13,0,0,0,10.93-1.19,51.78,51.78,0,0,0,5.94-2c1-.39,2-.84,2.91-1.26s2-1,2.4-1.22l23.15-13.3-1.38,26.61c-1,20.18-1.21,41.07-.27,61.45s2.78,40.84,7.13,59.84c2.21,9.39,5.11,18.57,9,25.68a27.63,27.63,0,0,0,6,7.72c2.06,1.52,2.41,1.7,6,2a50.31,50.31,0,0,0,11.85-.87,117,117,0,0,0,13.57-3.23A218.81,218.81,0,0,0,1324,2292l18-8.07,3.73,19.42c.75,3.86,1.85,8.78,3.11,13.25s2.67,9.14,4.08,13.71c1.57,4.52,3.1,9.08,4.75,13.59s3.42,9,5.36,13.42,3.85,8.84,6,13.18l6.39,13,7.06,12.65c2.27,4.29,5.12,8.19,7.57,12.38a325.49,325.49,0,0,0,35.14,46.41c12.79,14.88,27.64,27.75,42.73,40.91l.23.2a4.82,4.82,0,0,1-5.44,7.89c-18.12-9.64-35.93-20.75-51.5-34.65-8.21-6.54-15.25-14.25-22.7-21.65-3.64-3.78-6.84-7.93-10.28-11.89l-5.06-6-4.69-6.32a299.9,299.9,0,0,1-32.28-54.08c-4.42-9.56-8.5-19.29-12-29.28-1.67-5-3.39-10-4.83-15.2s-2.79-10.11-4-16.14L1337,2320a243.08,243.08,0,0,1-31.7,11.71,148.57,148.57,0,0,1-17,4,79.79,79.79,0,0,1-19.48,1.14c-1.88-.22-3.69-.37-5.63-.73q-3.12-.78-6.17-1.76a65.21,65.21,0,0,1-5.94-2.91,45.52,45.52,0,0,1-5.1-3.65,57.44,57.44,0,0,1-13.27-16.87c-6-11.46-9-22.64-11.43-33.67-4.67-22-6.34-43.6-7.2-65.1-.7-21.57-.64-42.69.5-64.44l21.77,13.32c-2,1.13-3.2,1.71-4.75,2.47s-3,1.34-4.47,1.94a80.5,80.5,0,0,1-9.3,3.11,58.48,58.48,0,0,1-20.91,2.06,44.83,44.83,0,0,1-22.12-8,48.78,48.78,0,0,1-14.46-17.28c-.79-1.57-1.66-3.1-2.35-4.74l-1.65-5.2a51.42,51.42,0,0,1-1.39-5.11l-.75-4.51c-1.19-6.17-1.43-11.67-2-17.42-.72-11.23-1-22.25-1-33.19,0-21.87.92-43.5,2.1-65.1s2.72-43.06,4.62-64.72l22.23,13.43a87.61,87.61,0,0,1-8,4.46c-2.6,1.31-5.27,2.48-8,3.6a80.34,80.34,0,0,1-17.69,4.91,51.27,51.27,0,0,1-20.87-.92,41,41,0,0,1-19.51-11.85,55.82,55.82,0,0,1-10.6-17.09,95.33,95.33,0,0,1-5.09-17c-2.37-11.15-3.1-21.91-3.45-32.55-.52-21.23,1.13-41.86,3.46-62.29s5.63-40.58,9.33-60.6c7.42-40,16.66-79.53,26.78-118.74s21.18-78,33.38-116.86l9.86,18.31c-16.65-4.76-33.43-9.54-50.49-17.27-8.49-4-17.25-8.6-25.49-16.57a45.57,45.57,0,0,1-10.44-15.33c-.56-1.55-1.21-3.21-1.59-4.7l-.84-4.3c-.23-1.43-.57-2.9-.67-4.3l-.17-4.17c-.24-11.1,2.18-21,5.26-30.12a159.3,159.3,0,0,1,11.58-25.48,258.07,258.07,0,0,1,14.36-22.94q3.85-5.49,7.92-10.82l4.19-5.35.54-.68.14-.17.06-.08-.29.36a12.19,12.19,0,0,0-1.16,1.86,12.6,12.6,0,0,0-.69,9.66,12.28,12.28,0,0,0,5.8,6.84,12.42,12.42,0,0,0,9.16,1l-9.81-.76c-17.94-8.25-37-16.62-54.5-30.83-8.63-7.15-17.07-16.21-22.34-28.2s-5.92-26.2-2.42-38.45c3.49-11.87,9-21.45,14.67-30.33s11.91-17,18.19-25c12.58-15.81,25.64-30.66,38.57-45.51,25.94-29.59,51.47-59,75.34-89.7,24-30.47,45.73-62.76,68.22-95.2s45.38-65,72.21-95.38a363.46,363.46,0,0,1,44.12-42.62A262.17,262.17,0,0,1,1432,854.77c37.72-17.79,79.42-25.8,120.44-26a352.53,352.53,0,0,1,61.18,5.05q15.13,2.55,30,6.34c5,1.25,9.91,2.66,14.84,4.15s9.66,3,15.11,5.15h-10.75c5.45-2.1,10.08-3.6,15.11-5.15s9.87-2.9,14.84-4.15q14.89-3.81,30-6.34A352.53,352.53,0,0,1,1784,828.8c41,.17,82.72,8.18,120.44,26a261.82,261.82,0,0,1,52.84,32.91,362.82,362.82,0,0,1,44.13,42.62c26.83,30.34,49.78,63,72.21,95.38s44.23,64.73,68.22,95.2c23.87,30.68,49.4,60.11,75.33,89.7,12.94,14.85,26,29.7,38.58,45.51,6.28,7.93,12.45,16.1,18.19,25s11.18,18.46,14.67,30.33c3.5,12.25,2.92,26.5-2.42,38.45s-13.71,21.05-22.34,28.2c-17.51,14.21-36.56,22.58-54.5,30.83l-9.81.76a12.42,12.42,0,0,0,9.16-1,12.28,12.28,0,0,0,5.8-6.84,12.6,12.6,0,0,0-.69-9.66,12.19,12.19,0,0,0-1.16-1.86l-.29-.36.06.08.14.17.54.68,4.19,5.35q4.08,5.32,7.92,10.82a258.07,258.07,0,0,1,14.36,22.94,159.3,159.3,0,0,1,11.58,25.48c3.08,9.12,5.5,19,5.26,30.12l-.17,4.17c-.1,1.4-.44,2.87-.67,4.3l-.84,4.3c-.38,1.49-1,3.15-1.59,4.7a45.57,45.57,0,0,1-10.44,15.33c-8.24,8-17,12.53-25.49,16.57-17.06,7.73-33.84,12.51-50.49,17.27l9.86-18.31c12.2,38.84,23.18,77.62,33.38,116.86s19.36,78.7,26.78,118.74c3.7,20,6.92,40.19,9.33,60.6s4,41.06,3.46,62.29c-.35,10.64-1.08,21.4-3.45,32.55a95.33,95.33,0,0,1-5.09,17,55.82,55.82,0,0,1-10.6,17.09,41,41,0,0,1-19.51,11.85,51.27,51.27,0,0,1-20.87.92,80.18,80.18,0,0,1-17.69-4.91c-2.73-1.12-5.4-2.29-8-3.6s-5-2.56-8-4.45l22.25-13.44c2,21.65,3.52,43.09,4.79,64.71s2.16,43.23,2.27,65.11l-.11,16.49c-.16,5.55-.37,11.11-.68,16.74-.55,5.76-.76,11.27-1.93,17.48l-.74,4.54a50.75,50.75,0,0,1-1.38,5.16l-1.65,5.27c-.69,1.66-1.56,3.21-2.36,4.8a49.17,49.17,0,0,1-14.61,17.58,45.67,45.67,0,0,1-22.49,8.23,59.71,59.71,0,0,1-21.22-2,83.79,83.79,0,0,1-9.42-3.11c-1.54-.6-3-1.27-4.53-2s-2.81-1.35-4.83-2.51l23.25-14.22c1.16,21.8,1.28,42.93.47,64.54-1,21.52-2.53,43.16-7.58,65.19-2.63,11-5.83,22.18-11.95,33.57a57.67,57.67,0,0,1-13.45,16.69,45.89,45.89,0,0,1-5.1,3.57c-1.94,1-3.92,2-5.92,2.83-2,.62-4.08,1.18-6.14,1.68-1.93.34-3.72.48-5.59.68a77.88,77.88,0,0,1-19.34-1.29,144.59,144.59,0,0,1-16.94-4.1,242.65,242.65,0,0,1-31.47-11.95l20.25-10.58c-1.27,5.94-2.57,10.82-4.14,16s-3.23,10.1-4.94,15.1c-3.61,9.9-7.53,19.65-12.08,29.11a307.91,307.91,0,0,1-32.35,53.71l-4.64,6.3-5,6c-3.38,4-6.6,8.08-10.18,11.87-7.34,7.43-14.34,15.11-22.38,21.75-15.39,14-32.83,25.4-50.62,35.56a4.81,4.81,0,0,1-5.44-7.9Z"/><g class="cls-6"><path class="cls-3" d="M1933.51,1428c-112.57,120.32-148.39,359.09-266.14,359.09s-152.7-232.79-265.28-353.12"/></g><path class="cls-3" d="M1933.51,1428c-112.57,120.32-148.39,260.11-266.14,260.11s-152.7-139.79-265.28-260.11"/><path class="cls-3" d="M1667.37,1702.57c-85.58,0-130.93-66.68-183.45-143.87-25.81-38-55.07-81-92.37-120.82a14.44,14.44,0,0,1,21.09-19.73c38.82,41.5,68.75,85.49,95.15,124.31,51.83,76.19,89.28,131.23,159.58,131.23,70.5,0,110.25-58.15,160.58-131.77,26.43-38.65,56.37-82.46,95-123.77a14.44,14.44,0,0,1,21.08,19.73c-37.14,39.7-66.42,82.54-92.26,120.34C1798.83,1635.67,1753.11,1702.57,1667.37,1702.57Z"/><path class="cls-3" d="M1447.59,3226.39c-17.09,9.23-33.64,16.81-48.27,26.1s-25.57,22.17-26.91,35.78a37.56,37.56,0,0,0-.17,5.2l.11,2.64.42,3.13c.54,4.17.87,8.4,2,12.29a67.89,67.89,0,0,0,8.51,21.6,47.85,47.85,0,0,0,14.92,15.36,49.65,49.65,0,0,0,9.59,4.86,51.44,51.44,0,0,0,5.11,1.65c.86.24,1.7.46,2.51.6.4.08.84.19,1.16.23a3.39,3.39,0,0,1,.68.12,14.44,14.44,0,0,1-1.61,28.83c-1.33-.08-2-.17-2.83-.26s-1.56-.22-2.32-.34c-1.52-.22-3-.52-4.39-.85a62.28,62.28,0,0,1-8.39-2.46,74,74,0,0,1-15.57-7.77,73,73,0,0,1-23.57-25.22,88.18,88.18,0,0,1-10.73-31.11c-1.11-5.28-1.27-10.48-1.61-15.68l-.2-3.9.16-4.42a58.88,58.88,0,0,1,7.24-25.51,66.71,66.71,0,0,1,10.19-13.73,96.91,96.91,0,0,1,25.76-18.47,108.3,108.3,0,0,1,28.33-9.76c9.7-1.82,19.54-2.66,29.51-1.29a1.26,1.26,0,0,1,.43,2.35Z"/><path class="cls-3" d="M1340.31,3226.39c-17.2,8.68-33.77,15.83-48.33,24.82s-25.18,21.65-26.68,35.33a41.83,41.83,0,0,0,.17,11c.24,2,.26,4,.63,5.91l1.26,5.67a65.24,65.24,0,0,0,9.42,20.5,73.3,73.3,0,0,0,16.27,16.09,89.16,89.16,0,0,0,10,6.25c1.77.87,3.51,1.82,5.29,2.59s3.8,1.59,4.81,2l1.31.5a14.4,14.4,0,0,1-9.23,27.27,80,80,0,0,1-8.29-2.94c-2.55-1-5-2.17-7.39-3.38a103.45,103.45,0,0,1-13.77-8.5,93.63,93.63,0,0,1-22.8-23.68,86,86,0,0,1-12.41-30.71l-1.27-8.09c-.33-2.7-.28-5.38-.41-8.06a65.55,65.55,0,0,1,1.33-16.93,62,62,0,0,1,16.24-30.09,92.32,92.32,0,0,1,25.82-18.22,102.55,102.55,0,0,1,28.37-9.19c9.7-1.58,19.5-2.14,29.35-.45a1.25,1.25,0,0,1,.36,2.35Z"/><path class="cls-3" d="M2397,3219c-15.94,10-30.6,19.48-41.29,31.22a50.19,50.19,0,0,0-3.69,4.54l-3.16,4.77-2.37,5.07c-.93,1.61-1.11,3.52-1.73,5.22l-.81,2.61-.34,2.74c-.19,1.83-.64,3.57-.69,5.42.22,3.8-.19,7.29.7,11.43l.87,6a48.35,48.35,0,0,0,1.45,5.72c.55,1.87.87,3.83,1.56,5.62l2.18,5.29a61.67,61.67,0,0,0,12.46,18.39,71.72,71.72,0,0,0,18.12,13.29,86.09,86.09,0,0,0,10.61,4.61c1.83.67,3.65,1.25,5.48,1.79s3.92,1,4.92,1.23l1.18.24a14.41,14.41,0,0,1-5,28.38c-3.52-.51-5.78-1-8.52-1.68a79.17,79.17,0,0,1-7.65-2.26,102.84,102.84,0,0,1-14.63-6.26,92.64,92.64,0,0,1-25.53-19.69c-1.77-2.09-3.69-4-5.27-6.28l-4.6-6.79a81.35,81.35,0,0,1-3.8-7.22,47.16,47.16,0,0,1-3.2-7.43l-2.57-7.62c-.79-2.54-1.15-5.16-1.72-7.73a67.4,67.4,0,0,1-1.26-7.74l-.5-7.72c-2.12-20.92,7.22-44.88,23.38-58.15a75.14,75.14,0,0,1,26-15.32c9.37-3.13,19-4.91,28.89-4a1.27,1.27,0,0,1,1.14,1.37,1.25,1.25,0,0,1-.58.94Z"/><path class="cls-3" d="M2302.35,3203c-16,10.95-31.27,20.63-44.09,32a75.66,75.66,0,0,0-15.22,19.07,52.64,52.64,0,0,0-5.7,21.66c-.29,16.72,3,32.81,11.3,46.38a86.13,86.13,0,0,0,14.88,18.68l4.52,4c1.61,1.23,3.12,2.58,4.77,3.73s3.26,2.37,4.93,3.43,3.57,2.19,4.52,2.72l1.13.63a14.41,14.41,0,0,1-13.19,25.6,84.18,84.18,0,0,1-7.79-4.18c-2.35-1.39-4.61-2.89-6.79-4.46a119.49,119.49,0,0,1-12.41-10.27,104.46,104.46,0,0,1-19.63-25.77c-2.78-4.68-4.7-9.85-6.73-14.88-1.51-5.24-3.27-10.41-4-15.78-2.17-10.65-1.9-21.4-1-31.81,1.48-11.16,5.12-22.45,11.4-31.63a96.77,96.77,0,0,1,22.32-22.75,98.09,98.09,0,0,1,26.83-13.9c9.46-3.09,19.17-5.17,29.26-4.8a1.24,1.24,0,0,1,1.21,1.3,1.2,1.2,0,0,1-.54,1Z"/><path class="cls-3" d="M1878.29,3224.05c8.76-.33,17.19,2.25,24.92,6.4a58.34,58.34,0,0,1,19.88,17.75c10.74,14.78,15.63,33.86,14.91,51.39-.23,4.3-.18,8.59-.69,12.94-.73,4.36-1,8.72-2.19,13.1a88.53,88.53,0,0,1-10,25.94A69.28,69.28,0,0,1,1905,3373.2a62.31,62.31,0,0,1-13.47,7,58,58,0,0,1-7.4,2.19c-1.25.31-2.56.56-3.92.76-.66.11-1.32.22-2.09.29s-1.37.16-2.67.22a14.44,14.44,0,1,1-1.16-28.85c-.33,0,0-.05.27-.09a8.22,8.22,0,0,0,.82-.16,14.92,14.92,0,0,0,1.86-.47c1.28-.3,2.58-.87,3.89-1.29a38.25,38.25,0,0,0,7.4-4,45.66,45.66,0,0,0,12.13-12.43,56.45,56.45,0,0,0,4.4-8.35c1.52-2.82,2.39-6.12,3.49-9.29s1.56-6.71,2.42-10.07,1-7,1.58-10.58c1.72-13.84,0-27.21-6.33-39.08-6.44-11.73-16.24-22.08-28.6-32.71l-.11-.09a1.26,1.26,0,0,1,.78-2.21Z"/><path class="cls-3" d="M1985.48,3224c17.45-1.19,34.67,8.79,45.14,23.78,5.36,7.48,8.86,16.05,11.45,24.75.92,4.37,2.23,8.84,2.44,13.25l.63,6.67c.18,2.22,0,4.47,0,6.71.07,17.84-5.56,37.1-17.47,52a88.12,88.12,0,0,1-20.57,19,93.61,93.61,0,0,1-12.08,6.79c-2.07,1-4.24,1.88-6.43,2.7a73.85,73.85,0,0,1-7.32,2.33,14.4,14.4,0,0,1-8.57-27.47l1.44-.51c.68-.24,2.53-.9,3.87-1.48s2.94-1.3,4.41-2a79.79,79.79,0,0,0,8.49-4.84,69.48,69.48,0,0,0,14.37-12.58c4.25-4.7,7.18-10.31,9.81-16.11,1-3.06,2.37-6,2.87-9.3l1.16-4.83.56-5.06c1-6.76.48-13.73-.17-20.41-1.12-6.56-2.77-13.12-6-19-6.37-11.63-15.81-22.08-28.67-32.07l-.13-.1a1.27,1.27,0,0,1-.22-1.76A1.29,1.29,0,0,1,1985.48,3224Z"/><path class="cls-5" d="M1537.93,843.61a287.26,287.26,0,0,0-30.65,3.25,255.9,255.9,0,0,0-64.74,18.95c-33-37.61-87.78-102.94-117.88-95a33.46,33.46,0,0,0-9.42,4.15c-21.44,13.68-29.85,52.19-35,99.47-6.28,56.56-7.9,126.11-21.61,182.81-.65,2.7-1.3,5.41-2.06,8-9.75,36.56-25.16,67-51,83.62-5.09,3.29-10.68,3.9-16.75,2.49a34.58,34.58,0,0,1-4.51-1.41c-17.21-6.53-37.35-27.46-57.56-50.34-15-17.08-30.18-35.23-44.11-49.31-52-52.69-115.42-71.85-130.18-103.83a33.58,33.58,0,0,1-2.49-7.4c-1.37-6.39-.83-13.36,2-21.22,55.79-156.57,416.86-224.42,416.86-224.42s16.67-44.83,35.91-43.82c30.75,1.63,35.41,39.31,42.73,84.93.54,3.39,1.12,6.82,1.7,10.28a4,4,0,0,0,7.47,1.37c1.55-2.6,3.28-5.37,5.16-8.19,9.42-14.15,22.23-29.31,32.09-28.37C1509.59,711.12,1528.18,787.49,1537.93,843.61Z"/><g class="cls-6"><path class="cls-7" d="M1447.37,734.58c-17.75-37.26-27.82-50-35-50-25.58-.27-24,37.47-24,37.47-125.24,18.19-293.35,91.45-372.83,147.72a246.6,246.6,0,0,0-65.61,69.37c-1.37-6.39-.83-13.36,2-21.22,55.79-156.57,416.86-224.42,416.86-224.42s16.67-44.83,35.91-43.82C1435.39,651.28,1440.05,689,1447.37,734.58Z"/></g><g class="cls-6"><path class="cls-3" d="M1315.24,775c-21.44,13.68-29.85,52.19-35,99.47-6.28,56.56-7.9,126.11-21.61,182.81-.65,2.7-1.3,5.41-2.06,8-9.75,36.56-25.16,67-51,83.62-5.09,3.29-10.68,3.9-16.75,2.49a34.58,34.58,0,0,1-4.51-1.41c-17.21-6.53-37.35-27.46-57.56-50.34-15-17.08-30.18-35.23-44.11-49.31-52-52.69-115.42-71.85-130.18-103.83l17-37.68s-2.67,27.9,32.08,46.16c48.84,25.62,121.45,91.64,124.34,61.86s-15.92-152.78,15.77-189.73c10-11.66,4.69,189.66,44.43,201.64C1223.67,1040.17,1263.3,791.64,1315.24,775Z"/></g><path class="cls-3" d="M1194.62,1166.53a39.86,39.86,0,0,1-9.14-1.09,47.18,47.18,0,0,1-6.17-1.88c-19.34-7.36-39.32-27-63.44-54.36-4.22-4.79-8.46-9.67-12.67-14.52-10.88-12.53-21.15-24.37-30.86-34.19-24-24.31-50.59-41.2-74.07-56.11-38.81-24.61-75.47-47.88-60-91.32,53.89-151.28,365-221,420-232.25,7.18-16.61,23-45.61,45.71-45.61.48,0,1,0,1.43,0,38.2,2,46.86,39.59,53.75,81.72,12.6-15.45,24.62-22.74,36-21.67,8.79.82,32.14,3,57,145.85l2.79,16-16.26.86c-32.47,1.71-62.85,8.76-90.27,21l-9.71,4.32-13-14.86c-21.24-24.31-77.76-88.92-97.36-83.67-21.62,5.73-29.41,51.77-33.78,91.24-1.88,16.88-3.31,34.77-4.84,53.71-3.57,44.37-7.26,90.25-17.1,130.9-.69,2.86-1.38,5.71-2.15,8.52-12,44.76-30.66,74.86-57.11,91.9A34,34,0,0,1,1194.62,1166.53Zm209.26-502.46c-4.69,1.28-15.61,18.35-21.61,34.42l-2.86,7.63-8,1.52c-3.53.67-353.58,68.14-405.93,215.1-7.11,20,6.78,31,48.26,57.26,23.56,15,52.88,33.56,79.15,60.21,10.35,10.46,21.42,23.21,32.11,35.54,4.16,4.79,8.34,9.61,12.52,14.34,17.53,19.86,37.41,40.91,51.88,46.42a21.92,21.92,0,0,0,2.48.78c3.41.8,4.78.16,5.79-.5,20.18-13,34.86-37.6,44.92-75.23.72-2.61,1.33-5.15,1.94-7.71,9.31-38.46,12.91-83.19,16.39-126.44,1.54-19.17,3-37.27,4.92-54.58,5.59-50.53,14.93-105.32,55.1-116,34-9,77,36.06,125.62,91.6a280.63,280.63,0,0,1,74.3-18c-10.18-53.38-22.37-92.87-29.9-104.84-4.42,3.38-12.49,12-22,28a18.48,18.48,0,0,1-34.12-6.25c-.94-5.53-1.79-10.92-2.63-16.19C1425,686.19,1419.91,664.91,1403.88,664.07Zm40.28,74.73a.31.31,0,0,1-.05.1A.31.31,0,0,0,1444.16,738.8Z"/><path class="cls-5" d="M1800.39,843.61a286.81,286.81,0,0,1,30.64,3.25,255.85,255.85,0,0,1,64.75,18.95c33-37.61,87.77-102.94,117.87-95a33.21,33.21,0,0,1,9.42,4.15c21.44,13.68,29.85,52.19,35,99.47,6.28,56.56,7.9,126.11,21.62,182.81.65,2.7,1.3,5.41,2.06,8,9.74,36.56,25.15,67,51,83.62,5.09,3.29,10.69,3.9,16.75,2.49a34.58,34.58,0,0,0,4.51-1.41c17.22-6.53,37.36-27.46,57.57-50.34,15.05-17.08,30.17-35.23,44.1-49.31,52-52.69,115.42-71.85,130.19-103.83a34.66,34.66,0,0,0,2.49-7.4c1.37-6.39.83-13.36-2-21.22-55.8-156.57-416.86-224.42-416.86-224.42s-16.68-44.83-35.92-43.82c-30.75,1.63-35.4,39.31-42.73,84.93-.54,3.39-1.12,6.82-1.7,10.28a4,4,0,0,1-7.47,1.37c-1.55-2.6-3.28-5.37-5.16-8.19-9.42-14.15-22.23-29.31-32.08-28.37C1828.72,711.12,1810.13,787.49,1800.39,843.61Z"/><g class="cls-6"><path class="cls-7" d="M1890.94,734.58c17.75-37.26,27.82-50,35-50,25.58-.27,24,37.47,24,37.47,125.24,18.19,293.36,91.45,372.83,147.72a246.68,246.68,0,0,1,65.62,69.37c1.37-6.39.83-13.36-2-21.22-55.8-156.57-416.86-224.42-416.86-224.42s-16.68-44.83-35.92-43.82C1902.92,651.28,1898.27,689,1890.94,734.58Z"/></g><g class="cls-6"><path class="cls-3" d="M2023.07,775c21.44,13.68,29.85,52.19,35,99.47,6.28,56.56,7.9,126.11,21.62,182.81.65,2.7,1.3,5.41,2.06,8,9.74,36.56,25.15,67,51,83.62,5.09,3.29,10.69,3.9,16.75,2.49a34.58,34.58,0,0,0,4.51-1.41c17.22-6.53,37.36-27.46,57.57-50.34,15.05-17.08,30.17-35.23,44.1-49.31,52-52.69,115.42-71.85,130.19-103.83l-17-37.68s2.67,27.9-32.09,46.16c-48.83,25.62-121.45,91.64-124.34,61.86s15.92-152.78-15.77-189.73c-10-11.66-4.69,189.66-44.43,201.64C2114.64,1040.17,2075,791.64,2023.07,775Z"/></g><path class="cls-3" d="M2143.72,1166.55A34.25,34.25,0,0,1,2125,1161c-26.43-17-45.12-47.13-57.11-92-.75-2.69-1.45-5.55-2.14-8.44-9.83-40.59-13.52-86.48-17.09-130.84-1.52-19-3-36.84-4.83-53.72-4.38-39.47-12.17-85.51-33.81-91.25-19.7-5.27-76.1,59.37-97.33,83.67l-13,14.87L1889.9,879c-27.43-12.2-57.81-19.25-90.28-21l-16.26-.86,2.79-16c24.89-142.87,48.23-145,57-145.85,11.37-1.08,23.38,6.22,36,21.67,6.9-42.13,15.55-79.69,53.76-81.72,23.44-1.27,39.8,28.63,47.13,45.58,55,11.21,366.11,81,420,232.25,15.48,43.44-21.17,66.71-60,91.32-23.49,14.91-50.11,31.8-74.06,56.1-9.73,9.83-20,21.67-30.88,34.2-4.21,4.85-8.44,9.73-12.67,14.52-24.11,27.31-44.1,47-63.26,54.3a51.75,51.75,0,0,1-6.55,2A39.33,39.33,0,0,1,2143.72,1166.55ZM2008.37,755.7a34.72,34.72,0,0,1,9,1.15c40.19,10.66,49.53,65.45,55.13,116,1.92,17.31,3.37,35.42,4.92,54.58,3.47,43.25,7.07,88,16.38,126.41.62,2.61,1.23,5.13,1.92,7.61,10.09,37.76,24.77,62.36,44.91,75.34,1,.68,2.41,1.31,5.61.56a23.11,23.11,0,0,0,2.87-.88c14.3-5.45,34.17-26.5,51.7-46.36,4.18-4.73,8.36-9.55,12.52-14.34,10.7-12.33,21.76-25.08,32.13-35.56,26.25-26.63,55.58-45.23,79.14-60.19,41.48-26.31,55.36-37.3,48.26-57.26-52.39-147.06-402.4-214.43-405.93-215.1l-8-1.51-2.85-7.65c-6-16.06-16.92-33.13-22-34.44-15.6.87-20.73,22.15-27.89,67.1-.84,5.27-1.7,10.66-2.62,16.14a18.48,18.48,0,0,1-34.17,6.25c-9.49-15.94-17.55-24.52-22-27.9-7.53,12-19.72,51.45-29.9,104.84a280.7,280.7,0,0,1,74.31,18C1936.15,797.69,1975.87,755.7,2008.37,755.7Zm-114.26-17,.06.09Z"/><path class="cls-7" d="M1444.5,1464.47c3.3,3.38,6.64,6.84,10,10.34h-4A62.71,62.71,0,0,1,1444.5,1464.47Z"/><path class="cls-7" d="M1880.25,1474.81c2.11-2.2,4.19-4.36,6.31-6.52a55.38,55.38,0,0,1-4.07,6.52Z"/><path class="cls-7" d="M1898.12,1420.82a97.71,97.71,0,0,1-11.52,47.39Z"/><path class="cls-11" d="M1803.35,1468.22a919.08,919.08,0,0,1-17.44,128.3c-17.32,81.21-51,171-115.13,171-63.66,0-97.27-88.32-114.7-169a912.83,912.83,0,0,1-17.86-130.29Z"/><g class="cls-6"><path class="cls-7" d="M1803.35,1468.22a919.08,919.08,0,0,1-17.44,128.3c-17.32,81.21-51,171-115.13,171-63.66,0-97.27-88.32-114.7-169a912.83,912.83,0,0,1-17.86-130.29h4.07c2.71,23.38,7,53.52,13.79,84.78,17.43,80.66,51,169,114.7,169,64.17,0,97.81-89.76,115.13-171,6.5-30.57,10.72-59.88,13.36-82.79Z"/></g><path class="cls-3" d="M1660.86,1674.56l-8.13-188.84a14.45,14.45,0,1,1,28.88-1.24c0,.41,0,.84,0,1.24l-8.13,188.84a6.32,6.32,0,0,1-12.62,0Z"/><path class="cls-3" d="M1670.79,1781.92c-56.1,0-97.9-54-124.24-160.61C1527.94,1546,1524,1472.07,1523.81,1469l28.84-1.49c4.1,79.43,33.33,285.57,118.14,285.57s114-206.14,118.14-285.57l28.84,1.49c-.16,3.11-4.13,77.06-22.74,152.35C1768.69,1727.88,1726.88,1781.92,1670.79,1781.92Z"/><g class="cls-6"><path class="cls-3" d="M1803.35,1468.22a919.08,919.08,0,0,1-17.44,128.3,101.54,101.54,0,0,1-30.46,4.7c-57.13,0-79.69-40.14-86-54.79a2.13,2.13,0,0,0-4,0c-6.35,14.65-28.95,54.79-86.08,54.79a99.85,99.85,0,0,1-23.21-2.71,912.83,912.83,0,0,1-17.86-130.29Z"/></g><path class="cls-7" d="M1898.12,1420.74v.08l-11.52,47.39a.14.14,0,0,1,0,.08c-2.12,2.16-4.2,4.32-6.31,6.52-34.85,36.15-72.76,75.89-124.79,75.89-57.16,0-79.71-40.15-86.06-54.8a2.12,2.12,0,0,0-4,0c-6.35,14.65-28.95,54.8-86.07,54.8-52,0-89.93-39.74-124.78-75.89-3.38-3.5-6.72-7-10-10.34,0,0,0,0,0,0a98.76,98.76,0,0,1-9.57-43.69c.21-21.29,7-47.75,28.83-77.35,56-75.93,137.93-38.6,151.65-133.21s-49.87-268.87,51.14-268.87,37.45,174.29,51.13,268.87,95.64,57.28,151.66,133.21C1891.12,1373,1897.92,1399.45,1898.12,1420.74Z"/><g class="cls-6"><path class="cls-3" d="M1886.61,1468.22a.15.15,0,0,1,0,.07q-3.19,3.24-6.32,6.53c-34.87,36.13-72.76,75.87-124.81,75.87-57.13,0-79.69-40.14-86-54.79a2.13,2.13,0,0,0-4,0c-6.35,14.65-28.95,54.79-86.08,54.79-52,0-89.91-39.74-124.77-75.87-3.39-3.5-6.71-7-10-10.36,0,0,0,0,0,0-4.48-9.24-11.2-27-7.8-23.92,34.86,31.8,90.63,67.15,142.64,67.15,57.13,0,79.73-35.26,86.08-48.14a2.22,2.22,0,0,1,4,0c6.35,12.88,28.91,48.14,86,48.14,52,0,141.38-69.71,141.38-69.74Z"/></g><path class="cls-3" d="M1755.45,1565.13c-47.18,0-74.09-24.35-88.08-43.87-14,19.52-40.89,43.87-88.08,43.87-57.79,0-98.52-42.25-134.45-79.53-21.69-22.5-42.17-43.75-62.41-51.33a14.43,14.43,0,1,1,10.11-27c26.38,9.87,49.07,33.41,73.09,58.33,33.5,34.76,68.14,70.69,113.66,70.69,47.73,0,66.81-32.23,72.8-46.09a16.56,16.56,0,0,1,30.56,0c6,13.85,25.08,46.09,72.8,46.09,45.52,0,80.17-35.93,113.67-70.69,24-24.92,46.7-48.46,73.08-58.33a14.43,14.43,0,1,1,10.11,27c-20.24,7.58-40.72,28.83-62.41,51.33C1854,1522.88,1813.24,1565.13,1755.45,1565.13Z"/><path class="cls-3" d="M1758.66,1352.65c0,28.86-22.92,60.12-45.36,83.79-24.09,25.43-60.94,25.43-85,0-22.43-23.67-45.36-54.93-45.36-83.79C1582.91,1296.14,1758.66,1296.14,1758.66,1352.65Z"/><g class="cls-6"><path class="cls-7" d="M1712.33,1346.87c0,4.56-10.84,9.51-21.44,13.25-11.39,4-28.81,4-40.2,0-10.61-3.74-21.45-8.69-21.45-13.25C1629.24,1337.93,1712.33,1337.93,1712.33,1346.87Z"/></g><path class="cls-3" d="M1666.5,1509.09a14.44,14.44,0,0,1-14.43-14.44v-39.14a14.44,14.44,0,1,1,28.87,0v39.14A14.44,14.44,0,0,1,1666.5,1509.09Z"/><path class="cls-9" d="M1509.8,1054.15c12.2,5,24.42-7.07,19.44-19.28-10-24.49-29-53-64.68-60.68C1398.82,960,1361,1027,1403.83,1036.78,1436.53,1044.21,1475.77,1040.13,1509.8,1054.15Z"/><path class="cls-9" d="M1814,1054.15c-12.2,5-24.42-7.07-19.45-19.28,10-24.49,29-53,64.69-60.68C1925,960,1962.81,1027,1920,1036.78,1887.28,1044.21,1848.05,1040.13,1814,1054.15Z"/><ellipse class="cls-3" cx="1458.01" cy="1182.78" rx="102.53" ry="75.59" transform="translate(90.76 2469.41) rotate(-82.31)"/><ellipse class="cls-7" cx="1486.68" cy="1163.92" rx="35.42" ry="20.24" transform="translate(138.05 2485.33) rotate(-82.47)"/><ellipse class="cls-7" cx="1420.68" cy="1211.89" rx="17.7" ry="10.12" transform="translate(54.85 2485.29) rotate(-83.46)"/><ellipse class="cls-3" cx="1879.71" cy="1182.78" rx="75.59" ry="102.53" transform="translate(-141.36 262.16) rotate(-7.69)"/><ellipse class="cls-7" cx="1851.03" cy="1163.92" rx="20.24" ry="35.42" transform="translate(-136.52 252.5) rotate(-7.53)"/><ellipse class="cls-7" cx="1917.03" cy="1211.89" rx="10.12" ry="17.7" transform="translate(-125.57 226.25) rotate(-6.54)"/></g></g></svg>