<svg xmlns="http://www.w3.org/2000/svg" viewBox="0 0 4000 4000"><defs><style>.cls-1{fill:#cf9ef5;}.cls-2{opacity:0.2;}.cls-3{fill:#000072;}.cls-4{fill:#60547b;}.cls-5{opacity:0.3;}.cls-6{opacity:0.55;}.cls-7{fill:#fff;}.cls-8{fill:#ff2c4b;}.cls-9{fill:#ffe082;}.cls-10{opacity:0.29;}.cls-11{fill:#7a2938;}.cls-12{opacity:0.6;}.cls-13{opacity:0.5;}</style></defs><g id="Layer_2" data-name="Layer 2"><g id="Layer_1-2" data-name="Layer 1"><rect class="cls-1" width="4000" height="4000"/><g class="cls-2"><ellipse class="cls-3" cx="2005.91" cy="3272.93" rx="994.09" ry="152.07"/></g><path class="cls-4" d="M1611.51,1048.08c-345.2-349.16-787.3,181.58-363.37,485.28"/><g class="cls-5"><path class="cls-3" d="M1110.42,1125.92s0,.08,0,.2C1110.42,1126,1110.42,1125.92,1110.42,1125.92Z"/></g><g class="cls-5"><path class="cls-3" d="M1110.53,1127.13l0,.22C1110.55,1127.28,1110.54,1127.19,1110.53,1127.13Z"/></g><g class="cls-5"><path class="cls-3" d="M1400.14,1268.47c1.63-1.17,3.22-2.26,4.86-3.47-213.62,157.19-274.25-29.4-289.74-107.67-22.53,112.17,17.26,243.38,158.22,348.86l123.64-165.12,7.83-75.62C1403.35,1266.46,1401.73,1267.51,1400.14,1268.47Z"/></g><g class="cls-5"><path class="cls-3" d="M1110.45,1126.26c0,.1,0,.21,0,.35C1110.47,1126.48,1110.46,1126.35,1110.45,1126.26Z"/></g><g class="cls-6"><path class="cls-7" d="M1611.52,1048.06l-19.63,26.21c-232.42-211-499.83-40-516.71,184.81C1056.2,1007,1359.63,793.32,1611.52,1048.06Z"/></g><path class="cls-4" d="M2279.78,995.71c283.4-331.84,833.07,41.52,439.67,447.15"/><g class="cls-5"><path class="cls-3" d="M2642.75,1431.45a205.38,205.38,0,0,0,29.13-4.4s121.24-73.4,146-256.29l0,0c-47.85,61.08-168.06,113.89-456-133.5l146.69,221.85,43.9,113.42s81.66,49.1,90.83,59.55c2.87,3.27,9.17,4.49,16.48,4.63-7.31-.14-13.61-1.36-16.48-4.63C2643.17,1431.87,2642.94,1431.66,2642.75,1431.45Z"/></g><g class="cls-6"><path class="cls-7" d="M2855.42,1183.17c-21.89-236.09-343.06-366.77-551-162.33l-24.69-25.13C2499.85,738.06,2880.38,905.52,2855.42,1183.17Z"/></g><path class="cls-7" d="M2776.81,1746.65c0,444.66-348.4,615.36-778.17,615.36s-778.16-170.7-778.16-615.36,348.4-805.12,778.16-805.12S2776.81,1302,2776.81,1746.65Z"/><path class="cls-3" d="M1998.64,2364.51c-228.35,0-419.11-48.89-551.67-141.38-152-106-229-266.33-229-476.48,0-445.32,350.2-807.62,780.66-807.62s780.67,362.3,780.67,807.62c0,210.15-77,370.46-229,476.48C2417.76,2315.62,2227,2364.51,1998.64,2364.51Zm0-1420.48c-427.7,0-775.66,360-775.66,802.62,0,208.42,76.32,367.35,226.85,472.38,131.71,91.9,321.49,140.48,548.81,140.48s417.1-48.58,548.82-140.48c150.53-105,226.85-264,226.85-472.38C2774.31,1304.08,2426.35,944,1998.64,944Z"/><g class="cls-5"><path class="cls-3" d="M2018.62,2325q69.78,0,136.3-6.23c218.27-28.22,400.82-111.57,504.5-266.8h0q-12.49,7.46-25.46,14.38l-1.56.83a720.11,720.11,0,0,1-82.46,37.3l-1.87.71q-14,5.29-28.44,10.15l-1.52.5q-29.16,9.72-59.77,17.62c-.77.2-1.53.41-2.3.6q-14.77,3.78-29.87,7.14l-3.3.72q-15.33,3.36-30.94,6.33l-.25.05q-15.67,2.94-31.64,5.45c-.87.14-1.73.29-2.6.42q-15.34,2.4-30.94,4.4l-4.86.61q-15.48,2-31.17,3.54c-1.19.12-2.38.22-3.57.33q-15.51,1.51-31.23,2.69l-2.27.18c-10.59.77-21.26,1.39-32,1.92l-5.87.29q-15.7.72-31.58,1.11c-1.86.05-3.72.08-5.58.12-11,.23-22.12.38-33.28.38q-12.2,0-24.3-.21c-2.35,0-4.69-.08-7-.13q-9.11-.18-18.17-.46l-6.74-.22c-8-.29-16-.62-23.88-1-.69,0-1.37-.08-2.06-.12q-10.89-.58-21.68-1.34l-6.82-.5q-9.09-.67-18.11-1.46c-2-.17-3.92-.33-5.87-.51q-11.71-1.08-23.32-2.35l-2.93-.34q-10.14-1.14-20.18-2.44l-6.3-.84q-9.23-1.25-18.38-2.61l-4.66-.7q-11.43-1.75-22.74-3.74c-1-.18-2.09-.38-3.14-.57q-9.69-1.72-19.28-3.62l-5.53-1.1q-9.54-1.93-19-4l-3.08-.67q-11.13-2.51-22.08-5.23l-3.12-.8q-9.32-2.35-18.5-4.88l-4.73-1.31q-9.9-2.78-19.66-5.73l-1.27-.38q-10.74-3.28-21.29-6.83l-2.89-1q-9-3-17.79-6.26l-3.9-1.43q-20.43-7.58-40-16.11c-.88-.39-1.75-.79-2.64-1.17q-8.6-3.79-17-7.78l-3-1.44q-19.23-9.21-37.55-19.43l-2.38-1.35q-8.16-4.6-16.13-9.42l-2.25-1.35q-17.88-10.9-34.74-22.88l-2.11-1.52q-7.66-5.51-15.1-11.21l-1.52-1.16q-16.34-12.64-31.57-26.43l-1.9-1.74q-7.07-6.44-13.88-13.12c-.28-.29-.58-.56-.87-.85q-14.62-14.45-28.06-30.07l-1.71-2c-4.24-5-8.4-10-12.46-15.2-.1-.14-.22-.27-.33-.41q-6.57-8.4-12.81-17.09h0q-5.67-7.9-11-16.08l-1.6-2.45q-5-7.67-9.7-15.53c-.28-.47-.58-.94-.86-1.41q-10.32-17.37-19.38-35.87c-.49-1-1-2-1.45-3q-3.77-7.83-7.31-15.86c-.47-1-.94-2.1-1.4-3.15q-8.16-18.87-15-38.84c-.42-1.22-.82-2.46-1.23-3.68q-2.73-8.1-5.23-16.39c-.48-1.6-1-3.2-1.44-4.81q-2.64-9-5-18.28c-.19-.75-.4-1.48-.6-2.24q-2.67-10.52-5-21.31c-.29-1.37-.55-2.76-.84-4.13q-1.79-8.59-3.37-17.36-.57-3.13-1.09-6.28-1.44-8.48-2.67-17.12c-.25-1.76-.53-3.5-.77-5.27q-1.5-11.17-2.69-22.64c-.12-1.2-.21-2.42-.33-3.63q-.93-9.63-1.62-19.46c-.17-2.43-.32-4.89-.46-7.34q-.53-8.51-.85-17.17c-.09-2.4-.2-4.79-.27-7.2-.23-8-.39-16.08-.39-24.27a836.84,836.84,0,0,1,7.34-110.5c.29-2.14.55-4.29.85-6.42a825.62,825.62,0,0,1,17.85-90c.09-.36.17-.74.27-1.1,3.56-13.77,7.5-27.38,11.73-40.85q7.56-24.06,16.47-47.45l0,0q-8.75,12-17,24.4l-.35.51q-8.34,12.43-16.24,25.2l-.15.24q-15.95,25.81-30,52.93v0q-5.49,10.58-10.68,21.35l-.1.19q-10.3,21.39-19.4,43.49c-.13.3-.26.62-.38.93q-4.47,10.86-8.63,21.89h0q-4.15,11-8,22.14c-.21.6-.4,1.19-.61,1.79q-3.7,10.83-7.13,21.8c0,.11-.07.22-.1.33q-3.43,11.06-6.56,22.27l-.75,2.73q-3,10.76-5.66,21.6l-.18.7q-2.73,11.09-5.14,22.3l-.78,3.67c-1.5,7.12-2.94,14.26-4.26,21.44-.06.33-.13.66-.19,1-1.36,7.41-2.59,14.86-3.75,22.34-.23,1.5-.45,3-.68,4.5-1.06,7.12-2.06,14.26-2.94,21.44,0,.38-.1.75-.14,1.12-.91,7.44-1.68,14.92-2.39,22.42-.16,1.71-.31,3.42-.46,5.14-.64,7.26-1.21,14.55-1.66,21.87l-.06.83c-.46,7.51-.77,15.06-1,22.63-.06,1.85-.12,3.69-.16,5.54-.21,7.6-.35,15.22-.35,22.87,0,8.19.15,16.26.39,24.27.07,2.41.17,4.79.27,7.18q.33,8.67.84,17.19c.15,2.45.3,4.9.47,7.33q.69,9.81,1.62,19.43c.11,1.21.2,2.46.33,3.67q1.17,11.46,2.69,22.62c.24,1.78.51,3.53.77,5.29q1.23,8.63,2.66,17.09c.36,2.11.72,4.21,1.1,6.29q1.58,8.76,3.36,17.33c.29,1.38.55,2.79.85,4.16q2.33,10.79,5,21.3c.19.76.41,1.51.6,2.27q2.38,9.24,5,18.24c.47,1.62,1,3.22,1.45,4.83q2.5,8.26,5.21,16.36c.42,1.23.82,2.48,1.24,3.71q6.87,20,15,38.82c.46,1.06.94,2.1,1.4,3.15q3.54,8,7.31,15.86c.48,1,1,2,1.46,3q9.06,18.5,19.38,35.87c.27.46.56.92.84,1.39q4.73,7.89,9.71,15.55l1.59,2.43q5.39,8.18,11,16.09h0C1506.06,2256.24,1745.94,2325,2018.62,2325Z"/></g><path class="cls-7" d="M2016.79,2709.9l-153.71,562.27c-477.14-17.58-525.55-374.22-444-720.4,23.62-100.44,58.18-200,96.4-290.11l395.46,101.58,97.15,318Z"/><path class="cls-3" d="M1865,3274.74l-2-.07c-180.22-6.64-311.57-62.43-390.39-165.82-118.27-155.14-95.72-388.88-56-557.65,22-93.76,54.52-191.5,96.53-290.51l.84-2,398.9,102.45,106.51,348.71-.19.69ZM1516.9,2264.62c-41.48,98.07-73.59,194.87-95.43,287.73-39.49,167.71-62,399.88,55.1,553.47,77.58,101.76,207,156.86,384.62,163.78l153-559.66-105.26-344.63Z"/><g class="cls-5"><path class="cls-3" d="M1944,2976.24l-80.87,295.93c-387-14.23-492-251.67-474.28-525.61C1480.51,2942.43,1649.9,3062.88,1944,2976.24Z"/></g><path class="cls-3" d="M2323.55,2088.36a210.47,210.47,0,0,1-25.2,23.93c-48.54,38.73-112.81,54.95-176.15,57-70.4,2.27-150.59-2.24-193.1-39.29a330.32,330.32,0,0,1-32.73-34.25c-117.74-142.77,1.75-273.89,107.88-236.31,65.19,27.15,139.35,30.89,199.15-3.57C2316.24,1805.41,2448.12,1948.34,2323.55,2088.36Z"/><path class="cls-4" d="M2008.05,2681.28c-368.12,21.51-589-129.51-589-129.51,23.62-100.44,58.18-200,96.4-290.11l395.46,101.58Z"/><path class="cls-4" d="M1841.84,3262.47l-80.77-.11c-132.89,4-180.28-78.82-189.34-168.27-3.56-35.74-1.08-72.51,4.58-105.18C1593,2892,1692.23,2811,1761.07,2914.78l16,151.82,13,123.57Z"/><g class="cls-6"><polygon class="cls-7" points="1800.02 3227.7 1824.92 3262.44 1841.84 3262.47 1797.12 3200.07 1800.02 3227.7"/><path class="cls-7" d="M1581.73,3131.63c-3.56-35.75-1.08-72.52,4.58-105.19,16.15-93.66,109.29-172.38,177.67-84l-2.91-27.67c-68.84-103.79-168-22.81-184.76,74.13-5.66,32.67-8.14,69.44-4.58,105.18A255,255,0,0,0,1585,3154.7Q1582.92,3143.29,1581.73,3131.63Z"/></g><path class="cls-4" d="M2767.32,2618.84a178.44,178.44,0,0,1-41.46,94.3c-46.42,54.72-123.89,80.65-197.7,56.39-124.38-40.86-100.87-205.09,70.73-289.14,4.1-2,8.31-4,12.57-5.93l-30.41,4.53-157.21-12.4L2234.44,2362l206-80.44,115-65.18C2664,2310.73,2783.66,2486.05,2767.32,2618.84Z"/><path class="cls-8" d="M2298.35,2112.29c-48.54,38.73-112.81,54.95-176.15,57-70.4,2.27-150.59-2.24-193.1-39.29a330.32,330.32,0,0,1-32.73-34.25C1901.85,1963.25,2303.78,1979.82,2298.35,2112.29Z"/><path class="cls-4" d="M2582.56,2991.4c136.72-168.28,248.59-10.58,157.49,177.23-69.29,126.24-158.88,109-205.3,73.63"/><g class="cls-5"><path class="cls-3" d="M2770.88,3069.19c-4,30.83-13.91,64.64-30.84,99.47-69.28,126.21-158.88,109-205.3,73.59l47.82-250.86q7.76-9.54,15.36-17.69l-32.18,168.81C2612.1,3177.93,2701.65,3195.13,2770.88,3069.19Z"/></g><g class="cls-6"><path class="cls-7" d="M2743.06,3162.24c49.6-159.1-46.74-274-166.27-140.55l5.77-30.3C2717.72,2825.06,2828.57,2977.26,2743.06,3162.24Z"/></g><path class="cls-9" d="M2032.46,2103.57A58,58,0,0,0,2081,1998.79a53.21,53.21,0,1,0-92.25-41.31,58,58,0,1,0,10.1,114.67A57.76,57.76,0,0,0,2032.46,2103.57Z"/><path class="cls-3" d="M2052,2109.27a60.42,60.42,0,0,1-20.34-3.55,59.63,59.63,0,0,1-34.14-31,60.26,60.26,0,1,1-10.78-119.57,54.54,54.54,0,0,1,2.62-10.72,55.45,55.45,0,1,1,104.43,37.33,54.92,54.92,0,0,1-9.31,16.46,60.3,60.3,0,0,1-32.48,111Zm-51.8-39.74.74,1.71a55.16,55.16,0,0,0,32.26,30.18h0a55.69,55.69,0,0,0,46.65-100.65l-2.44-1.42,1.89-2.09a50.92,50.92,0,1,0-88.28-39.54l-.22,2.11-2.12-.07a55.7,55.7,0,1,0,9.7,110.16Z"/><g class="cls-10"><path class="cls-3" d="M2057,2080.47c-31.93,5.13-45.5-38.55-45.5-38.55-75.61,18.7-72.8-57.06-72.8-57.06l-.9-.06a57.91,57.91,0,0,0,61.13,87.35,57.94,57.94,0,0,0,108.48-40.25L2087,2013.31S2088.89,2075.34,2057,2080.47Z"/></g><path class="cls-3" d="M2052,2122a73.15,73.15,0,0,1-61.5-33.67,73,73,0,0,1-14.12-145.12c.3-1,.64-2,1-3a68.17,68.17,0,1,1,128.39,45.88,69.27,69.27,0,0,1-4.17,9.39A73,73,0,0,1,2052,2122Zm-53.15-64.84a15,15,0,0,1,13.74,9,42.58,42.58,0,0,0,24.88,23.31h0a43,43,0,0,0,36-77.67,15,15,0,0,1-3.62-23.06,38.17,38.17,0,1,0-64.25-38.46,38.53,38.53,0,0,0-2,8.82,14.91,14.91,0,0,1-15.39,13.39,43,43,0,1,0,7.47,85A15,15,0,0,1,1998.89,2057.15Z"/><path class="cls-3" d="M2092.93,2188.31c-60.46,0-133.3-7.13-176-44.37a350.68,350.68,0,0,1-34.87-36.45c-70.53-85.52-60.22-166.63-27-214,35.22-50.3,99.16-71.5,155.45-51.57.32.11.63.23.94.36,65.8,27.41,132.42,26.5,182.76-2.51a15.79,15.79,0,0,1,1.69-.86c59.69-26.69,129.06-7.52,168.68,46.6,35.87,49,47.58,131.25-27.1,215.2a0,0,0,0,0,0,0,230.06,230.06,0,0,1-27.42,26c-59.45,47.44-134.61,59.38-187.19,61.06C2113.34,2188.1,2103.32,2188.31,2092.93,2188.31Zm-126.66-316.92c-31.23,0-61.41,15.54-80.89,43.37-32.83,46.89-23.37,110.13,25.3,169.15a313,313,0,0,0,30.92,32.34c29.87,26,88.8,37.42,180,34.46,47-1.49,113.75-11.89,165.18-52.92A192.88,192.88,0,0,0,2309.7,2076c60-67.43,52.18-131.31,24.87-168.61-29-39.62-79.38-54-122.79-35-60.18,34.25-138.15,35.83-214.17,4.32A95,95,0,0,0,1966.27,1871.39Zm357.28,217h0Z"/><path class="cls-3" d="M1998.64,2380.57c-231.65,0-425.59-49.89-560.86-144.28-156.5-109.2-235.85-273.94-235.85-489.64,0-454.17,357.4-823.67,796.71-823.67s796.72,369.5,796.72,823.67c0,215.7-79.35,380.44-235.85,489.64C2424.24,2330.68,2230.29,2380.57,1998.64,2380.57Zm0-1420.49c-418.85,0-759.61,352.86-759.61,786.57,0,202.86,74,357.36,220,459.22,129,90,315.61,137.59,539.63,137.59s410.63-47.58,539.64-137.59c146-101.86,220-256.36,220-459.22C2758.26,1312.94,2417.5,960.08,1998.64,960.08Z"/><path class="cls-4" d="M1576.31,2305.55c224.27-520.27,525.47-346.29,391,24.58l-39.22,95.38-198.36,38.19"/><g class="cls-6"><path class="cls-7" d="M1967.29,2330.13l-39.19,95.38H1928l14.83-36.07c129.23-356.53-144.06-531.11-364.62-82l-1.89-1.94C1800.59,1785.28,2101.75,1959.26,1967.29,2330.13Z"/></g><path class="cls-4" d="M1529.63,3164.85c-338.8,76.1-341.5-285.12-100.74-135.69"/><g class="cls-6"><path class="cls-7" d="M1438.89,3059.16l80.11,107.9c3.52-.71,7-1.4,10.63-2.21l-100.74-135.69c-136.5-84.72-194.7-5.3-157.8,65.51C1262.17,3034.72,1321.65,2986.4,1438.89,3059.16Z"/></g><path class="cls-11" d="M2063.1,2316.28l-.11-.06a0,0,0,0,1,.05,0A.17.17,0,0,1,2063.1,2316.28Z"/><path class="cls-3" d="M2065.6,2320.32l-5.11-2.55v-4l3.66-.06,1.4,1.53Zm-2.55-4v0Zm-2.45,0h0Z"/><path class="cls-11" d="M2063.1,2316.28l-.11-.06a0,0,0,0,1,.05,0A.17.17,0,0,1,2063.1,2316.28Z"/><path class="cls-3" d="M2065.6,2320.32l-5.11-2.55v-4l3.66-.06,1.4,1.53Zm-2.55-4v0Zm-2.45,0h0Z"/><path class="cls-9" d="M2572.26,2494.79s-59.47,42.05-73.65,59.73l-712.84-2.75c-89.5-98,19.67-208.48,97.85-143.78-1-37,41.19-61.52,69.55-46,17.41-64.32,74.61-80.71,109.87-45.83a0,0,0,0,0-.05,0l.11.06a.17.17,0,0,0-.06-.11c47.07-68.58,199.32-67.18,234.37,41.08,44.53-37.74,106.32-29.7,108.42,31.81C2468.75,2357.85,2568.43,2398.71,2572.26,2494.79Z"/><g class="cls-12"><path class="cls-7" d="M2063.1,2349.25c0-.05-.06-.1-.06-.1a0,0,0,0,0-.05,0Z"/><path class="cls-7" d="M1883.62,2441c-1-37,41.19-61.51,69.55-46,17.41-64.32,74.62-80.7,109.87-45.82,47.07-68.58,199.32-67.18,234.37,41.08,44.53-37.74,106.32-29.71,108.42,31.81,56-27.78,141,1.56,161.8,76.06,2.9-2.09,4.63-3.31,4.63-3.31-3.83-96.08-103.51-136.94-166.43-105.73-2.1-61.51-63.89-69.55-108.42-31.81-35-108.26-187.3-109.66-234.37-41.08a.17.17,0,0,1,.06.11l-.11-.06a0,0,0,0,1,.05,0c-35.25-34.88-92.46-18.49-109.87,45.83-28.36-15.53-70.57,8.95-69.55,46-62-51.31-143.45,7.57-129.91,83C1764.51,2433.16,1831.07,2397.47,1883.62,2441Z"/></g><g class="cls-12"><path class="cls-7" d="M2196.75,2421c9.86,8,.45,23.19-11.31,18.41a66.21,66.21,0,0,0-24-4.42c-35.77-.6-50.21,23.22-57,39.87a11,11,0,0,1-9.5,6.89h0a10.8,10.8,0,0,1-8.33-3.15c-8.54-8.68-20.89-17.32-35.05-7.43a27.75,27.75,0,0,0-10.19,13.72l-1.59.09s-5.67-26.59,11.78-38.8c24-16.8,42.92,19.82,46.63,19.38s8.6-56.47,63.21-55.57C2177.41,2410.28,2188.8,2414.58,2196.75,2421Z"/></g><path class="cls-3" d="M2035.79,2485.86a53.53,53.53,0,0,1-2.83-19.8c.53-6.81,2.26-14.36,7.1-20.77,4.91-6.24,11.23-11.42,20.36-13.23a30.56,30.56,0,0,1,13.38.6,42.39,42.39,0,0,1,11.14,4.93c6.47,4.11,11.32,9.14,15.65,13.76l3,3.22c.44.45.84.85,1.12,1.1.05,0,.2.15,0,0a3,3,0,0,0-.45-.35,8,8,0,0,0-2-1.09,10.73,10.73,0,0,0-3.66-.78,10.84,10.84,0,0,0-2,.11,10.65,10.65,0,0,0-2.56.6,10.84,10.84,0,0,0-2.44,1.26,9.31,9.31,0,0,0-1,.81l-.66.62a7.76,7.76,0,0,0-.78.84,7.52,7.52,0,0,0-.64,1,1.2,1.2,0,0,1-.16.24,1.15,1.15,0,0,0-.14.27l.39-1.17,1.32-4.11c3.75-12.05,9.74-25.2,19.94-35.7a64.12,64.12,0,0,1,17.79-13.06,64.79,64.79,0,0,1,20.9-6,83.91,83.91,0,0,1,20.67.25,77.55,77.55,0,0,1,20.24,5.62c6.47,3.27,12.85,7.26,17.52,13.09a49.75,49.75,0,0,1,10.16,18.83,59.81,59.81,0,0,1-2.48,39.26,4.19,4.19,0,0,1-8-2.23l0-.2a57.38,57.38,0,0,0-4.43-31.4,36.76,36.76,0,0,0-8.58-11.46l-2.69-2.18-3-1.74a13,13,0,0,0-3.11-1.56l-3.23-1.38a56.89,56.89,0,0,0-14.62-2.43,63.68,63.68,0,0,0-15.14.71c-9.6,1.81-17.75,6-24.1,12.86s-10.82,16-14.57,26.62l-1.59,4.39c-.3.81-.66,1.75-1.23,3l-.64,1.28-.42.73a16.75,16.75,0,0,1-1,1.4,15.5,15.5,0,0,1-1.11,1.3s-.41.41-.76.71-.75.6-1.17.88a13.53,13.53,0,0,1-2.67,1.39,12.58,12.58,0,0,1-2.81.74,12,12,0,0,1-2.23.08,13.59,13.59,0,0,1-4.22-.89,17.16,17.16,0,0,1-3-1.63l-1.32-1c-.73-.65-1.11-1.06-1.59-1.55-.77-.83-1.37-1.54-1.92-2.2l-2.87-3.58a65.61,65.61,0,0,0-10.36-10.86c-3.44-2.77-6.39-4.09-9.21-4-2.81-.11-7.1,1.74-10,4.44-6.25,5.33-9.15,16.91-9.23,27.75v.4a4.19,4.19,0,0,1-8.15,1.34Z"/><path class="cls-8" d="M1991.66,2551.77h574.1a56,56,0,0,1,55.72,61.77L2563.24,3179a110,110,0,0,1-109.44,98.75H2066.5"/><path class="cls-7" d="M2523.38,2653l-68.5,545.44a11.61,11.61,0,0,1-11.52,10.17H2385a11.56,11.56,0,0,1-11.49-12.84l60.75-545.49a11.56,11.56,0,0,1,11.49-10.28h66.17A11.55,11.55,0,0,1,2523.38,2653Z"/><g class="cls-5"><path class="cls-3" d="M2621.48,2603.56,2563.26,3169a110.07,110.07,0,0,1-109.45,98.77H2066.49l-74.83-726H1999l67.49,654.63h387.32a110.07,110.07,0,0,0,109.45-98.77l53.8-522.38A55.83,55.83,0,0,1,2621.48,2603.56Z"/></g><g class="cls-6"><path class="cls-7" d="M2621.48,2608.56l-2.37,22.91a56.08,56.08,0,0,0-53.37-38.87h-215a62.64,62.64,0,0,0-60.33-45.83h275.34A56,56,0,0,1,2621.48,2608.56Z"/></g><path class="cls-3" d="M2453.79,3296.65h-387.3a18.87,18.87,0,1,1,0-37.74h387.3a90.93,90.93,0,0,0,90.68-81.82l58.25-565.49a37.17,37.17,0,0,0-37-41h-574.1a18.87,18.87,0,0,1,0-37.74h574.1a74.9,74.9,0,0,1,74.49,82.57L2582,3181A128.56,128.56,0,0,1,2453.79,3296.65Z"/><path class="cls-8" d="M2195.28,3277.8H1897.75a110,110,0,0,1-109.44-98.75L1730,2613.52a56,56,0,0,1,55.73-61.76h504.65a62.64,62.64,0,0,1,62.32,69.07l-58.49,567.67A99.5,99.5,0,0,1,2195.28,3277.8Z"/><path class="cls-7" d="M1985.12,2651.64V3197a11.64,11.64,0,0,1-11.64,11.64h-60.64c-2,0-3.94-.06-5.88-.16a11.53,11.53,0,0,1-10.73-11l-30.67-545.19a11.63,11.63,0,0,1,11.62-12.29h96.3A11.64,11.64,0,0,1,1985.12,2651.64Z"/><path class="cls-7" d="M2219.5,2652.29l-30.71,545.33a11.64,11.64,0,0,1-11.62,11h-65.23A11.64,11.64,0,0,1,2100.3,3197V2651.64a11.64,11.64,0,0,1,11.64-11.64h95.94A11.64,11.64,0,0,1,2219.5,2652.29Z"/><g class="cls-5"><path class="cls-3" d="M2352.72,2610.84l-58.49,567.66a99.45,99.45,0,0,1-98.93,89.28H1897.74a110,110,0,0,1-109.44-98.72L1730,2603.51a55.3,55.3,0,0,1,4.42-28.15l53.86,522.86a110,110,0,0,0,109.44,98.71H2195.3a99.44,99.44,0,0,0,98.93-89.28L2348.52,2581A62.1,62.1,0,0,1,2352.72,2610.84Z"/></g><g class="cls-6"><path class="cls-7" d="M2352.72,2615.84l-2.21,21.73a62.69,62.69,0,0,0-60.11-45H1785.77a56.11,56.11,0,0,0-53.38,38.82l-2.37-22.91a56,56,0,0,1,55.75-61.74H2290.4a62.64,62.64,0,0,1,60.33,45.83A60.44,60.44,0,0,1,2352.72,2615.84Z"/></g><path class="cls-3" d="M2195.28,3296.66H1897.75A128.57,128.57,0,0,1,1769.54,3181l-58.27-565.53a74.88,74.88,0,0,1,74.5-82.56h504.65a81.51,81.51,0,0,1,81.09,89.87L2313,3190.44A118,118,0,0,1,2195.28,3296.66Zm-409.51-726a37.16,37.16,0,0,0-37,41l58.27,565.53a90.93,90.93,0,0,0,90.67,81.81h297.53a80.42,80.42,0,0,0,80.2-72.36L2334,2618.89a43.78,43.78,0,0,0-43.55-48.27Z"/><path class="cls-3" d="M1785.77,2570.62a18.77,18.77,0,0,1-13.93-6.14c-55.55-60.78-43.74-127.43-9.27-163.64,30-31.47,71.76-39.37,108.63-22.74,10.27-21.18,31.21-35.11,51.53-38.73,31.26-5.55,58.38,11.44,69.08,43.29a18.87,18.87,0,0,1-35.77,12c-6-17.86-17.82-19.72-26.7-18.15-13.56,2.41-27.31,14.64-26.86,30.93a18.87,18.87,0,0,1-30.89,15.06c-30-24.79-62.62-15.68-81.68,4.35-23.55,24.73-29.65,69,9.79,112.16a18.86,18.86,0,0,1-13.93,31.59Z"/><path class="cls-3" d="M1953.2,2380.89a18.89,18.89,0,0,1-18.23-23.8c12.13-44.85,43-74.54,80.57-77.49,34.44-2.74,65.8,18.24,82.09,54.63a18.87,18.87,0,0,1-34.45,15.42c-9.73-21.74-26.42-33.89-44.68-32.43-21.2,1.67-39.25,20.72-47.09,49.72A18.9,18.9,0,0,1,1953.2,2380.89Z"/><path class="cls-3" d="M2403.91,2432.25a18.91,18.91,0,0,1-18.6-22.18c4.65-26.1-.25-44.77-13.79-52.56-15.87-9.12-41.33-3.32-61.92,14.12a18.87,18.87,0,0,1-30.15-8.59c-18.37-56.77-70.4-70.16-91.93-73.28-44.69-6.49-89.51,8.77-109,37.12a18.87,18.87,0,1,1-31.12-21.35c27.7-40.38,86.15-61.71,145.5-53.12,50.53,7.33,91.19,35.22,112.84,76.25,28.72-15.71,60.62-17.63,84.56-3.86,27.95,16.09,39.66,49.57,32.13,91.88A18.89,18.89,0,0,1,2403.91,2432.25Z"/><path class="cls-3" d="M2572.25,2513.66a18.86,18.86,0,0,1-18.84-18.12c-1.94-48.55-31.18-72.95-48.44-83.18-28.71-17-64.34-19.5-90.79-6.35a18.87,18.87,0,1,1-16.8-33.79c38.2-19,86.8-16,126.82,7.67,40.6,24.05,65,65.65,66.91,114.15a18.86,18.86,0,0,1-18.1,19.6Z"/><path class="cls-4" d="M2725.86,2713.14c-46.42,54.72-123.89,80.65-197.7,56.39-124.38-40.86-100.87-205.09,70.73-289.14Z"/><g class="cls-6"><path class="cls-7" d="M2767.32,2618.84a178.44,178.44,0,0,1-41.46,94.3,186.51,186.51,0,0,1-106,62.11,185.71,185.71,0,0,0,61.4-47.29,178.33,178.33,0,0,0,41.46-94.29c13.34-108.71-64.39-245.83-152.55-343.78a43.38,43.38,0,0,1,1.27-59.06h0C2675.4,2327.82,2782.85,2492.58,2767.32,2618.84Z"/></g><path class="cls-3" d="M2585,2797.52a201,201,0,0,1-62.72-10.06c-55.18-18.14-88.43-59.21-91.21-112.68-4.32-83.17,63.47-168.55,172.71-217.52a18.87,18.87,0,0,1,15.44,34.44c-107.92,48.38-153.34,125.82-150.46,181.12,2,37.61,25.15,65.59,65.3,78.78,46.72,15.36,97.64,8.85,139.7-17.83,41.64-26.41,68.92-69.15,74.86-117.25,15-121.55-94.69-289.54-205.51-385.9a18.87,18.87,0,0,1,24.76-28.48c98,85.2,237,267.08,218.2,419-7.32,59.35-40.89,112-92.09,144.5A203.35,203.35,0,0,1,2585,2797.52Z"/><path class="cls-3" d="M1248.13,1551.91a18.53,18.53,0,0,1-10.8-3.47c-133.77-95.84-198.56-227.41-177.75-361,18.76-120.39,104.05-221.82,217.31-258.43,117-37.81,243.82.81,347.82,106a18.55,18.55,0,0,1-26.39,26.08c-95.17-96.26-205.26-130.63-310-96.77-100.06,32.33-175.44,122.15-192.06,228.83-10.91,70.06-4.29,205.46,162.71,325.1a18.55,18.55,0,0,1-10.82,33.63Z"/><path class="cls-3" d="M2719.45,1461.42a18.56,18.56,0,0,1-13.32-31.47c111.41-114.88,154.32-238.18,120.81-347.19-29.21-95-113.35-167.77-219.57-189.78-116.33-24.1-230.6,17.73-313.48,114.78a18.55,18.55,0,0,1-28.22-24.09c91.95-107.66,219.24-153.95,349.23-127,119.48,24.76,214.32,107.22,247.51,215.21,37.66,122.53-8.38,258.88-129.65,383.92A18.48,18.48,0,0,1,2719.45,1461.42Z"/><path class="cls-3" d="M1967.31,2349a18.86,18.86,0,0,1-17.73-25.3c62.41-172.15,25.55-293-40.81-319.3-77.38-30.67-204.87,52.83-315.13,308.62a18.87,18.87,0,0,1-34.66-14.94c128.52-298.14,276.26-363.42,363.7-328.76,85,33.68,133.66,170.63,62.37,367.24A18.87,18.87,0,0,1,1967.31,2349Z"/><path class="cls-3" d="M1636.42,3247.05a18.77,18.77,0,0,1-7.14-1.41c-105.12-43-179.63-116.27-221.44-217.76-41.5-100.72-50.6-228.33-27.07-379.3,19-121.65,59.52-258,117.3-394.28a18.87,18.87,0,1,1,34.74,14.73c-60.5,142.72-190.39,501-90.08,744.47,37.83,91.82,105.4,158.17,200.84,197.21a18.87,18.87,0,0,1-7.15,36.34Z"/><path class="cls-3" d="M1863.09,3291h-.71A851.26,851.26,0,0,1,1758.06,3281a18.87,18.87,0,0,1,6-37.25,813.79,813.79,0,0,0,99.68,9.58,18.87,18.87,0,0,1-.68,37.73Z"/><path class="cls-3" d="M1751.82,3281.36c-65,0-115.41-20.2-150.08-60.12-63.75-73.4-52-189.17-44-235.54,11.72-67.95,58.26-125.27,110.65-136.29,23.6-5,69.05-4.43,108.43,54.93a18.87,18.87,0,1,1-31.44,20.87c-14.19-21.39-37.71-45.49-69.22-38.87-36.65,7.71-72.33,54.17-81.24,105.78-7.08,41.06-17.82,143.18,35.33,204.37,28.61,33,72.41,48.77,130.28,47h.77c21.92.31,30-8.5,34.45-16.14a18.87,18.87,0,1,1,32.69,18.85c-9.31,16.16-28.7,35.44-67.15,35C1758.1,3281.32,1754.93,3281.36,1751.82,3281.36Z"/><path class="cls-3" d="M2608.42,3286.85c-29.8,0-59.75-10.24-85.11-29.59a18.87,18.87,0,0,1,22.89-30c11.42,8.72,42.17,28.1,80.82,19.93,36.23-7.67,68.61-37,96.26-87.21,48.18-99.65,35.08-188.62-4.74-214-30.85-19.65-76.22,1.78-121.33,57.3a18.87,18.87,0,1,1-29.29-23.8c58.39-71.87,122.28-96.29,170.89-65.34,53.94,34.35,78.67,138.1,18.22,262.71-.14.29-.29.57-.44.84-33.22,60.53-74.19,96.33-121.76,106.39A127.61,127.61,0,0,1,2608.42,3286.85Z"/><path class="cls-4" d="M1944,1514.82c-78.38,64.28-123.52,161.47-143.61,283.44-5.63,34.18-32.16,61-66.11,67.88-170.86,34.54-302.74-150.28-218.85-357.19,110.43-267.79,392.61-238.16,452.59-88.33A82.58,82.58,0,0,1,1944,1514.82Z"/><path class="cls-3" d="M1439.5,3194.5c-99.31,0-159.65-42.73-184.88-90.51-20.92-39.63-16.66-83.34,10.6-108.77,17.39-16.22,69.14-46.94,173.62,17.9a18.87,18.87,0,0,1-19.9,32.07c-67.27-41.75-110.23-38.93-128-22.37-14.63,13.65-15.82,39.19-3,63.55,24.7,46.78,101.72,90.57,237.5,60.07a18.87,18.87,0,1,1,8.27,36.82C1499.15,3191,1467.74,3194.5,1439.5,3194.5Z"/><path class="cls-7" d="M1910.58,1002.18C1947,763.61,2178,846,2073.67,991.4"/><path class="cls-3" d="M1913.05,1002.56l-4.94-.75c12.62-82.8,51.81-139.15,104.81-150.74,31.6-6.9,62.47,4.52,78.66,29.12,19.74,30,14,71.07-15.88,112.67l-4.06-2.92c28.56-39.81,34.3-78.81,15.76-107-15-22.85-43.85-33.44-73.41-27C1963.09,867.08,1925.35,921.89,1913.05,1002.56Z"/><path class="cls-7" d="M2093.63,954.91c110.78-103.34,206,48.65,43.38,82.32"/><path class="cls-3" d="M2137.52,1039.68l-1-4.9c49-10.15,80.67-33.31,84.63-62,2.49-18-7.1-35.5-24.42-44.49-28.54-14.81-66.43-4.18-101.38,28.42l-3.41-3.66c36.57-34.11,76.61-45,107.09-29.2,19.23,10,29.86,29.45,27.07,49.61C2221.82,1004.34,2188.71,1029.08,2137.52,1039.68Z"/><path class="cls-7" d="M2182,1022.16c124.88,40.68,42.07,160.63-36.86,71.68"/><path class="cls-3" d="M2203.59,1128.46c-19.81,0-41.33-11.52-60.36-33l3.74-3.32c23.46,26.44,50.57,37,72.56,28.27a37.5,37.5,0,0,0,23.95-36.33c-.8-24.86-24.09-47.14-62.29-59.58l1.55-4.76c40.29,13.13,64.87,37.12,65.73,64.18a42.43,42.43,0,0,1-27.09,41.13A47.62,47.62,0,0,1,2203.59,1128.46Z"/><path class="cls-3" d="M1910.6,1020.74a18,18,0,0,1-2.82-.22,18.55,18.55,0,0,1-15.54-21.14c13.67-89.62,57.5-150.93,117.25-164,38.15-8.35,75.63,5.78,95.5,36,23.24,35.34,17.17,84.25-16.25,130.84a18.55,18.55,0,1,1-30.15-21.62c24.48-34.12,30.09-66.5,15.4-88.83-11.35-17.26-33.56-25.16-56.57-20.13-44.15,9.66-77.24,59.51-88.5,133.35A18.57,18.57,0,0,1,1910.6,1020.74Z"/><path class="cls-3" d="M2137,1055.78a18.55,18.55,0,0,1-3.74-36.72c49.55-10.25,69.67-31.75,72-48.45,1.58-11.39-4.52-22.13-15.9-28-17.17-8.92-48-6.78-83,25.91A18.55,18.55,0,1,1,2081,941.35c41.75-39,88.63-50.81,125.44-31.72,25.33,13.16,39.3,39.08,35.57,66.06-2.51,18.19-17.4,62.36-101.21,79.7A18.81,18.81,0,0,1,2137,1055.78Z"/><path class="cls-3" d="M2203.55,1144.54c-24.38,0-50.13-13.37-72.32-38.39a18.55,18.55,0,1,1,27.75-24.62c18.79,21.17,39.2,30.14,54.61,24a21.61,21.61,0,0,0,13.84-20.9c-.44-13.76-14.12-32.76-51.21-44.84a18.55,18.55,0,0,1,11.49-35.28c47,15.31,75.71,44.82,76.81,78.93a58.34,58.34,0,0,1-37.21,56.56A63.94,63.94,0,0,1,2203.55,1144.54Z"/><path class="cls-4" d="M2636.73,1530c40.09,144.89-30.43,242.18-109.19,262.17-38.67,9.81-79-8.52-97.81-43.72q-72.83-136.55-179-225.41c-25.18-21.08-37.3-54.44-29.52-86.33,27.52-112.77,191.29-160.52,317.7-59.58C2587.31,1415.83,2620.2,1470.31,2636.73,1530Z"/><path class="cls-3" d="M1680.3,1615.14a18.55,18.55,0,0,1-18-23.19c15.71-60.84,55.84-100.17,102.24-100.19h0c36.28,0,81.86,26.31,101,100.16a18.55,18.55,0,1,1-35.91,9.32c-11.59-44.65-36.54-72.38-65.11-72.38h0c-29,0-55,28.42-66.34,72.36A18.57,18.57,0,0,1,1680.3,1615.14Z"/><path class="cls-3" d="M2460.33,1590.88a18.56,18.56,0,0,1-17.83-13.46c-8.56-30-22.11-47.6-38.17-49.7-16.44-2.15-36.2,11.68-50.26,35.23a18.55,18.55,0,0,1-31.87-19c22-36.83,55.28-57.14,86.94-53,18.32,2.39,51.66,15.49,69,76.29a18.56,18.56,0,0,1-12.74,22.94A18.75,18.75,0,0,1,2460.33,1590.88Z"/><path class="cls-3" d="M2188.23,1672.69c0,39.79-39.52,93.72-88.28,93.72s-88.29-53.93-88.29-93.72,39.53-50.44,88.29-50.44S2188.23,1632.89,2188.23,1672.69Z"/><path class="cls-3" d="M2118.5,1739.45l-13.16,68.74a5.49,5.49,0,0,1-10.78,0l-13.16-68.74a18.89,18.89,0,1,1,37.1,0Z"/><g class="cls-5"><path class="cls-3" d="M1841.84,3262.47l-80.77-.11c-132.89,4-180.28-78.82-189.34-168.27l0-.1c81.47,78.6,149.88,84.32,196.84-29.6l8.41,2.21,13,123.57Z"/></g><g class="cls-5"><path class="cls-3" d="M1417.37,3046.8s7.63,123.2-144.58,17.59l4.71,28.11,72.64,67.78,44.77,15.24,72.59-8,18.48-4.06,11.52-15.94-10-30-28.77-37.7-31.23-32.3Z"/></g><g class="cls-13"><path class="cls-7" d="M2125.16,1657.05c.11,5.2-13.38,12.48-30.22,12.86s-30.63-6.3-30.75-11.5,13.52-5.94,30.36-6.31S2125,1651.86,2125.16,1657.05Z"/></g></g></g></svg>