<svg xmlns="http://www.w3.org/2000/svg" viewBox="0 0 4000 4000"><defs><style>.cls-1{fill:#dc9afe;}.cls-2{fill:#fff;}.cls-3{fill:#390075;}.cls-4{fill:#f0835c;}.cls-5{opacity:0.3;}.cls-6{fill:#f22525;}.cls-7{opacity:0.35;}.cls-8{fill:#6b184e;}.cls-9{fill:#fc7e81;}.cls-10{fill:#f95288;}.cls-11{opacity:0.2;}.cls-12{fill:#f4b75d;}.cls-13{opacity:0.5;}</style></defs><g id="Layer_2" data-name="Layer 2"><g id="Layer_1-2" data-name="Layer 1"><rect class="cls-1" width="4000" height="4000"/><path class="cls-2" d="M1725,2827.07s-271.3,108.58-509-51.76c-235.29-158.7-137.47-489.38-94.37-605.94,48.89-132.2,25.88-323.93-109.28-301.73-136.14,22.35-4.8,230.88-146.67,277.85-62.26,20.61-193.89-43.25-172.55-259.6,28.76-291.61,434.31-344.33,581-59.62s-104.76,473.65-58.08,689.49c39.44,182.39,204.06,248,457.46,158.89"/><path class="cls-3" d="M1513.49,2865.05c-90.36,0-198-19.56-299-87.67-231.51-156.15-143.78-477.82-95.31-608.87,36.25-98,30.12-212.53-14.26-266.34-22.76-27.6-53.81-38.37-92.28-32.07-65.43,10.74-67.18,66.57-69,125.67-2,62.86-4,127.85-77.25,152.1-30.43,10.06-71.06-.18-103.48-26.12-33.1-26.48-86.52-92.36-72.34-236.1,12.5-126.76,98.73-220.49,225-244.61,120.47-23,278.69,25,360.62,184.09,86.27,167.48,36.43,299.82-11.77,427.79-33.59,89.18-65.31,173.42-46.09,262.31,16.48,76.19,54.3,131.29,112.42,163.78,81.53,45.59,199.7,43.25,341.77-6.72l1.66,4.72c-143.44,50.46-263,52.68-345.87,6.37-59.43-33.22-98.07-89.44-114.86-167.09-19.54-90.34,12.43-175.24,46.29-265.13,47.81-127,97.26-258.23,12-423.75C1191,1670.62,1035.16,1623.27,916.53,1646c-124,23.68-208.72,115.71-221,240.18C681.59,2027.53,733.71,2092,766,2117.84c31.14,24.92,69.93,34.83,98.79,25.28,69.92-23.15,71.9-86.37,73.82-147.51s3.74-119,73.23-130.44c39.81-6.52,73.32,5.16,96.95,33.81,51.75,62.75,46.4,186.6,15.08,271.26-48.05,129.94-135.14,448.83,93.43,603,233.86,157.73,504,52.59,506.71,51.51l1.86,4.64C1724.33,2830,1634.38,2865.05,1513.49,2865.05Z"/><path class="cls-2" d="M1725,2827.07s-271.3,108.58-509-51.76c-235.29-158.7-137.47-489.38-94.37-605.94,48.89-132.2,25.88-323.93-109.28-301.73-136.14,22.35-4.8,230.88-146.67,277.85-62.26,20.61-193.89-43.25-172.55-259.6,28.76-291.61,434.31-344.33,581-59.62s-104.76,473.65-58.08,689.49c39.44,182.39,204.06,248,457.46,158.89"/><path class="cls-3" d="M1513.49,2865.05c-90.36,0-198-19.56-299-87.67-231.51-156.15-143.78-477.82-95.31-608.87,36.25-98,30.12-212.53-14.26-266.34-22.76-27.6-53.81-38.37-92.28-32.07-65.43,10.74-67.18,66.57-69,125.67-2,62.86-4,127.85-77.25,152.1-30.43,10.06-71.06-.18-103.48-26.12-33.1-26.48-86.52-92.36-72.34-236.1,12.5-126.76,98.73-220.49,225-244.61,120.47-23,278.69,25,360.62,184.09,86.27,167.48,36.43,299.82-11.77,427.79-33.59,89.18-65.31,173.42-46.09,262.31,16.48,76.19,54.3,131.29,112.42,163.78,81.53,45.59,199.7,43.25,341.77-6.72l1.66,4.72c-143.44,50.46-263,52.68-345.87,6.37-59.43-33.22-98.07-89.44-114.86-167.09-19.54-90.34,12.43-175.24,46.29-265.13,47.81-127,97.26-258.23,12-423.75C1191,1670.62,1035.16,1623.27,916.53,1646c-124,23.68-208.72,115.71-221,240.18C681.59,2027.53,733.71,2092,766,2117.84c31.14,24.92,69.93,34.83,98.79,25.28,69.92-23.15,71.9-86.37,73.82-147.51s3.74-119,73.23-130.44c39.81-6.52,73.32,5.16,96.95,33.81,51.75,62.75,46.4,186.6,15.08,271.26-48.05,129.94-135.14,448.83,93.43,603,233.86,157.73,504,52.59,506.71,51.51l1.86,4.64C1724.33,2830,1634.38,2865.05,1513.49,2865.05Z"/><path class="cls-2" d="M1725,2827.06s-271.31,108.62-509-51.76c-235.28-158.71-137.47-489.38-94.38-605.93,42.76-115.71,30.52-276.92-63.77-300.53-13.45-3.39-28.62-4-45.5-1.21-136.16,22.36-4.78,230.87-146.69,277.86-62.24,20.63-193.86-43.23-172.53-259.58,16.28-164.88,153-253.41,295.24-247.71,109.36,4.31,222,64.33,285.69,188.07,146.65,284.71-104.72,473.65-58.06,689.5,39.47,182.36,204.06,248,457.47,158.89Z"/><path class="cls-3" d="M1513.47,2865.05c-90.35,0-198-19.56-299-87.68-231.47-156.14-143.78-477.81-95.32-608.87,31.31-84.74,31.26-185.44-.12-244.88-14.88-28.18-35.71-45.79-61.92-52.35-13.53-3.41-28.49-3.81-44.48-1.17-65.44,10.74-67.2,66.56-69,125.66-2,62.85-4,127.85-77.27,152.1-30.41,10.08-71-.15-103.44-26.07-33.1-26.48-86.53-92.35-72.36-236.13,7.75-78.42,42.79-144,101.34-189.54,53.81-41.89,123.48-63.39,196.5-60.42,121.6,4.8,229.19,75.61,287.81,189.42,86.27,167.5,36.43,299.84-11.77,427.82-33.57,89.18-65.29,173.41-46.08,262.3,16.49,76.18,54.32,131.28,112.45,163.77,81.53,45.58,199.71,43.25,341.75-6.71l2.39-.84,53.14,157-2.2.88C1724.33,2830,1634.38,2865.05,1513.47,2865.05ZM1033,1863.38a103.59,103.59,0,0,1,25.42,3c27.64,6.92,49.55,25.38,65.12,54.87,32,60.6,32.16,163,.38,248.94-48,129.95-135.1,448.84,93.44,603,222.68,150.22,478.11,62.1,504.5,52.35l-50-147.73c-142.38,49.64-261.1,51.57-343.46,5.53-59.43-33.22-98.09-89.44-114.89-167.09-19.53-90.32,12.44-175.22,46.29-265.1,47.81-127,97.25-258.26,12-423.78C1214,1715.22,1108,1645.42,988.2,1640.7c-132.9-5.35-276.06,77.27-292.66,245.45-13.94,141.43,38.19,205.89,70.51,231.73,31.12,24.89,69.89,34.8,98.74,25.23,69.94-23.15,71.92-86.37,73.84-147.51s3.74-119,73.24-130.43A129.91,129.91,0,0,1,1033,1863.38Z"/><path class="cls-4" d="M1057.77,1868.84c-13.45-3.39-28.62-4-45.5-1.21-136.16,22.36-4.78,230.87-146.69,277.86-62.24,20.63-193.86-43.23-172.53-259.58,16.28-164.88,153-253.41,295.24-247.71l-13.52,32.59a36,36,0,0,0,19.18,47h0a36,36,0,0,1,15.62,53.52l-4,5.84a36,36,0,0,0,4.8,46.39Z"/><path class="cls-3" d="M1514.66,2880.56c-88,0-201.5-18.44-308.58-90.66-240.39-162.13-150.75-492.23-101-626.63,34-91.85,28.81-202.32-11.74-251.49-19.09-23.15-45.39-32.14-78.18-26.77-50.7,8.32-54.33,45.77-56.39,111.23-1.94,61.66-4.35,138.4-87.6,166-35.16,11.63-81.35.38-117.67-28.67-35.49-28.39-92.81-98.54-77.93-249.38,13.18-133.69,104.09-232.53,237.23-258,126-24.08,291.38,26,376.89,192,89.34,173.45,36,315.08-11.07,440-32.77,87-63.74,169.24-45.45,253.79,15.52,71.76,50.85,123.51,105,153.79,77.64,43.39,191.54,40.71,329.39-7.79a17.6,17.6,0,1,1,11.69,33.21c-147.66,52-271.54,53.8-358.26,5.31-62.48-34.93-104.76-96.16-122.26-177.08-20.48-94.69,12.26-181.61,46.92-273.64,46.66-123.87,94.89-252,12.72-411.51-77.19-149.85-225.91-195.16-339-173.53-117.21,22.37-197.21,109.29-208.8,226.82-13.24,134.29,35,194.49,64.89,218.42,31,24.8,64.83,29.29,84.6,22.74,55.87-18.5,61.25-62.83,63.48-133.64,1.93-61.62,4.12-131.45,85.87-144.88,45.4-7.45,83.8,6.07,111.05,39.11,55.34,67.1,50.38,197.49,17.6,286.11-46.81,126.6-132,437.05,87.7,585.23,226.91,153,490.05,51.05,492.67,50a17.61,17.61,0,0,1,13.07,32.7c-2.87,1.14-71.5,28.24-170.63,35.46C1546.49,2879.93,1531,2880.56,1514.66,2880.56Z"/><g class="cls-5"><path class="cls-3" d="M1725,2827.06s-271.31,108.62-509-51.76c-235.28-158.71-137.47-489.38-94.38-605.93,42.76-115.71,30.52-276.92-63.77-300.53-13.45-3.39-28.62-4-45.5-1.21-136.16,22.36-4.78,230.87-146.69,277.86-62.24,20.63-193.86-43.23-172.53-259.58,4.36-44,17.25-82.51,36.55-115.25a297.93,297.93,0,0,0-5.66,35.8C702.61,2022.81,804,2069.8,857,2031.21c85.15-62,17.12-233.88,186.12-243,129.07-7,181,198.13,143.12,318.06-37.42,118.45-174.75,430.9,60.53,589.6,174.19,117.53,366.43,90.63,456.73,67.81Z"/></g><path class="cls-6" d="M1503.15,1323a15.17,15.17,0,0,0-20.14-10.91c-36.28,13.57-130.13,39.55-247.28,2.38-131.78-41.82-255.58,27.56-235.82,39.83h0s83.92,30.58,109.12,77.4c15.56,28.91,20,69.85,20.73,102.7.29,14.1,18.07,20.21,26.9,9.21,23.09-28.74,60-61.55,111-67,120.18-12.95,191.92-32.37,239.37-119.2a15.11,15.11,0,0,0,1.45-10.49Z"/><g class="cls-7"><path class="cls-2" d="M1507,1357.39a234,234,0,0,1-18.88,29.4,14.6,14.6,0,0,0,.31-7.65l-5.28-23.91a15.2,15.2,0,0,0-20.16-10.91c-36.27,13.6-130.11,39.57-247.28,2.38-83.33-26.46-163.43-8.46-206.08,11.53-6-2.56-9.69-3.88-9.69-3.88-19.76-12.28,104.05-81.64,235.79-39.83,117.17,37.15,211,11.18,247.28-2.38a15.16,15.16,0,0,1,20.16,10.92l5.28,23.86A14.87,14.87,0,0,1,1507,1357.39Z"/></g><g class="cls-5"><path class="cls-3" d="M1507,1357.39c-47.45,86.84-119.15,106.26-239.36,119.24-50.9,5.46-87.82,38.26-110.93,67-8.88,11-26.62,5-26.92-9.18-.7-32.84-5.19-73.79-20.73-102.72-12.59-23.41-39.88-42.78-64-56.25a348.41,348.41,0,0,0-45.12-21.13c-5-3.08-.86-9.77,10.17-17.4,36.89-25.52,87.89-15.49,113.45,21.37.43.62.84,1.23,1.25,1.84l.42.63c29.62,45.71,86,65.34,137.85,48.74a103.45,103.45,0,0,1,20.32-4.47c103.35-11.14,170.87-27.07,218-86.53a14.23,14.23,0,0,1,1.8,4.53l5.28,23.86A14.87,14.87,0,0,1,1507,1357.39Z"/></g><path class="cls-3" d="M1145.08,1566.93a33.27,33.27,0,0,1-10.7-1.79,32.47,32.47,0,0,1-22.23-30.33c-.86-40.92-7.3-73.67-18.62-94.72-16.91-31.42-70.6-58.29-99.65-69.21l-4.15-1.56L988,1367.4c-7.64-6.37-10-16.8-5.52-26.42,15-32.62,138.29-81.42,258.59-43.26,112.39,35.66,202.33,10.42,235.79-2.08a32.76,32.76,0,0,1,43.49,23.59l5.29,23.88a32.69,32.69,0,0,1-3.18,22.75c-54.33,99.41-142.85,116.39-252.93,128.26-45.69,4.92-79.12,35.65-99.13,60.56A32.37,32.37,0,0,1,1145.08,1566.93Zm-117.91-220.25c29.23,13.35,77.56,39.92,97.37,76.72,13.49,25.07,21.1,60.06,22.63,104.09,24.6-29,64.12-62.51,118.57-68.38,121.23-13.07,182.71-32,225.32-109.25l-4.49-20.28c-38.78,14.06-136.11,39.8-256.16,1.71C1141.73,1303.16,1059.22,1328.7,1027.17,1346.68Zm464.09,4h0Z"/><path class="cls-6" d="M1493.74,1286.21a16.67,16.67,0,0,0-8.84-23.58c-39.9-14.92-136.52-61.07-206.93-176.44-79.19-129.78-232-161.53-224.45-137.1h0c0,.06,47.59,85.93,34.72,143-8,35.21-33.77,72.42-56.9,100.18-9.92,11.91.42,29.81,15.68,27,39.9-7.19,94.24-7.76,140.47,24.43,109.08,76,182.62,111.61,284.65,73.79a16.65,16.65,0,0,0,8.77-7.67Z"/><g class="cls-7"><path class="cls-2" d="M1472.14,1317.48a258.85,258.85,0,0,1-36.88,10.78,16.07,16.07,0,0,0,5.78-6.13l12.86-23.65a16.7,16.7,0,0,0-8.86-23.6c-39.91-14.88-136.52-61-206.93-176.44-50.06-82.07-129.53-124.93-179.34-139.12-3.17-6.47-5.25-10.2-5.25-10.2-7.54-24.45,145.27,7.31,224.43,137.06,70.43,115.37,167,161.53,206.93,176.44a16.67,16.67,0,0,1,8.85,23.61l-12.83,23.61A16.36,16.36,0,0,1,1472.14,1317.48Z"/></g><g class="cls-5"><path class="cls-3" d="M1472.14,1317.48c-102,37.84-175.54,2.22-284.67-73.74-46.18-32.2-100.49-31.61-140.4-24.43-15.35,2.75-25.7-15.07-15.73-27,23.12-27.76,48.94-65,56.91-100.2,6.45-28.51-2.23-64.28-12.53-92.86a382.9,382.9,0,0,0-22.2-50.08c-1.89-6.15,6.34-8.74,21-7.11,49,5.44,84.11,50.56,78.73,99.6-.09.81-.18,1.62-.29,2.43,0,.26-.07.54-.11.82-8.39,59.3,24.22,116.25,79.24,139.9a113.71,113.71,0,0,1,20.09,11c93.81,65.32,161.34,100.81,243.33,85.44a15.45,15.45,0,0,1-1.78,5.07l-12.83,23.61A16.36,16.36,0,0,1,1472.14,1317.48Z"/></g><path class="cls-3" d="M1393.64,1350.08c-76.49,0-142.45-40.53-216.21-91.9-42-29.21-92.38-27.84-127.29-21.55a34.25,34.25,0,0,1-32.32-55.65c29-34.8,47.4-66.88,53.25-92.79,8.73-38.73-16.59-100.28-32.93-130.54l-2.52-4.67.19-2.88c-1.14-9.66,4-18.77,13.6-23.07,35.53-16,171.75,32.26,243.59,150,67.83,111.15,161.11,155.3,198.07,169.12a34.27,34.27,0,0,1,18.15,48.47l-12.84,23.65a34.13,34.13,0,0,1-18.1,15.76C1448.27,1345.14,1420.31,1350.08,1393.64,1350.08Zm-303.45-152.37c34.12,0,72.63,7.39,107.36,31.58,110.79,77.14,175.85,105.88,268,71.89l12.18-22.43c-41-15.5-141.86-63.83-214.81-183.39-55.11-90.31-146.1-127.87-184.18-135.06,14.55,31.37,36.94,90,26.64,135.65-7,31.22-26.85,66.73-58.88,105.56A261.94,261.94,0,0,1,1090.19,1197.71Zm403.56,88.5h0Zm-15.48-8.4Z"/><path class="cls-2" d="M2670.18,2780c-13.86,248.07-179.49,425.9-179.49,425.9s64,14.39,101.23,45.91v0c13.39,11.31,23.29,24.87,25.49,40.76,8.1,58.67-58.28,114.66-225.67,114.66-148,0-223.25-69-226.94-130s35.91-179.89,27.59-290.86a281.35,281.35,0,0,1-78.7,11.23h0a281.62,281.62,0,0,1-78.7-11.23c-.79,10.57-1.14,21.22-1.14,31.91,0,101.2,32.13,203.71,28.78,258.95-3.74,61.05-79,130-226.94,130-167.39,0-233.81-56-225.67-114.66,2.2-15.89,12.1-29.45,25.44-40.76,37.15-31.56,101.24-45.95,101.24-45.95S1571,3028.09,1557.16,2780c-6.82-122,3.83-239.62,23.24-346.71,23.59-130.55,60.21-245.43,94.06-333.51,15.1-39.39,29.62-73.37,42.21-101.06,23.9-52.64,40.72-82.35,40.72-82.35H2470s20.38,36.09,48.24,99.17c9.2,20.86,19.23,44.67,29.62,71.13,34.95,89,73.82,207.88,98.6,343.8C2666.18,2538.33,2677.05,2657,2670.18,2780Z"/><path class="cls-3" d="M2391.74,3409.79c-145.37,0-225.45-66.59-229.44-132.37-1.56-25.83,4.47-61.47,11.46-102.75,9.66-57.12,20.6-121.75,16.36-185a285.49,285.49,0,0,1-152.89,0c-.61,9.14-.93,18.77-.93,28.66,0,54.17,9.2,108.45,17.32,156.33,7,41.28,13,76.93,11.47,102.77-4,65.78-84.14,132.37-229.44,132.37-101.8,0-176.36-21.24-210-59.81-14.79-17-21.08-36.93-18.19-57.7,2.08-15,10.92-29.28,26.29-42.32,32.2-27.34,83.33-41.73,98.21-45.49-22-25-164.59-196-177.35-424.3-6.2-111,1.63-227.87,23.28-347.3,20.12-111.33,51.81-223.69,94.19-334,13.34-34.81,27.56-68.86,42.27-101.2,23.67-52.14,40.64-82.25,40.81-82.55l.72-1.27h715.49l.71,1.27c.21.36,20.77,36.92,48.35,99.39,10.26,23.26,20.24,47.23,29.67,71.23,44.56,113.54,77.78,229.37,98.73,344.26,22,120.31,30,238.11,23.8,350.13h0c-12.76,228.26-155.38,399.26-177.34,424.3,14.86,3.76,66,18.14,98.2,45.45l.88.8c14.86,12.81,23.42,26.79,25.46,41.56,2.87,20.78-3.43,40.74-18.23,57.72C2568.05,3388.56,2493.5,3409.79,2391.74,3409.79Zm-197.09-426.64.24,3.07c4.86,64.84-6.33,131-16.21,189.29-6.93,41-12.92,76.35-11.39,101.6,3.84,63.45,82.17,127.68,224.45,127.68,100.3,0,173.51-20.62,206.14-58.07,13.82-15.86,19.72-34.45,17-53.75-1.91-13.81-10.19-27-24.62-39.19l-.89-.79c-36.43-30.25-98.65-44.49-99.28-44.63l-4.25-1,3-3.19c1.65-1.77,165.17-180.05,178.83-424.33,6.23-111.61-1.76-229-23.73-348.94-20.89-114.58-54-230.09-98.47-343.34-9.4-23.93-19.35-47.84-29.58-71-24.62-55.75-43.59-90.74-47.42-97.68H1758.86c-3.44,6.21-19,34.95-39.91,80.89-14.67,32.25-28.85,66.21-42.15,100.92-42.27,110-73.88,222-93.94,333.05-21.58,119.06-29.39,235.51-23.21,346.13,13.66,244.28,177.19,422.56,178.84,424.33l3,3.19-4.25,1c-.63.14-63.92,14.63-100.16,45.41-14.41,12.22-22.67,25.41-24.58,39.2-2.68,19.29,3.2,37.87,17,53.73,32.63,37.46,105.84,58.09,206.18,58.09,142.21,0,220.56-64.23,224.45-127.68,1.53-25.27-4.47-60.65-11.41-101.62-8.15-48.08-17.39-102.58-17.39-157.17,0-11.13.4-21.93,1.16-32.1l.23-3.07,3,.86a280.42,280.42,0,0,0,156,0Z"/><g class="cls-5"><path class="cls-3" d="M2391.74,3407.29c-148,0-223.25-69-226.94-130s35.91-179.89,27.59-290.86c-24.29,7.09-53.21,10.83-78.74,11.18a14,14,0,0,1-1.45,0,20.19,20.19,0,0,1-2.91,0,279.27,279.27,0,0,1-74.34-11.14c-.79,10.57-1.14,21.22-1.14,31.91,0,101.2,32.13,203.71,28.78,258.95-3.74,61.05-79,130-226.94,130-167.39,0-233.81-56-225.67-114.66,2.2-15.89,12.1-29.45,25.44-40.76-1.36,19.76,6.82,55.5,76.06,77.42,99.47,31.48,283.64-9.28,279.94-98s-100.23-209.6-112.9-307.67c0,0,156.34,6.72,233.68,7.11,77.42-.44,236.67-7.11,236.67-7.11-12.72,98.07-109.25,218.94-112.94,307.67s180.46,129.5,279.94,98c69.23-21.92,77.42-57.66,76.05-77.42,13.39,11.31,23.29,24.87,25.49,40.76C2625.51,3351.3,2559.13,3407.29,2391.74,3407.29Z"/></g><g class="cls-5"><path class="cls-8" d="M2113.65,2997.59v0a14.05,14.05,0,0,1-1.45,0A14,14,0,0,0,2113.65,2997.59Z"/><path class="cls-3" d="M2116.15,3000.14h-2.5c-.56,0-1.12,0-1.68-.06l.22-2.44h-1l1,0,.22-2.52a3.75,3.75,0,0,0,.67,0h3.06Z"/></g><g class="cls-5"><path class="cls-8" d="M2112.2,2997.59c-1,0-1.94,0-2.91,0v-.09A20.19,20.19,0,0,0,2112.2,2997.59Z"/><path class="cls-3" d="M2109.29,3000.14h-2.5v-5.24l2.73.16a20.53,20.53,0,0,0,2.48,0h.09l.22,5h0C2111.28,3000.14,2110.28,3000.14,2109.29,3000.14Z"/></g><path class="cls-3" d="M2391.72,3424.91c-154.69,0-240.09-73.74-244.5-146.59-1.67-27.56,4.49-64,11.64-106.17,8.61-50.81,18.23-107.63,17-163.43a298.77,298.77,0,0,1-124.34,0c-1.24,55.8,8.38,112.62,17,163.43,7.15,42.18,13.31,78.61,11.64,106.17-4.41,72.85-89.81,146.59-244.5,146.59-136.12,0-195.48-35.35-221.31-65-17.76-20.38-25.3-44.49-21.8-69.72,7.21-52.09,73.66-81.1,112.89-93.81-44.53-55.23-154.4-211-165.83-415.39-25.92-463.27,200.19-869.23,202.47-873.28a17.61,17.61,0,1,1,30.66,17.32c-2.24,4-223.3,401.3-198,854,13.37,239,173.21,413.16,174.82,414.89l20.91,22.46-29.94,6.72c-27.62,6.24-107.71,32.86-113.12,71.93-2.09,15,2.44,29.1,13.47,41.76,17.21,19.76,65.41,52.91,194.76,52.91,131.52,0,206-58.49,209.36-113.51,1.42-23.53-4.44-58.11-11.22-98.16-9.53-56.25-21.38-126.25-16.38-192.94l1.62-21.66,20.86,6.08a263.61,263.61,0,0,0,147.6,0l20.86-6.08,1.62,21.66c5,66.69-6.85,136.69-16.38,192.94-6.78,40-12.64,74.63-11.22,98.16,3.34,55,77.84,113.51,209.36,113.51,129.36,0,177.55-33.15,194.76-52.91,11-12.66,15.56-26.71,13.47-41.76-5.41-39.07-85.5-65.69-113.13-71.93l-29.89-6.75,20.87-22.43c1.61-1.73,161.48-176.4,174.82-414.89,25.32-452.69-195.74-850-198-854a17.61,17.61,0,1,1,30.66-17.32c2.29,4,228.39,410,202.47,873.28-11.43,204.38-121.3,360.16-165.83,415.39,39.23,12.71,105.68,41.72,112.89,93.81,3.5,25.23-4,49.34-21.8,69.72C2587.2,3389.56,2527.84,3424.91,2391.72,3424.91Z"/><path class="cls-3" d="M1878.5,2923.59c14.85,2,28.63,5.47,42.34,9s26.87,8,40.12,12.11,26.41,8.22,39.5,12.27c13,4.22,26.11,7.92,39,12.39l.41.14a17.63,17.63,0,0,1-9.34,33.92,278.36,278.36,0,0,1-41.78-12.34,423.27,423.27,0,0,1-39.52-17.54,334.78,334.78,0,0,1-37.31-21.61C1900.06,2943.63,1888.53,2934.78,1878.5,2923.59Z"/><path class="cls-3" d="M2349,2923.59c-10,11.19-21.56,20-33.38,28.36a334.78,334.78,0,0,1-37.31,21.61,423.27,423.27,0,0,1-39.52,17.54,278.36,278.36,0,0,1-41.78,12.34,17.63,17.63,0,0,1-9.34-33.92l.41-.14c12.85-4.47,25.91-8.17,39-12.39,13.09-4,26.29-8,39.5-12.27s26.48-8.44,40.11-12.11S2334.13,2925.57,2349,2923.59Z"/><path class="cls-2" d="M1398.84,2362.76s171,132.11,370.71,41.68"/><path class="cls-3" d="M1625.52,2438.33c-131,0-226.93-72.6-228.21-73.59l3.06-4c1.7,1.31,172.14,130.11,368.15,41.38l2.06,4.55A348.49,348.49,0,0,1,1625.52,2438.33Z"/><path class="cls-2" d="M1769.54,2404.44c-68.32,30.94-133.28,35.83-189.14,28.87-107.53-13.38-181.56-70.56-181.56-70.56,21.39-133.14,127.16-232.31,219.77-299.3,36.79-26.63,71.52-48.16,98.06-64.71,2.69-1.62,5.24-3.25,7.71-4.79l15.49,140.85Z"/><path class="cls-3" d="M1623.91,2454c-133.71,0-230.42-73.15-235.84-77.33l-8.27-6.4,1.66-10.33c30.85-192.15,228.33-315.29,323.24-374.47L1715,1979a17.61,17.61,0,0,1,18.69,29.85l-10.4,6.49c-88.64,55.27-271.11,169.05-305.17,339.4,36.06,23.82,181.17,107.41,344.13,33.63a17.61,17.61,0,1,1,14.52,32.08C1722.84,2444.92,1671.07,2454,1623.91,2454Z"/><path class="cls-2" d="M2809.26,2362.76s-171,132.11-370.71,41.68"/><path class="cls-3" d="M2582.58,2438.33a348.46,348.46,0,0,1-145.06-31.62l2.06-4.55c196.12,88.79,366.46-40.07,368.16-41.38l3.05,4C2809.51,2365.73,2713.52,2438.33,2582.58,2438.33Z"/><path class="cls-2" d="M2809.27,2362.75s-65.54,50.62-162.85,67.74c-59.91,10.57-131.79,8.41-207.89-26l29.93-271.76L2483.73,1994c10.17,6.33,21.79,13.55,34.47,21.61,20.07,12.67,42.74,27.46,66.42,44.37C2678.37,2127,2787.53,2227.27,2809.27,2362.75Z"/><path class="cls-3" d="M2584.19,2454c-47.17,0-98.92-9.1-152.9-33.54a17.61,17.61,0,0,1,14.52-32.08c162.94,73.77,308-9.78,344.13-33.63-34.06-170.35-216.54-284.14-305.17-339.4l-10.39-6.49a17.61,17.61,0,0,1,18.69-29.85l10.33,6.46c94.91,59.17,292.39,182.31,323.25,374.47l1.66,10.33-8.28,6.4C2814.62,2380.87,2717.88,2454,2584.19,2454Z"/><g class="cls-5"><path class="cls-3" d="M2584.62,2059.93q-17.7,13.86-36.8,26.76a661.69,661.69,0,0,1-79.36,46c-3.48,1.72-7,3.39-10.56,5.07-80.55,37.72-397.86,149.65-718-2.95q-32.74-15.59-65.41-35-28-16.64-55.85-36.35c36.79-26.63,71.52-48.16,98.06-64.71,23.9-52.64,40.72-82.35,40.72-82.35H2470s20.38,36.09,48.24,99.17C2538.27,2028.23,2560.94,2043,2584.62,2059.93Z"/></g><path class="cls-2" d="M2839.87,1598.79c9.61,54.17,37.33,107.21,35.36,124.73-4.1,35.45-83.27-6.8-83.27-6.8s-4.68,11.1,11.12,42.84c11.74,23.6,22.06,40.87,17.17,53.53-5.22,13.46-28.24,16.2-55.06,13.08-18.81-2.18-34.75.24-55.57,22.67a161.9,161.9,0,0,0-12.8,15.47.18.18,0,0,1-.13,0l0,0c-62.36,72-138.25,138.27-238.77,185.32-93.27,43.64-504.1,186.88-869.16-96.5-46.49-36.09-88.23-77.68-120.23-128.7-7.89-2.26-15.64-2.22-24-1.33-26.85,3-49.87.24-55-13.31-4.81-12.64,4-31.39,14.69-55.64,8.68-19.54,12.13-31.79,13.37-37.25.3-1.38-.84-2.53-2-2-13.79,6.92-77.14,36.71-80.69,5.12-1.95-17.54,26.07-70.43,35.88-124.6,16.09-88.39,28.72-150.6,36.75-188.13.19-1,.41-2.05.68-3.07s.41-2,.59-2.93.46-1.91.64-2.85c2.4-10.93,5.12-21.74,8.14-32.51,13.77-49.83,33.51-99.23,58.68-155.14-36.3-62.93-189.35-342.82-105.79-449.08,47.72-60.69,373.87,60.51,445.24,88.08,78.13-37.54,166.73-60.59,265.13-64.76q29.82-1.27,58.42-.08a5,5,0,0,1,1.45,0c64.07,2.39,121.49,18.91,176.64,38.2,6.48,2.31,12.91,4.62,19.35,6.93a598.4,598.4,0,0,1,74.4,33c72.26-25.2,410.43-139.47,456.13-77.29,79.81,108.54-80.91,381.83-119.83,444.79,9.43,20.56,17.79,40.86,25.18,61.37a636.66,636.66,0,0,1,22.09,74.94s.06.43.27,1.35c1.64,7.08,9.49,41.71,21.95,105.78C2823.33,1507.65,2831.09,1549.07,2839.87,1598.79Z"/><g class="cls-5"><path class="cls-3" d="M2803.07,1759.55c11.75,23.63,22,40.89,17.17,53.52-5.2,13.47-28.22,16.2-55.07,13.12-18.79-2.21-34.72.22-55.54,22.66a161.71,161.71,0,0,0-12.81,15.45.16.16,0,0,1-.13,0l-.05,0c-62.37,72-138.25,138.3-238.78,185.31-93.23,43.66-504.07,186.89-869.14-96.48-46.48-36.1-88.25-77.69-120.25-128.71-7.88-2.24-15.62-2.2-24-1.32-26.85,3-49.87.22-55-13.29-4.79-12.68,4-31.43,14.71-55.64,1.54-3.52,2.94-6.77,4.13-9.86,9.82,2.16,22.49,2.12,36.18.58,8.37-.88,16.11-.93,24,1.32,32,51.06,73.77,92.65,120.25,128.74,365.07,283.38,775.91,140.11,869.14,96.49,100.53-47.06,176.41-113.3,238.78-185.31l.05,0a.16.16,0,0,0,.13,0,167.76,167.76,0,0,1,12.81-15.49c20.82-22.45,36.75-24.87,55.54-22.67,12.11,1.41,23.42,1.63,32.71.22C2799.29,1751.62,2801,1755.41,2803.07,1759.55Z"/></g><path class="cls-4" d="M2794.9,1368.41c1.64,7.08,9.49,41.71,21.95,105.78-160.11,32.32-338,29-460.32-87.19-214.82-204.08-108.4-450.31-39.22-563.73,6.48,2.31,12.91,4.62,19.35,6.93a598.4,598.4,0,0,1,74.4,33c72.26-25.2,410.43-139.47,456.13-77.29,79.81,108.54-80.91,381.83-119.83,444.79,9.43,20.56,17.79,40.86,25.18,61.37a636.66,636.66,0,0,1,22.09,74.94S2794.69,1367.49,2794.9,1368.41Z"/><path class="cls-3" d="M1772.45,2067.77c-31.67-9.87-62.4-22.87-92.18-37.85-14.8-7.64-29.44-15.66-43.75-24.27s-28.29-17.76-42-27.35-27-19.7-40.11-30.36-25.59-22-37.65-34a453.63,453.63,0,0,1-64.35-79.39l10.84,8.15a36.74,36.74,0,0,0-12.4-1.09c-1.21.06-2.53.17-3.81.3l-4.91.48c-3.42.3-6.91.54-10.45.66a123.32,123.32,0,0,1-22.23-1.07,71.56,71.56,0,0,1-12.45-3,45.69,45.69,0,0,1-13.89-7.34,35.83,35.83,0,0,1-11.6-16,41.74,41.74,0,0,1-2.16-16.53c.66-9.68,3.09-16.92,5.44-23.61s5.08-12.7,7.68-18.58L1390,1740c2.31-5.44,4.47-10.91,6.32-16.3.92-2.69,1.77-5.37,2.48-7.92l.5-1.87.2-.82a20.2,20.2,0,0,0-.35,3,16.2,16.2,0,0,0,.63,4.94,16.63,16.63,0,0,0,7,9.42,17.28,17.28,0,0,0,14.85,1.87,15.78,15.78,0,0,0,1.76-.71c.38-.19,0,0,.09,0l-.25.12-.49.24-1.07.51a260.78,260.78,0,0,1-37.74,14.89,124.05,124.05,0,0,1-21.63,4.57,63.18,63.18,0,0,1-13,.21,39.9,39.9,0,0,1-16.29-4.88,31.62,31.62,0,0,1-13.78-16.17,38,38,0,0,1-2.17-9c-.08-1.48-.12-3-.12-4.46l0-2.23c0-.68.12-1.15.19-1.73,1.13-9.22,3.27-15.47,5.3-21.93,4.15-12.71,8.63-24.3,12.77-36s8.07-23.19,11.41-34.73c1.62-5.77,3.14-11.55,4.45-17.31s2.34-11.36,3.59-17.71l7.23-37,29.24-149.11-.28,1.24c1.8-9,4.19-17.3,6.26-26l3.23-12.89,3.59-12.64q7.45-25.23,16.5-49.8c12-32.78,25.6-64.65,39.73-96.11l.8,16q-29.84-52-55.33-106c-17-36.08-32.63-72.92-45.82-110.9s-24-77.14-29.23-118.16c-2.52-20.5-3.33-41.61-.89-63.09s8.76-43.61,21.7-63.07l5-7.19c1-1.35,2.56-3,3.87-4.4s2.86-2.58,4.33-3.83a62.29,62.29,0,0,1,18.15-9.57c12-4.12,23.12-5.2,34-5.83,21.63-.86,42.08,1.26,62.23,4.14,40.22,6,79,15.53,117.44,26.07,76.72,21.42,151.56,47.28,225.66,75.63l-14,.55a682.41,682.41,0,0,1,79.33-32,705.53,705.53,0,0,1,82.68-21.61,733.45,733.45,0,0,1,84.58-11.36,720.2,720.2,0,0,1,85.32-1.63l-3,.13a29.43,29.43,0,0,1,6.5.1l-2.12-.2a486.54,486.54,0,0,1,73,8.51,661.72,661.72,0,0,1,70.51,18c11.53,3.55,22.88,7.33,34.23,11.27s22.3,7.83,33.86,12.24a621.35,621.35,0,0,1,66.35,30.18l-14-1c75.52-26.14,151.73-50,229.59-69.44,39-9.59,78.33-18.14,118.86-23.42,20.31-2.51,40.86-4.34,62.42-3.46,10.82.6,21.82,1.57,33.57,5a70.78,70.78,0,0,1,18,7.8,52.87,52.87,0,0,1,8.89,7,46.31,46.31,0,0,1,4,4.52,14.45,14.45,0,0,1,1.48,2l1.2,1.85c13.35,19.55,19.78,42.16,22.13,63.81s1,43.1-1.88,63.77c-6.08,41.33-18.18,80.54-32.59,118.41s-31.3,74.55-49.56,110.39-38,70.81-59.07,105.1l1-16.59c20.45,44.6,37.45,91.36,48.42,139.72l.28,1.5,23.11,111.87,21,113.5,2.61,13.59c.95,4.41,2,8.83,3.12,13.24,2.24,8.84,5,17.69,7.8,26.56,5.75,17.89,12.6,35.22,18.76,54.82a109.1,109.1,0,0,1,3.94,16.76,41.15,41.15,0,0,1,0,12.32,32,32,0,0,1-1.84,6.89,30,30,0,0,1-3.73,7.1,31.17,31.17,0,0,1-12.38,10.25,37.12,37.12,0,0,1-6.5,2.34,56,56,0,0,1-5.88,1.07,69.88,69.88,0,0,1-19.31-.87,163.65,163.65,0,0,1-31-9.07,286.34,286.34,0,0,1-28.14-12.75l24.52-8.69.33-.86.12-.33.13-.43.11-.42.07-.32c0-.12,0,.06,0,.19a14.46,14.46,0,0,0,0,1.66,39.32,39.32,0,0,0,.79,5,79,79,0,0,0,3.85,12c1.61,4.17,3.56,8.28,5.68,12.59l6.9,13.7c2.35,4.72,4.74,9.58,7,15a77.11,77.11,0,0,1,5.58,19.3,42.55,42.55,0,0,1-.48,13.47,34.57,34.57,0,0,1-6.83,14.36c-7,8.32-15.16,11.42-21.85,13.51-13.62,3.74-25.16,3.44-36.56,2.93-2.82-.18-5.63-.41-8.4-.71l-3.56-.34c-1.09-.12-2.05-.12-3.08-.2a37.16,37.16,0,0,0-10.43.85c-6,1.37-11.89,5-18.07,10.66-2.91,2.74-6.32,6.3-9.1,9.51s-5.74,7-8.55,10.79l-.61.83-.77.81a19.09,19.09,0,0,1-5.94,4.26,19.32,19.32,0,0,1-7.1,1.71l13-6c-7.88,9.08-16.76,19-25.57,28.43-4.5,4.67-8.89,9.44-13.48,14s-9.21,9.15-14,13.57q-14.1,13.44-29.08,26c-9.93,8.4-20.11,16.51-30.64,24.15s-21.16,15.15-32.22,22c-10.95,7-22.23,13.46-33.71,19.52a434.17,434.17,0,0,1-71.41,30.27,5.92,5.92,0,0,1-5-10.61l0,0c21.3-13.81,42.23-27.58,62.45-42.2q15.15-11,29.87-22.35c9.76-7.69,19.44-15.42,28.92-23.39s18.77-16.17,27.93-24.5,18.06-17,26.91-25.63,17.4-17.66,26-26.62,16.65-18,25.47-28.09l13-6a18.61,18.61,0,0,0-7,1.67,18.35,18.35,0,0,0-5.81,4.2l-1.37,1.65c3.28-4.39,6.71-8.82,10.63-13.16a172.11,172.11,0,0,1,12.38-12.38,94.75,94.75,0,0,1,15.56-11.21,68.16,68.16,0,0,1,19.48-7.45c13.84-3.2,27.87-.32,35.62.14,8.94.63,18.21.44,24.38-1.3a18.53,18.53,0,0,0,4.24-1.74c-.14.2-.5.86-.31.63a8.57,8.57,0,0,0,0-1.79,42.35,42.35,0,0,0-3.1-10c-1.66-4-3.77-8.34-6-12.78l-6.9-13.71c-2.41-4.86-4.84-10-6.94-15.38a114.1,114.1,0,0,1-5.45-17.23,72,72,0,0,1-1.55-10.14,51.09,51.09,0,0,1-.09-6c.07-1.15.15-2.25.35-3.63.12-.7.2-1.29.41-2.21l.34-1.35.27-.89.18-.56.42-1.08,6.82-17.71,17.69,9c15.38,7.84,33.27,15.43,48.45,18.17a37.14,37.14,0,0,0,9.35.6,5.51,5.51,0,0,0,1.45-.3c.05,0-1,.54-1.38,1.27-.27.3-.34.71-.44.73,0,.29,0,.08,0,0a9.42,9.42,0,0,0-.19-2c0-1.16-.7-3.4-1-5.1l-1.73-6.12c-5.33-17-12.52-35.46-18.54-54.12-3-9.41-5.94-18.9-8.42-28.67-1.27-4.87-2.41-9.81-3.48-14.78l-2.82-14.68-20.88-113-23.41-113.7.27,1.5c-10.35-45.65-26.42-90-46.1-132.9l-3.92-8.55,4.95-8c20.53-33.36,39.83-67.68,57.66-102.59s34.21-70.54,48-106.9,25.17-73.53,30.63-110.84c2.65-18.61,3.69-37.27,1.75-55s-7-34.32-16.14-47.68c-3.59-8.41-21.9-12.24-39.74-13-18.16-.77-37.34.83-56.41,3.21-38.27,5-76.69,13.27-114.82,22.67-76.28,19.07-151.88,42.69-226.47,68.51l-7.25,2.5-6.75-3.55a588,588,0,0,0-62.59-28.48c-10.5-4-21.86-8-32.79-11.85s-22-7.48-33.07-10.89a627.41,627.41,0,0,0-66.75-17,452.19,452.19,0,0,0-67.64-7.91l-2.13-.21a9,9,0,0,0,3.59,0l-3,.13a685.48,685.48,0,0,0-81.17,1.56,699.13,699.13,0,0,0-80.46,10.8,671.5,671.5,0,0,0-78.43,20.5,647.71,647.71,0,0,0-75.11,30.26l-6.87,3.27-7.1-2.72c-73-27.94-147.31-53.59-222.36-74.53-37.52-10.31-75.39-19.58-113.13-25.17-18.81-2.72-37.73-4.54-55.5-3.8-8.75.45-17.42,1.54-24.09,3.91a27.83,27.83,0,0,0-7.94,4c-.37.38-.83.71-1.2,1s-.52.55-1,1.15l-3.38,5c-9,13.39-14.12,30-16.07,47.69s-1.42,36.24.88,54.8c4.72,37.19,14.86,74.42,27.54,110.81s27.81,72.25,44.4,107.42,34.65,69.79,54,103.46l4.49,7.81-3.69,8.21c-13.92,31-27.24,62.15-38.75,93.72q-8.68,23.67-15.8,47.69l-3.43,12.06-3,12c-1.9,8-4.25,16.15-5.81,23.94l-.27,1.24-28.67,146.55-7.21,36.91c-1.19,6-2.45,12.75-3.91,19.21s-3.16,12.83-4.9,19.16c-3.56,12.6-7.65,24.87-11.85,36.89s-8.64,23.87-12.2,35.06c-1.79,5.47-3.34,11.31-3.66,14.58,0,.19-.09.5-.09.6a.31.31,0,0,1,0,.12.29.29,0,0,1-.08.25c.1.17.09.4,0,.09a4.91,4.91,0,0,0-1.83-2.15c-.52-.26.21.11,1.67.2a27.65,27.65,0,0,0,5.79-.2,85,85,0,0,0,15.1-3.43,225.26,225.26,0,0,0,32.08-13.16l1-.52.57-.29.28-.14.35-.17a21.18,21.18,0,0,1,2-.82,19.82,19.82,0,0,1,25.39,13.46,20.34,20.34,0,0,1,.77,6.11,22,22,0,0,1-.54,4.14l-.34,1.47-.68,2.69c-.93,3.5-1.94,6.82-3,10.08-2.15,6.52-4.53,12.76-7.05,18.9l-7.57,17.58c-2.42,5.62-4.69,11.14-6.56,16.28s-3.1,10-3.23,12.9a4.44,4.44,0,0,0,.11,2,3.45,3.45,0,0,0-.62-1.09c.23.44,4.19,2,8.6,2.6a86.72,86.72,0,0,0,15.34.63c2.73-.1,5.51-.29,8.33-.55l4.46-.45c1.85-.19,3.66-.34,5.58-.45a74.72,74.72,0,0,1,24.91,2.44l7.06,2,3.78,6.11c16.47,26.59,36.27,51.15,58.12,74,10.93,11.43,22.54,22.27,34.5,32.79s24.31,20.7,37,30.57,25.47,19.67,38.67,28.9,26.45,18.43,40.09,27.08c27.12,17.58,55.26,33.71,84,49.16a5.9,5.9,0,0,1-4.53,10.83Z"/><path class="cls-6" d="M2807,1424.92a7331.19,7331.19,0,0,0-1403.35.57c1.37-6.56,2.64-12.63,3.83-18.14q.27-1.51.66-3c.22-1,.44-2,.62-3s.44-1.89.61-2.82c2.43-11,5.15-21.74,8.15-32.53,10.74-38.82,25.09-77.42,42.82-119a7333.62,7333.62,0,0,1,1294.2-.14h0c6.52,15.1,12.5,30.11,18,45.25a645.83,645.83,0,0,1,22.1,74.92,10.9,10.9,0,0,0,.26,1.36C2796.05,1373.37,2800.28,1392,2807,1424.92Z"/><g class="cls-7"><path class="cls-2" d="M2807,1424.91c-4.53-.44-9.07-.88-13.6-1.27-1.45-6.61-2.42-10.92-2.91-13a10.9,10.9,0,0,1-.26-1.36,645.25,645.25,0,0,0-22.1-74.92l-.16-.45a71.51,71.51,0,0,0-64.3-46.88c-174.6-7.51-798.11-31.49-1133.8-7-73.59,5.37-136.57,55.82-156.39,126.89l-.37,1.33c-1.54,5.55-3,11.14-4.4,16.73-1.67.18-3.39.31-5.06.48,1.36-6.55,2.64-12.63,3.83-18.13.17-1,.39-2,.66-3s.44-2,.61-3,.44-1.89.62-2.81c2.42-11,5.15-21.75,8.14-32.53,10.74-38.82,25.09-77.42,42.83-119a7333.51,7333.51,0,0,1,1294.19-.13h.05c6.51,15.1,12.5,30.1,17.95,45.25a645.09,645.09,0,0,1,22.1,74.91,11.18,11.18,0,0,0,.26,1.37C2796.07,1373.37,2800.29,1392,2807,1424.91Z"/></g><g class="cls-5"><path class="cls-3" d="M2807,1424.91a7332,7332,0,0,0-1403.35.57c1.36-6.55,2.64-12.63,3.83-18.13.17-1,.39-2,.66-3s.44-2,.61-3,.44-1.89.62-2.81c2.42-11,5.15-21.75,8.14-32.53,1-3.7,2.07-7.4,3.22-11.14a7326.36,7326.36,0,0,1,1370.86-.44q1.59,6.27,3,12.59a11.18,11.18,0,0,0,.26,1.37C2796.07,1373.37,2800.29,1392,2807,1424.91Z"/></g><path class="cls-3" d="M1381.56,1445.31l4.87-23.4c1.34-6.49,2.61-12.5,3.79-18q.33-1.87.81-3.75c.17-.74.33-1.52.46-2.21s.28-1.37.47-2.16l.23-1.07c2.39-10.8,5.13-21.73,8.37-33.44,10.19-36.85,24-75.37,43.6-121.22l4.13-9.7,10.51-.93a7370.6,7370.6,0,0,1,1296.53-.2h10.79l4.64,10.63c6.88,15.95,12.88,31.08,18.35,46.25a658.47,658.47,0,0,1,22.69,76.94l.47,2,0,0c1.42,6.18,5.56,24.58,12,56.21l4.77,23.32-23.7-2.27a7331,7331,0,0,0-1400,.57Zm45.06-43.15c-.12.57-.25,1.15-.38,1.73l-.15.63c-.07.4-.15.79-.23,1.18a7367.12,7367.12,0,0,1,1359.06-.54c-3.9-18.49-6.35-29.26-7.17-32.8-.2-.86-.34-1.56-.43-2.11A625.44,625.44,0,0,0,2756,1298.1c-4.12-11.42-8.55-22.82-13.47-34.61a7336.29,7336.29,0,0,0-1270.07.13c-16.78,40.13-28.9,74.39-38,107.1C1431.44,1381.75,1428.86,1392,1426.62,1402.16Z"/><path class="cls-9" d="M1671.67,965.78c-15.65,11.32-54.34,70.15-83.9,117.33-43.63-66.55-65.15-167.77-68.8-214.67,0-.52-.09-1-.12-1.52,42.17,12.61,90.06,30.63,100.31,42.42C1637.52,930.41,1698.57,946.42,1671.67,965.78Z"/><path class="cls-3" d="M1587.82,1087.74l-2.14-3.26c-43.34-66.1-65.44-167.47-69.2-215.84l-.39-5.15,3.48,1c39.85,11.91,90.34,30.37,101.47,43.17,6.24,7.15,17.89,13.86,29.16,20.35,16.2,9.32,30.2,17.38,30.69,27.25.23,4.43-2.38,8.64-7.76,12.51-12,8.66-41.54,50.08-83.24,116.62Zm-66.18-217.36c4.15,48,25.32,143.74,66.1,208.07,29.45-46.85,66.84-103.4,82.46-114.7h0c3.91-2.81,5.83-5.57,5.69-8.19-.36-7.16-14.51-15.3-28.19-23.18-11.63-6.69-23.66-13.61-30.44-21.4C1607.77,900.06,1563,882.94,1521.64,870.38Z"/><path class="cls-10" d="M1567,1122.94c33.23-62.27,67.94-107.18,92.82-135.29a44.71,44.71,0,0,0-10.33-67.92c-55.19-33.41-116.62-53.59-156-64.21a34.29,34.29,0,0,0-43.17,33.39c.21,38.71,5.78,99.12,31.85,162.59,13.77,33.49,27.33,57.28,38.62,73.76C1532.26,1142,1557.39,1140.84,1567,1122.94Z"/><path class="cls-3" d="M1559.22,1118.81a719.62,719.62,0,0,1,49-86.28c9.17-13.85,18.81-27.42,29-40.61l7.85-9.77c1.25-1.54,2.84-3.38,3.82-4.68a31.23,31.23,0,0,0,2.3-3.4,28.55,28.55,0,0,0,4-15.3,28.18,28.18,0,0,0-4.44-14.88A28.48,28.48,0,0,0,1646,938c-1-.76-2-1.64-3-2.32-1.25-.7-1.81-1.23-3.84-2.29-13.64-7.71-27.86-14.49-42.21-21-28.8-12.89-58.84-23.35-89.24-32.44-7.56-2.2-15.4-4.37-22.82-6.26a12.16,12.16,0,0,0-8.88,1.09,11.82,11.82,0,0,0-5.61,7,8.93,8.93,0,0,0-.42,2.28l-.05.6,0,.31v3.64c0,3.9.08,7.79.14,11.69a459.69,459.69,0,0,0,11.57,92.89,396.79,396.79,0,0,0,13,45.06,461.73,461.73,0,0,0,17.58,44c3.3,7.15,6.68,14.26,10.37,21.17q2.76,5.21,5.69,10.26l2.93,4.88a19.62,19.62,0,0,0,2,2.8,16,16,0,0,0,13,5.17,17.39,17.39,0,0,0,13.29-7.59Zm15.33,8.18a36.48,36.48,0,0,1-25,20,38.44,38.44,0,0,1-32.4-8c-1.09-1-2.22-1.93-3.24-3l-2.84-3.34-3.92-5.25c-2.52-3.45-4.94-6.94-7.29-10.47-4.7-7.07-9.21-14.24-13.34-21.61a479.78,479.78,0,0,1-22.39-45.3,432.53,432.53,0,0,1-16.88-48,442.14,442.14,0,0,1-16-100.44c-.13-4.25-.29-8.51-.31-12.77l0-3.2v-.79l.05-1.23.14-2.45a47.23,47.23,0,0,1,1.64-9.74,51.13,51.13,0,0,1,62-36c8.35,2.25,16.2,4.55,24.26,7a621,621,0,0,1,93.55,36.92,461.08,461.08,0,0,1,44.14,24.88c1.56.9,4.25,2.85,6.4,4.41a80.89,80.89,0,0,1,6.3,5.55,62.18,62.18,0,0,1,9.92,13.48,60.2,60.2,0,0,1,7.39,31.93,59.32,59.32,0,0,1-10.22,30.81,62.05,62.05,0,0,1-5,6.41c-1.61,1.85-2.77,3-4.18,4.57l-8,8.87c-10.66,11.86-20.86,24.19-30.66,36.87a786.81,786.81,0,0,0-53.93,80Z"/><path class="cls-10" d="M2656.73,1132.2c-30-59-61.33-102.21-84.21-129.82A44.71,44.71,0,0,1,2585,934.83c59.62-33.51,125.78-51.93,164.84-60.73a31.46,31.46,0,0,1,38.42,29.6c1.31,40-5.27,109.25-51.12,189-10,17.46-19.34,31.87-27.45,43.51C2696.33,1155.41,2667.35,1153.1,2656.73,1132.2Z"/><path class="cls-3" d="M2648.93,1136.16a781.85,781.85,0,0,0-52-80.58c-9.51-12.79-19.42-25.25-29.79-37.22l-3.87-4.5-2-2.26-2.47-3.16a60.13,60.13,0,0,1,3-75.68,59.9,59.9,0,0,1,12.54-10.87c2.53-1.73,4.18-2.6,6-3.67l5.47-3.17a476,476,0,0,1,45-22.57,626.67,626.67,0,0,1,94.52-32.63l12.11-3.08c4.35-.94,7-2,14.53-3a51.31,51.31,0,0,1,37,11.15,50.75,50.75,0,0,1,18.58,33.8c.15,1.55.32,3.44.36,4.7l0,3.25c0,2.17.1,4.35,0,6.51-.05,4.33-.13,8.65-.37,13a312,312,0,0,1-6.77,51,347.42,347.42,0,0,1-14.07,49.12,434.48,434.48,0,0,1-20.56,46.4c-4,7.44-8.09,14.79-12.51,21.94s-8.8,14.11-13.39,21.07-9.47,13.65-14.43,20.34l-3.76,5-1.91,2.49-2.76,3.23a40.72,40.72,0,0,1-13.71,10,42.46,42.46,0,0,1-32.27.91,40.53,40.53,0,0,1-22.34-21.51Zm15.48-7.86c6.36,10.35,20.28,12.69,28.58,7.11a18.29,18.29,0,0,0,5.25-5l1-1.51,1.55-2.51,3.08-5.08c4.08-6.79,7.93-13.73,11.8-20.65,15.43-27.84,28.28-56.12,37.45-85.76s14.72-60,15.62-90.42c.17-3.79.19-7.58.19-11.36,0-1.9-.07-3.77-.1-5.66l-.06-2.83-.15-1.36a11.45,11.45,0,0,0-4.41-7.67,12.17,12.17,0,0,0-8.5-2.45c-.5-.06-5.71,1.12-9.27,1.93L2735,897.87a739.68,739.68,0,0,0-90.15,28.38c-14.58,5.82-29.05,11.89-43,18.87l-5.22,2.64c-1.73.87-3.69,1.84-4.52,2.41a26.53,26.53,0,0,0-6.11,4.61,29.06,29.06,0,0,0-7.5,13.47A30.57,30.57,0,0,0,2579,984a31.28,31.28,0,0,0,3.56,7.28l1.14,1.73,1.9,2.46,3.79,4.94c10,13.32,19.28,27,28.15,41a718.7,718.7,0,0,1,47,86.82Z"/><path class="cls-3" d="M2194,1721.14c-.52,14.76-25.2,32.27-47.74,45.23a68.11,68.11,0,0,1-72-2.57c-21.56-14.54-44.92-33.76-44.39-48.52,1-27.27,37.49-23.93,82.82-22.31S2195,1693.86,2194,1721.14Z"/><g class="cls-7"><path class="cls-2" d="M2150.79,1715.88c-.07,2-7.86,4-16.5,5.72-13.05,2.57-32.42,1.88-45.25-1.61-8.49-2.31-16.12-4.93-16.05-6.88.16-4.39,17.49-3.44,39-2.67S2151,1711.5,2150.79,1715.88Z"/></g><g class="cls-11"><path class="cls-3" d="M1671.67,965.78c-15.65,11.32-54.34,70.15-83.9,117.33-43.63-66.55-65.15-167.77-68.8-214.67,0-.52-.09-1-.12-1.52,42.17,12.61,90.06,30.63,100.31,42.42C1637.52,930.41,1698.57,946.42,1671.67,965.78Z"/></g><g class="cls-11"><path class="cls-3" d="M2561.34,980.14c15.27,11.82,52,71.87,80.06,120,45.76-65.1,70.54-165.57,75.69-212.33.06-.52.13-1,.18-1.52-42.57,11.25-91,27.71-101.63,39.16C2596.6,945.89,2535.07,959.92,2561.34,980.14Z"/></g><path class="cls-3" d="M2226.28,1758.17a51.07,51.07,0,0,1,8.47,13.32,60,60,0,0,1-.24,49.64,59.54,59.54,0,0,1-25.1,27.37A67.41,67.41,0,0,1,2173,1857a74.65,74.65,0,0,1-35-10.72,56,56,0,0,1-7.63-5.27,55.18,55.18,0,0,1-6.93-6.22l-3.24-3.36c-1-1.13-1.83-2.27-2.74-3.4a68.16,68.16,0,0,1-5.07-7,107.52,107.52,0,0,1-13.75-30.86,116,116,0,0,1-3.31-16.22c-.41-2.73-.69-5.47-.87-8.28-.12-1.38-.16-2.83-.21-4.25s-.06-2.71,0-4.92l.72-16.53,17-.12h.11l16.83-.12.85,16.77c.11,2.21.09,3.35.09,4.92s-.06,2.87-.16,4.26c-.15,2.81-.36,5.56-.71,8.3a110.21,110.21,0,0,1-3.15,16.31,103.13,103.13,0,0,1-13.72,31.06,68.77,68.77,0,0,1-5.12,7c-.92,1.14-1.78,2.28-2.77,3.42l-3.28,3.36a57.09,57.09,0,0,1-7,6.17,61.67,61.67,0,0,1-7.7,5.27,76.7,76.7,0,0,1-35.18,10.63,68.36,68.36,0,0,1-36.6-8.28,60,60,0,0,1-25.89-27.2,59.17,59.17,0,0,1-5.22-17.25,62.16,62.16,0,0,1,.23-17.36,56.19,56.19,0,0,1,5-15.74,46.37,46.37,0,0,1,9.19-13.18,3.08,3.08,0,0,1,5.27,2.12v.44a96.07,96.07,0,0,0,3.55,25.83,51.47,51.47,0,0,0,10,18.89,36.57,36.57,0,0,0,14.19,10.93,38.32,38.32,0,0,0,17.88,2.47,45.58,45.58,0,0,0,18-5.74c5.54-3.12,9.89-7.19,14.39-13.18a65.51,65.51,0,0,0,9.86-19.66,75,75,0,0,0,2.62-11.17c.32-1.89.56-3.8.69-5.66l.15-2.76,0-2.1,17.69,16.64H2112l17.68-16.64,0,2.1.1,2.76c.1,1.87.27,3.8.53,5.7a69.78,69.78,0,0,0,2.45,11.25,62,62,0,0,0,9.84,19.86,44.69,44.69,0,0,0,14.67,13.15,48.37,48.37,0,0,0,18.19,5.65c12.82,1.12,24.37-2.77,33.07-13,2.4-2.46,4.13-5.58,6-8.74a68.45,68.45,0,0,0,4.16-10.7,86.65,86.65,0,0,0,2.39-25.85l0-.38a3,3,0,0,1,2.87-3.2A3.1,3.1,0,0,1,2226.28,1758.17Z"/><path class="cls-12" d="M3037.19,2223c-22,34.16-80,20.71-129.56-.88-18-7.85-33.54-18.08-45.38-29.23-58,79.64-97.48,161.42-262.5,233.83-114.81,50.37-259.12,50-326.87,12.27a13.26,13.26,0,0,1-3.76-20.21l56.9-67a13.24,13.24,0,0,0-7.72-21.59l-96.16-39.88c-8-3.76-13.13-11.9-9.4-19.44,36.26-73.32,150.18-147.05,267.85-177.37,127.72-32.9,266.7-10.68,352.91,20.75,2-16.49,7.53-34.71,16.72-52.66,24.64-48.12,80.81-107.48,116.23-86.12,41.75,25.19,3.86,86.84-20.74,135l-.06.12a9.57,9.57,0,0,0,4.68,13.2l.17.07C3000,2145.38,3058.51,2189.87,3037.19,2223Z"/><g class="cls-13"><path class="cls-2" d="M2966.46,1975.45c11.39,6.85,16.84,16.46,18.25,27.73-35.53-16.82-89.44,40.7-113.42,87.6-9.2,18-14.77,36.16-16.73,52.67-86.22-31.45-225.2-53.67-352.93-20.75C2386.18,2152.45,2274.3,2224,2235.9,2296l-13.75-5.72c-8-3.75-13.15-11.91-9.42-19.44,36.26-73.29,150.18-147,267.86-177.35,127.73-32.92,266.71-10.7,352.9,20.74,2-16.5,7.53-34.71,16.73-52.68C2874.86,2013.43,2931,1954.05,2966.46,1975.45Z"/></g><g class="cls-5"><path class="cls-3" d="M3016.26,2165.06c20.83,19,32.39,40.13,20.92,57.88-22,34.17-80,20.71-129.54-.87-18-7.83-33.55-18.08-45.39-29.22-58,79.63-97.46,161.42-262.52,233.84-114.8,50.37-259.12,49.94-326.87,12.26a13.25,13.25,0,0,1-3.73-20.2l12.9-15.19c75,22.8,194.81,16.88,293-26.21,147.39-64.67,204.54-141.48,256.38-213.9,8.92-12.46,26.94-12.92,37-1.39a40,40,0,0,0,14.48,10.7c49.56,21.58,107.53,35,129.54.88A28.41,28.41,0,0,0,3016.26,2165.06Z"/></g><path class="cls-3" d="M2405.92,2483.88c-55.34,0-106-9.73-141.59-29.55a30.84,30.84,0,0,1-8.62-47l52.81-62.19-93.9-38.95c-9.08-4.29-16-11.72-19-20.39A29.32,29.32,0,0,1,2197,2263c38.27-77.38,153.09-154.11,279.24-186.61,122.58-31.58,254.28-14.17,343.89,14.6a188.27,188.27,0,0,1,14.47-37.5c20.74-40.5,61.32-87.08,98.74-97.73,15.41-4.4,30-2.81,42.25,4.57,52.06,31.39,17.87,96.74-7.1,144.46q-1.65,3.18-3.29,6.3c37.8,17.85,81.76,48.6,91.92,82.2,4.22,13.94,2.46,27.49-5.08,39.18h0c-16.45,25.54-56.06,47.24-151.39,5.73a187.92,187.92,0,0,1-35-19.82c-3.76,5.35-7.48,10.71-11.14,16-49.05,70.57-99.78,143.54-247.68,208.44C2544.84,2470,2472,2483.88,2405.92,2483.88ZM2286.06,2426c62,31,194,34,306.61-15.43,138.81-60.91,184.52-126.67,232.92-196.3,7.23-10.4,14.71-21.16,22.43-31.77l11.76-16.15,14.55,13.7c10.76,10.14,24.71,19.09,40.33,25.9,55,24,95.32,26.76,107.73,7.48h0c1.41-2.18,2.5-4.89,1-9.92-5.71-18.88-40.06-46.21-79.91-63.58a27.18,27.18,0,0,1-13.43-37.53c2.31-4.54,4.75-9.18,7.22-13.9,24.81-47.43,42-84.76,20.11-98-2.4-1.45-6.5-3.11-14.43-.86-26.46,7.54-59.95,46.56-77,79.92-8,15.56-13.13,31.71-14.92,46.73l-2.64,22.06-20.87-7.6C2743.18,2100,2609,2078.56,2485,2110.51c-112.86,29.07-218.77,97.63-254.43,164.18l93.09,38.6a30.86,30.86,0,0,1,15.81,49.82Zm-4.68-2.47,0,0ZM3037.19,2223h0Zm-75.76-104.63a.25.25,0,0,0,0,.07A.25.25,0,0,1,2961.43,2118.33Z"/><path class="cls-3" d="M2506.74,2464.56a8.8,8.8,0,0,1-8.46-11.26c52.93-181.44-75.94-335.83-77.25-337.34l6.61-5.78,0-.09,5.35-7c1.52,1.16,139,160.41,82.25,355.13A8.82,8.82,0,0,1,2506.74,2464.56Zm-74.56-347h0Z"/><path class="cls-3" d="M2530.14,2324.32q-5.85,0-12-.33l-1.36-.07.17-8.49-6.81-6.23c2.84-3.11,6.08-2.94,8.92-2.79,34.68,1.79,60.83-4.86,73.51-18.83,8.23-9.08,11-21.3,8.61-37.36-1.94-12.79-7.13-21.13-15.87-25.48-24-11.92-69.64,7.42-85.23,15.89a8.8,8.8,0,0,1-8.39-15.48c2.61-1.42,64.51-34.56,101.46-16.17,14.06,7,22.62,20,25.45,38.6,3.22,21.32-1.14,38.76-13,51.82C2590.73,2315.79,2564.79,2324.32,2530.14,2324.32Zm-6.94-3.34h0Z"/><path class="cls-3" d="M2574.24,2281.92c-.47.11-1,.22-1.45.28l-1,.16-1.93.3-3.82.56-7.63,1.1-15.26,2.13-30.52,4.18a8.86,8.86,0,0,1-2.4-17.55,9.62,9.62,0,0,1,1.85-.06h.09l60.76,4.8.94.08a2,2,0,0,1,.34,4Z"/><path class="cls-3" d="M2987.9,2201.43a119.31,119.31,0,0,1-20.62-1,177.88,177.88,0,0,1-20.16-4,170.18,170.18,0,0,1-19.52-6.19,110,110,0,0,1-18.47-9.05,1.61,1.61,0,0,1,1.11-2.95h0c6.75,1,13.29,2.61,19.82,4.15s12.95,3.31,19.37,5.1l19.33,5,19.46,4.67.06,0a2.14,2.14,0,0,1,1.59,2.59A2.17,2.17,0,0,1,2987.9,2201.43Z"/><path class="cls-3" d="M2967.43,2173.58c-6.51-.3-13-.92-19.42-1.76s-12.84-1.84-19.21-3.07-12.72-2.52-19-4.12a142.92,142.92,0,0,1-18.6-6.12,1.61,1.61,0,0,1,.59-3.09h0a142.28,142.28,0,0,1,19.55,1.13c6.42.82,12.8,1.83,19.12,3.13s12.65,2.63,18.93,4.19,12.53,3.37,18.72,5.49l.09,0a2.15,2.15,0,0,1-.8,4.19Z"/><path class="cls-3" d="M2879.64,2118.6l12.32-15.78,12-16c3.91-5.4,7.92-10.73,12-16.06s8.28-10.58,12.91-15.6l0,0a1.61,1.61,0,0,1,2.7,1.61,111.06,111.06,0,0,1-8.8,18.59,170,170,0,0,1-11.42,17,176.53,176.53,0,0,1-13.27,15.68,119.72,119.72,0,0,1-15.5,13.64,2.16,2.16,0,0,1-3-3.07Z"/><path class="cls-3" d="M2878.05,2084.33c3.53-5.52,7.29-10.82,11.22-16s8-10.18,12.2-15.07,8.5-9.73,13-14.36a143.49,143.49,0,0,1,14.58-13.07l0,0a1.62,1.62,0,0,1,2.26.32,1.6,1.6,0,0,1,.13,1.73,142.59,142.59,0,0,1-10.74,16.38c-3.92,5.17-8,10.21-12.3,15.07s-8.62,9.69-13.11,14.37-9.18,9.18-14.09,13.48a2.16,2.16,0,0,1-3.24-2.78Z"/><path class="cls-3" d="M2559.63,2243.26,2509.45,2268a8.87,8.87,0,1,1-7.86-15.9,9.33,9.33,0,0,1,2-.7l54.77-12.23a2.14,2.14,0,0,1,1.42,4Z"/><path class="cls-3" d="M2406.91,2199.8c4.68,2.46,1.8,17.62-6.34,35.79,17,10.31,28,21.14,25.56,25.82s-17.61,1.81-35.78-6.33c-10.31,17-21.15,28-25.83,25.56s-1.81-17.62,6.34-35.78c-17.07-10.33-28-21.11-25.56-25.83s17.57-1.83,35.78,6.34C2391.39,2208.33,2402.19,2197.33,2406.91,2199.8Z"/><path class="cls-12" d="M1170.91,2223c22,34.16,80,20.71,129.56-.88,18-7.85,33.54-18.08,45.38-29.23,58,79.64,97.48,161.42,262.5,233.83,114.81,50.37,259.13,50,326.87,12.27a13.26,13.26,0,0,0,3.77-20.21l-56.91-67a13.24,13.24,0,0,1,7.72-21.59l96.16-39.88c8-3.76,13.13-11.9,9.41-19.44-36.27-73.32-150.19-147.05-267.86-177.37-127.72-32.9-266.69-10.68-352.9,20.75-2-16.49-7.54-34.71-16.73-52.66-24.64-48.12-80.81-107.48-116.23-86.12-41.75,25.19-3.86,86.84,20.74,135l.06.12a9.57,9.57,0,0,1-4.68,13.2l-.17.07C1208.07,2145.38,1149.59,2189.87,1170.91,2223Z"/><g class="cls-13"><path class="cls-2" d="M1241.65,1975.45c-11.4,6.85-16.85,16.46-18.26,27.73,35.53-16.82,89.45,40.7,113.42,87.6,9.2,18,14.77,36.16,16.73,52.67,86.22-31.45,225.2-53.67,352.93-20.75C1821.92,2152.45,1933.81,2224,1972.2,2296l13.75-5.72c8-3.75,13.15-11.91,9.43-19.44-36.27-73.29-150.19-147-267.87-177.35-127.73-32.92-266.71-10.7-352.9,20.74-2-16.5-7.53-34.71-16.73-52.68C1333.24,2013.43,1277.07,1954.05,1241.65,1975.45Z"/></g><g class="cls-5"><path class="cls-3" d="M1191.84,2165.06c-20.83,19-32.38,40.13-20.92,57.88,22,34.17,80,20.71,129.54-.87,18-7.83,33.55-18.08,45.39-29.22,58,79.63,97.46,161.42,262.52,233.84,114.8,50.37,259.12,49.94,326.87,12.26a13.25,13.25,0,0,0,3.73-20.2l-12.9-15.19c-75,22.8-194.81,16.88-293-26.21-147.39-64.67-204.54-141.48-256.38-213.9-8.92-12.46-26.94-12.92-37-1.39a39.94,39.94,0,0,1-14.48,10.7c-49.56,21.58-107.52,35-129.54.88A28.41,28.41,0,0,1,1191.84,2165.06Z"/></g><path class="cls-3" d="M1802.21,2483.89c-66.1,0-138.93-13.89-200.93-41.09-147.9-64.9-198.63-137.87-247.68-208.44-3.65-5.25-7.37-10.61-11.14-16a187.92,187.92,0,0,1-35,19.82c-95.33,41.53-134.94,19.8-151.39-5.73h0c-7.54-11.69-9.3-25.24-5.08-39.18,10.17-33.65,54.23-64.42,91.92-82.21l-3.3-6.3c-25-47.71-59.15-113.06-7.09-144.45,12.23-7.38,26.85-9,42.26-4.57,37.42,10.65,78,57.23,98.73,97.73A188.27,188.27,0,0,1,1388,2091c89.61-28.78,221.31-46.18,343.89-14.6,126.14,32.5,241,109.23,279.24,186.61a29.27,29.27,0,0,1,1.38,22.78c-3,8.67-10,16.1-19.06,20.39l-.77.34-93.11,38.61,52.82,62.2a30.85,30.85,0,0,1-8.7,47C1908.12,2474.16,1857.52,2483.89,1802.21,2483.89Zm-453.89-317.55,11.76,16.15c7.72,10.61,15.2,21.37,22.43,31.77,48.4,69.63,94.11,135.39,232.92,196.3C1728.09,2460,1860.17,2457,1922.05,2426l-53.39-62.87a30.86,30.86,0,0,1,15.8-49.83l93.09-38.6c-35.66-66.56-141.57-135.11-254.43-164.18-124-32-258.2-10.5-342.48,20.24l-20.88,7.6-2.64-22.06c-1.79-15-6.95-31.17-14.92-46.73-17.08-33.36-50.56-72.38-77-79.92-7.93-2.24-12-.58-14.43.86-21.93,13.23-4.69,50.55,20.12,98,2.47,4.72,4.9,9.37,7.21,13.9a27.18,27.18,0,0,1-13.26,37.47c-40,17.44-74.36,44.77-80.08,63.65-1.52,5-.43,7.74,1,9.92,12.42,19.28,52.69,16.49,107.73-7.48,15.62-6.81,29.57-15.76,40.34-25.9Zm578.34,257.22h0Zm-679.87-305s0,.05,0,.08S1246.8,2118.57,1246.79,2118.54Z"/><path class="cls-3" d="M1701.36,2464.56a8.8,8.8,0,0,1-8.44-6.33c-56.24-192.81,80.65-353.88,82.16-355.07l5.43,6.93-4.41,7.62,4.41-7.62,6.56,5.88c-1.32,1.5-130.2,155.81-77.25,337.33a8.8,8.8,0,0,1-8.46,11.26Z"/><path class="cls-3" d="M1678,2324.32c-34.65,0-60.59-8.53-75.45-24.92-11.85-13.06-16.21-30.5-13-51.82,2.82-18.62,11.38-31.61,25.44-38.6,37-18.38,98.85,14.75,101.47,16.17a8.81,8.81,0,0,1-8.4,15.48c-15.61-8.45-61.36-27.76-85.24-15.88-8.74,4.35-13.93,12.68-15.86,25.47-2.44,16.06.38,28.28,8.61,37.36,12.67,14,38.79,20.61,73.51,18.83,2.84-.16,6-.32,8.9,2.76l-13,11.84,6.57-5.87-.16,8.78-1.35.07Q1683.81,2324.32,1678,2324.32Z"/><path class="cls-3" d="M1635.14,2277.83l60.76-4.8h0a8.85,8.85,0,1,1,1.4,17.65,9.23,9.23,0,0,1-1.9,0l-30.52-4.18-15.25-2.13-7.64-1.1-3.82-.56-1.93-.3-1-.16c-.42-.06-1-.17-1.44-.28a2,2,0,0,1,.32-4Z"/><path class="cls-3" d="M1219.85,2197.16l19.46-4.67,19.34-5c6.41-1.79,12.87-3.46,19.37-5.1s13.06-3.11,19.81-4.15h0a1.61,1.61,0,0,1,1.11,2.95,110,110,0,0,1-18.47,9.05,170.18,170.18,0,0,1-19.52,6.19,178.15,178.15,0,0,1-20.15,4,119.47,119.47,0,0,1-20.63,1,2.16,2.16,0,0,1-.41-4.25Z"/><path class="cls-3" d="M1240,2169.36c6.19-2.12,12.44-3.92,18.72-5.49s12.58-3,18.93-4.19,12.7-2.31,19.12-3.13a142.28,142.28,0,0,1,19.55-1.13h0a1.61,1.61,0,0,1,.59,3.09,142.42,142.42,0,0,1-18.6,6.12c-6.29,1.6-12.62,3-19,4.12s-12.78,2.21-19.21,3.07-12.9,1.46-19.42,1.76a2.15,2.15,0,0,1-.8-4.19Z"/><path class="cls-3" d="M1325.53,2121.72a119.15,119.15,0,0,1-15.51-13.64,178.23,178.23,0,0,1-13.27-15.68,170,170,0,0,1-11.42-17,111.06,111.06,0,0,1-8.8-18.59,1.6,1.6,0,0,1,1-2,1.58,1.58,0,0,1,1.7.43l0,0c4.62,5,8.76,10.33,12.9,15.6s8.07,10.66,12,16.06l12,16,12.31,15.78,0,.05a2.16,2.16,0,0,1-3,3.07Z"/><path class="cls-3" d="M1326.87,2087.19c-4.91-4.3-9.59-8.81-14.09-13.48s-8.9-9.44-13.12-14.37-8.38-9.9-12.3-15.07a142.59,142.59,0,0,1-10.74-16.38,1.61,1.61,0,0,1,.66-2.18,1.63,1.63,0,0,1,1.73.13l0,0a141.38,141.38,0,0,1,14.58,13.07c4.52,4.63,8.87,9.4,13,14.36s8.26,9.93,12.2,15.07,7.69,10.44,11.22,16l0,.08a2.15,2.15,0,0,1-3.23,2.78Z"/><path class="cls-3" d="M1649.74,2239.18l54.78,12.23a8.86,8.86,0,1,1-3.87,17.3,9.47,9.47,0,0,1-2-.7l-50.18-24.75-.14-.07a2.14,2.14,0,0,1,1.41-4Z"/><path class="cls-3" d="M1801.2,2199.8c-4.68,2.46-1.81,17.62,6.33,35.79-17,10.31-28,21.14-25.56,25.82s17.62,1.81,35.78-6.33c10.31,17,21.15,28,25.83,25.56s1.81-17.62-6.34-35.78c17.07-10.33,28-21.11,25.56-25.83s-17.57-1.83-35.78,6.34C1816.71,2208.33,1805.92,2197.33,1801.2,2199.8Z"/><path class="cls-2" d="M2550.36,2551.2c-33.39-15-130-85.3-115.52-196.82,16.22-125.2,134.78-141,171.78-134.79,117.32,19.56,132.59,170,202.64,143.17,0,0,31.41,120.58-76.5,183.42C2658.16,2589.62,2583.76,2566.23,2550.36,2551.2Z"/><path class="cls-3" d="M2640.39,2573.46c-40.19,0-73.71-12.18-91-20h0c-35-15.75-131.64-86.21-117-199.42,5.91-45.6,25.62-81.11,58.57-105.56,41-30.4,91.9-35.42,116.1-31.38,61.62,10.28,95.86,56.5,123.36,93.64,25.65,34.62,45.92,62,78,49.66l2.61-1,.7,2.71c.32,1.22,30.63,123.14-77.66,186.2A183.68,183.68,0,0,1,2640.39,2573.46Zm-89-24.54c36.18,16.27,107.69,37.27,180.11-4.9,96.16-56,79.63-160,75.94-178-34.08,11.14-55.89-18.34-81.06-52.33-27-36.41-60.54-81.73-120.17-91.68-22.49-3.74-72.87,1.2-112.3,30.46-31.82,23.61-50.86,58-56.58,102.19-14.29,110.22,79.93,178.86,114.06,194.22Z"/><g class="cls-5"><path class="cls-3" d="M2732.77,2546.17c-74.6,43.44-149,20.07-182.4,5-33.14-14.87-128.43-84.15-115.85-194.1,27.25,52.51,75.54,85.56,97.24,95.29,33.4,15,107.79,38.43,182.4-5,39-22.71,59.86-53,70.47-82.4,7.52,1.77,15.62,1.24,24.64-2.2C2809.27,2362.75,2840.66,2483.36,2732.77,2546.17Z"/></g><path class="cls-3" d="M2640.48,2588.58c-43,0-78.81-13-97.34-21.32h0c-37.66-17-141.6-92.85-125.76-215.14,6.46-49.82,28.18-88.77,64.55-115.76,44.74-33.19,100.79-38.6,127.59-34.14,67.64,11.29,103.89,60.22,133,99.55,28.35,38.28,40.92,52,60.42,44.55l18.38-7.05,5,19.05c.35,1.34,33.4,134.31-84.68,203.07A198.43,198.43,0,0,1,2640.48,2588.58Zm-82.9-53.43c33.53,15.07,99.73,34.6,166.32-4.19,72.72-42.35,74.39-114.86,71-147.27-34.43,1.43-57.9-30.24-80.66-61-26.67-36-56.9-76.82-110.5-85.76-20.05-3.34-65.15,1.21-100.82,27.68-28.4,21.08-45.42,52-50.6,92-13.33,102.88,79.65,167,105.28,178.51Z"/><path class="cls-3" d="M1960,1563.94a18.91,18.91,0,0,1-5.76-.9l-14.77-4.74-217.18-80.61a18.93,18.93,0,0,1,13.16-35.5l216.79,80.46,13.5,4.31a18.94,18.94,0,0,1-5.74,37Z"/><path class="cls-3" d="M1721.47,1603.32c5.28,76.61,58.72,127.9,119.38,114.57s105.55-86.24,100.28-162.85q-.51-7.35-1.6-14.38L1764,1475.47C1735.28,1506.83,1718.09,1554.3,1721.47,1603.32Z"/><ellipse class="cls-2" cx="1796.4" cy="1558.37" rx="44.99" ry="26.98" transform="translate(-70.49 3031.56) rotate(-79.22)"/><ellipse class="cls-2" cx="1867.83" cy="1633.09" rx="22.51" ry="13.48" transform="translate(12.44 3280.3) rotate(-82.76)"/><path class="cls-2" d="M1657.29,2551.2c33.39-15,130-85.3,115.51-196.82-16.22-125.2-134.77-141-171.78-134.79-117.32,19.56-132.58,170-202.64,143.17,0,0-31.4,120.58,76.5,183.42C1549.49,2589.62,1623.89,2566.23,1657.29,2551.2Z"/><path class="cls-3" d="M1567.26,2573.46a183.71,183.71,0,0,1-93.64-25.13c-108.29-63.06-78-185-77.66-186.2l.71-2.71,2.6,1c32.09,12.29,52.34-15,78-49.66,27.5-37.14,61.73-83.36,123.35-93.64,24.2-4,75.14,1,116.11,31.38,33,24.45,52.66,60,58.56,105.56,14.67,113.21-82,183.66-117,199.42h0C1641,2561.28,1607.44,2573.46,1567.26,2573.46Zm-167-207.4c-3.7,18-20.22,122,75.93,178,72.44,42.18,143.95,21.18,180.12,4.9,34.13-15.36,128.34-84,114.06-194.22-5.72-44.2-24.76-78.58-56.58-102.19-39.43-29.25-89.8-34.2-112.31-30.46-59.62,9.95-93.19,55.27-120.15,91.68C1456.1,2347.71,1434.27,2377.21,1400.21,2366.06Z"/><g class="cls-5"><path class="cls-3" d="M1474.87,2546.17c74.61,43.44,149,20.07,182.4,5,33.15-14.87,128.44-84.15,115.85-194.1-27.24,52.51-75.53,85.56-97.23,95.29-33.41,15-107.79,38.43-182.4-5-39-22.71-59.86-53-70.47-82.4-7.53,1.77-15.62,1.24-24.65-2.2C1398.37,2362.75,1367,2483.36,1474.87,2546.17Z"/></g><path class="cls-3" d="M1567.16,2588.58A198.38,198.38,0,0,1,1466,2561.39c-118.08-68.76-85-201.73-84.68-203.07l5-19.05,18.38,7.05c19.54,7.5,32.09-6.28,60.44-44.56,29.12-39.32,65.36-88.25,133-99.54,26.77-4.47,82.85.94,127.59,34.15,36.38,27,58.09,65.93,64.54,115.75,15.85,122.28-88.09,198.19-125.75,215.14h0C1646,2575.59,1610.19,2588.58,1567.16,2588.58Zm-154.53-204.9c-3.62,32.41-2.23,104.57,71.12,147.28,66.59,38.79,132.78,19.26,166.31,4.19h0c25.63-11.54,118.61-75.64,105.28-178.51-5.18-40-22.2-70.92-50.6-92-35.68-26.47-80.76-31-100.82-27.68-53.61,8.93-83.84,49.75-110.51,85.76C1470.63,2353.49,1447.21,2385.2,1412.63,2383.68Zm244.66,167.52h0Z"/><path class="cls-3" d="M2463.21,2319.82a49,49,0,0,0,1,5.82c.42,2.1.95,4.25,1.47,6.39,1.1,4.29,2.3,8.62,3.7,12.91a261.65,261.65,0,0,0,9.68,25.65c3.77,8.4,7.8,16.83,12.46,24.94s9.66,16.13,15,24c-7.47-5.85-14.92-11.93-21.93-18.55a290.93,290.93,0,0,1-20.35-20.87,283.73,283.73,0,0,1-18.42-23.2c-2.92-4.05-5.69-8.25-8.4-12.55-1.33-2.17-2.66-4.34-3.94-6.62s-2.49-4.36-3.88-7.41l-.86-1.9a18.07,18.07,0,0,1,32.87-15A18.38,18.38,0,0,1,2463.21,2319.82Z"/><path class="cls-3" d="M2496.69,2259.36c3.19,8.65,7.48,18.16,11.81,27.1s9.21,18,14.34,26.71,10.71,17.28,16.66,25.61a268,268,0,0,0,19.49,24,273.63,273.63,0,0,1-25.81-17.86c-8.28-6.5-16.38-13.38-24.06-20.7s-15.22-14.9-22.42-22.83-14-15.9-20.93-25.17l0,0a17.79,17.79,0,0,1,28.54-21.26A18.18,18.18,0,0,1,2496.69,2259.36Z"/><path class="cls-3" d="M2561,2221.29a251.08,251.08,0,0,0,10.16,24.23c3.84,8.15,8,16.22,12.5,24.14a352.27,352.27,0,0,0,30.69,45.87,362.11,362.11,0,0,1-44.44-34.87q-10.57-9.61-20.48-20.12a281.44,281.44,0,0,1-19.35-22.4l-.16-.21a17.86,17.86,0,1,1,28.37-21.69A18.33,18.33,0,0,1,2561,2221.29Z"/><path class="cls-3" d="M1776.59,2330.34c-1.39,3-2.55,5.06-3.87,7.41s-2.62,4.45-4,6.62c-2.71,4.3-5.47,8.5-8.39,12.55a281.71,281.71,0,0,1-18.43,23.2A290.93,290.93,0,0,1,1721.6,2401c-7,6.62-14.45,12.7-21.92,18.55,5.35-7.88,10.48-15.79,15-24a274.72,274.72,0,0,0,12.46-24.94,261.73,261.73,0,0,0,9.69-25.65c1.39-4.29,2.6-8.62,3.69-12.91.53-2.14,1.06-4.29,1.48-6.39a53.45,53.45,0,0,0,1-5.82,18.07,18.07,0,1,1,34.5,8.56Z"/><path class="cls-3" d="M1740.43,2276.2c-6.91,9.27-13.69,17.12-20.94,25.17s-14.69,15.53-22.42,22.83-15.78,14.2-24.06,20.7a272.34,272.34,0,0,1-25.81,17.86,268,268,0,0,0,19.49-24c6-8.33,11.56-16.82,16.66-25.61s9.93-17.66,14.34-26.71,8.62-18.45,11.81-27.1a17.79,17.79,0,1,1,31,16.72Z"/><path class="cls-3" d="M1676.14,2238.14a283.57,283.57,0,0,1-19.36,22.4q-9.91,10.49-20.48,20.12a361.35,361.35,0,0,1-44.44,34.87,353.36,353.36,0,0,0,30.7-45.87c4.49-7.92,8.65-16,12.49-24.14a248.58,248.58,0,0,0,10.16-24.23,17.86,17.86,0,1,1,31.13,16.58Z"/><path class="cls-3" d="M1844.59,3291.37c-6.24,9.91-11.52,18.7-16,27.68s-8.79,17.31-11.7,26.22c-.88,2.14-1.38,4.45-2.12,6.63a52.53,52.53,0,0,0-1.81,6.67c-.43,2.27-1,4.49-1.58,6.69-.43,2.25-.71,4.55-1.09,6.81-1.11,4.43-1,9.13-1.86,13.66-.48,4.6-.58,9.28-1.31,14l-.39,2.47a17.52,17.52,0,0,1-34.82-2,130.59,130.59,0,0,1,.1-17.8,114,114,0,0,1,3-17.73c2.68-11.74,7.86-22.92,14-33.17a95.78,95.78,0,0,1,23.61-26.45C1822,3298.05,1832.71,3292.51,1844.59,3291.37Z"/><path class="cls-3" d="M1727,3267c-6.83,9.8-12.79,18.46-18,27.39-5.2,8.76-9.93,17.26-13.35,26.15a127.11,127.11,0,0,0-7.72,26.9c-1.22,4.47-1.3,9.19-2.14,13.77-.59,4.63-.63,9.37-1.41,14.1l-.4,2.41a17.53,17.53,0,0,1-34.81-2c-.16-3-.22-6.11-.19-9.18a57.87,57.87,0,0,1,.44-9.2,107.69,107.69,0,0,1,3.42-18.27,110.93,110.93,0,0,1,15.56-33.64,96.19,96.19,0,0,1,25.35-25.94C1703.77,3272.87,1714.89,3267.77,1727,3267Z"/><path class="cls-3" d="M2370.72,3291.37c11.87,1.14,22.56,6.68,32,13.6a95.78,95.78,0,0,1,23.61,26.45c6.13,10.25,11.31,21.43,14,33.17a116.41,116.41,0,0,1,3,17.73,130.58,130.58,0,0,1,.09,17.8,17.52,17.52,0,0,1-34.82,2.05l-.39-2.48c-.73-4.68-.83-9.36-1.3-14-.82-4.53-.76-9.23-1.86-13.66-.38-2.26-.66-4.56-1.1-6.81s-1.14-4.42-1.58-6.69a52.53,52.53,0,0,0-1.81-6.67c-.73-2.18-1.23-4.49-2.12-6.63-2.91-8.91-7.19-17.35-11.7-26.22S2377,3301.28,2370.72,3291.37Z"/><path class="cls-3" d="M2488.31,3267c12.11.81,23.22,5.91,33.21,12.51a96.15,96.15,0,0,1,25.34,25.94,110.72,110.72,0,0,1,15.57,33.64,108.69,108.69,0,0,1,3.42,18.27,59.06,59.06,0,0,1,.43,9.2c0,3.07,0,6.14-.18,9.18a17.54,17.54,0,0,1-34.82,2l-.39-2.42c-.79-4.73-.83-9.47-1.42-14.1-.83-4.58-.92-9.3-2.14-13.77a127.11,127.11,0,0,0-7.72-26.9c-3.42-8.89-8.14-17.39-13.35-26.15C2501.11,3285.42,2495.14,3276.76,2488.31,3267Z"/><path class="cls-3" d="M2266.05,1563.94a18.94,18.94,0,0,1-5.75-37l13.5-4.31,216.79-80.46a18.93,18.93,0,0,1,13.16,35.5l-218,80.9L2271.8,1563A18.89,18.89,0,0,1,2266.05,1563.94Z"/><path class="cls-3" d="M2504.58,1603.32c-5.28,76.61-58.73,127.9-119.38,114.57s-105.56-86.24-100.28-162.85q.51-7.35,1.6-14.38l175.56-65.19C2490.77,1506.83,2508,1554.3,2504.58,1603.32Z"/><ellipse class="cls-2" cx="2429.65" cy="1558.37" rx="26.98" ry="44.99" transform="translate(-248.62 481.99) rotate(-10.78)"/><ellipse class="cls-2" cx="2358.22" cy="1633.09" rx="13.48" ry="22.51" transform="translate(-186.95 310.11) rotate(-7.24)"/></g></g></svg>