<svg xmlns="http://www.w3.org/2000/svg" xmlns:xlink="http://www.w3.org/1999/xlink" viewBox="0 0 4000 4000"><defs><style>.cls-1{fill:none;}.cls-2{fill:#35e1ff;}.cls-3{fill:#ffb64d;}.cls-4{fill:#000072;}.cls-5{opacity:0.3;}.cls-6{fill:#ff9906;}.cls-7{opacity:0.31;}.cls-8{opacity:0.4;}.cls-9{fill:#fff;}.cls-10{fill:#ff7b1e;}.cls-11{clip-path:url(#clip-path);}.cls-12{fill:#b85400;}.cls-13{opacity:0.5;}.cls-14{fill:#ff66c1;}.cls-15{fill:#f1892d;}.cls-16{clip-path:url(#clip-path-2);}.cls-17{fill:#ff3600;}.cls-18{opacity:0.2;}.cls-19{fill:#29b6f6;}.cls-20{clip-path:url(#clip-path-3);}.cls-21{fill:#29c5ff;}</style><clipPath id="clip-path"><path class="cls-1" d="M2325.35,2035a20,20,0,0,1,10.32-26.86l264.69-112.82c-10.05-24.41-28.44-41.63-54.83-51.28a119.64,119.64,0,0,0-52.31-6.35q-6.37.58-12.79,1.81C2241.54,1885.05,2150.86,1955.25,2150,1956c-.26.21-.53.41-.81.61-37.9,27.06-61.4,59.34-69.83,96-13.74,59.62,18.8,123,75.67,147.36,51.56,22.12,94.51-1.76,94.94-2s1-.54,1.48-.77C2372.76,2140.77,2327.34,2039.31,2325.35,2035Z"/></clipPath><clipPath id="clip-path-2"><path class="cls-1" d="M2613.59,1358.51l-18.93-69.42c78.59-147.35,50.14-294.7,33.66-352.8a52.64,52.64,0,0,0-44.85-37.91c-92.21-10.42-253.87,75.16-253.87,75.16-54.36-45.3-199.76-64.58-277.49-71.86a542.84,542.84,0,0,0-101.34,0c-77.74,7.28-223.14,26.56-277.5,71.86,0,0-164.35-87-256.14-74.88-20.39,2.69-37,17.79-42.56,37.58-16.48,58.06-45,205.46,33.64,352.85l-18.93,69.42,50.49,37.86s-25.25,151.47-63.11,189.33l75.73-63.11s0,151.46,88.35,214.57l12.62-37.86s113.6,138.84,214.57,164.08l-12.62-50.49s123.17,26,197.58,68.56a99.56,99.56,0,0,1,48.55,70.28h0a99.53,99.53,0,0,1,48.55-70.28c74.4-42.6,197.57-68.56,197.57-68.56l-12.62,50.49c101-25.24,214.57-164.08,214.57-164.08l12.62,37.86c88.36-63.11,88.36-214.57,88.36-214.57l75.73,63.11c-37.87-37.86-63.11-189.33-63.11-189.33Z"/></clipPath><clipPath id="clip-path-3"><circle class="cls-1" cx="1030.8" cy="2874.59" r="192.78" transform="translate(-1730.72 1570.83) rotate(-45)"/></clipPath></defs><g id="Layer_2" data-name="Layer 2"><g id="Layer_1-2" data-name="Layer 1"><rect class="cls-2" width="4000" height="4000"/><polygon class="cls-3" points="2018.67 1436.87 967.17 1781.63 2001.44 2109.14 3047.19 1770.13 2018.67 1436.87"/><path class="cls-4" d="M2001.44,2129.14a20,20,0,0,1-6-.93L961.13,1800.69a20,20,0,0,1-.19-38.07l1051.5-344.75a19.91,19.91,0,0,1,12.4,0l1028.52,333.27a20,20,0,0,1,0,38.05l-1045.76,339A19.93,19.93,0,0,1,2001.44,2129.14Zm-969.06-347.85,969,306.85,981-318L2018.71,1457.9Z"/><g class="cls-5"><polygon class="cls-4" points="2018.67 1486.87 967.17 1831.63 2001.44 2159.14 3047.19 1820.13 2018.67 1486.87"/></g><path class="cls-6" d="M2705.76,1897.29a612.66,612.66,0,0,1-15.66-153.37c3.57-128.16,48.8-230.9,134.4-305.37a20.9,20.9,0,0,0,1.65-1.61c.5-.54,52.93-56.9,109-56.9,26.56,0,49.65,12.63,70.58,38.61.42.52.86,1,1.33,1.5,2.14,2.24,54.25,58.63-14.53,142.63a127.41,127.41,0,0,1-14.71,14.89c-29,25.49-116.93,116-77.66,247Z"/><path class="cls-4" d="M2935.19,1400h0c20.11,0,38.1,10.19,55,31.16a39.69,39.69,0,0,0,2.67,3,70.65,70.65,0,0,1,13.53,28.15c6.22,26.91-3.64,56.45-29.29,87.79a109.1,109.1,0,0,1-12.44,12.53c-30,26.36-118.37,117.17-88.42,249.65l-155.74,58.14a593.25,593.25,0,0,1-10.37-127.18c3.68-121.77,46.58-219.22,127.51-289.62a39.15,39.15,0,0,0,3.2-3.11c13-14,55.27-50.49,94.36-50.49m0-40c-65.91,0-123.8,63.42-123.8,63.42-217.75,189.42-119.31,500.29-119.31,500.29l233.32-87.11c-50-129.9,38.87-220.44,65.65-243.93a148.19,148.19,0,0,0,17-17.26c81.77-99.88,13.29-169.35,13.29-169.35-27.51-34.15-57.58-46.06-86.15-46.06Z"/><g class="cls-7"><path class="cls-4" d="M2980.87,1420.92c-.74-.72-1.48-1.43-2.22-2.11C2979.39,1419.49,2980.13,1420.2,2980.87,1420.92Z"/></g><g class="cls-7"><path class="cls-4" d="M2983.8,1423.92c.57.61,1.15,1.2,1.72,1.83C2985,1425.12,2984.37,1424.53,2983.8,1423.92Z"/></g><g class="cls-7"><path class="cls-4" d="M2841.24,1816.63l25-9.33c-29.95-132.47,58.38-223.29,88.42-249.66a107.53,107.53,0,0,0,12.44-12.53c25.65-31.33,35.51-60.87,29.29-87.78a70.65,70.65,0,0,0-13.53-28.15,39.69,39.69,0,0,1-2.67-3c-7.78-9.67-15.82-16.92-24.18-22,1.43.56,2.85,1.19,4.26,1.86a58.73,58.73,0,0,0-13.85-4.76c1,2,47.87,94.17-16.41,133.73,0,0-126.95,78-111.77,221.25a44.09,44.09,0,0,1-20.7,41.85l-75.72,47.33Z"/></g><g class="cls-7"><path class="cls-4" d="M2960.76,1406.28a71.33,71.33,0,0,1,11.88,7.46A71.33,71.33,0,0,0,2960.76,1406.28Z"/></g><g class="cls-7"><path class="cls-4" d="M2973.65,1414.5c.89.7,1.77,1.47,2.65,2.23C2975.42,1416,2974.54,1415.2,2973.65,1414.5Z"/></g><g class="cls-8"><path class="cls-9" d="M2992.85,1434.18a39.69,39.69,0,0,1-2.67-3c-8.81-10.94-17.93-18.87-27.48-24a57,57,0,0,0-27.51-7.13c-39.09,0-81.37,36.44-94.36,50.48a37.68,37.68,0,0,1-3.2,3.12c-1.77,1.54-3.42,3.16-5.15,4.73-77.54,70-118.76,165.78-122.36,284.89a593.25,593.25,0,0,0,10.37,127.18l15-5.6a584.29,584.29,0,0,1-5.36-96.58c3.68-121.77,46.58-219.22,127.51-289.62a37.68,37.68,0,0,0,3.2-3.12c1.91-2.07,4.53-4.66,7.62-7.52a142.51,142.51,0,0,0,39.68-10.35c21.3-8.77,38.35-20.93,47.45-32.59,15.94.11,30.53,6.73,44.31,20A64,64,0,0,0,2992.85,1434.18Z"/></g><path class="cls-6" d="M2007.18,2148.92a22.7,22.7,0,0,1-6.53-1L1621.42,2033a22.49,22.49,0,0,1-11.73-8.37c-19.86-27.48-26.94-57.93-21.06-90.5,15.58-86.29,120.06-156.82,124.5-159.78a22.61,22.61,0,0,1,11.89-3.78l638.41-17.24a22.52,22.52,0,0,1,19.25,10.83l124.76,205.2a22.53,22.53,0,0,1-12.74,33.27l-481,145.3A22.63,22.63,0,0,1,2007.18,2148.92Z"/><path class="cls-4" d="M2363.43,1775.88l124.75,205.2-481,145.3L1628,2011.46c-74.7-103.42,97.68-218.34,97.68-218.34l637.8-17.24m0-45.06h-1.22l-637.79,17.24a45.09,45.09,0,0,0-23.78,7.55c-12,8-117.21,80.52-134.18,174.53-6.92,38.27,1.72,75.52,25,107.7a45.06,45.06,0,0,0,23.46,16.74l379.23,114.92a45.2,45.2,0,0,0,26.1,0l481-145.3a45.06,45.06,0,0,0,25.48-66.55l-124.76-205.2a45,45,0,0,0-38.5-21.65Z"/><g class="cls-5"><path class="cls-4" d="M1725.63,1793.12S1553.25,1908,1628,2011.46l379.23,114.92,481-145.3-124.75-205.2Z"/></g><path class="cls-3" d="M967.17,1775.88V2903.15A50,50,0,0,0,998,2949.34L2007.18,3367.5V2109.14Z"/><path class="cls-4" d="M2007.18,3387.5a20,20,0,0,1-7.65-1.52L990.37,2967.82a69.81,69.81,0,0,1-43.2-64.67V1775.88a20,20,0,0,1,26.1-19.05l1040,333.27a20,20,0,0,1,13.89,19V3367.5a20,20,0,0,1-20,20Zm-1020-1584.21V2903.15a29.91,29.91,0,0,0,18.52,27.72l981.49,406.69V2123.74Z"/><path class="cls-9" d="M1692.3,3046.05a38.42,38.42,0,0,1-5.94-.83,37.9,37.9,0,0,1-29.77-36.67l-.4-32.82a38.07,38.07,0,0,1-40.48-8.18l-.86-.86a38,38,0,0,1-33.6-10.15l-.86-.87a38,38,0,0,1-43.57-26.77c-.66,0-1.32.06-2,.07-1,0-2,0-3-.07a39,39,0,0,1-8.45-1.46c-23.12-6.46-33.69-29.3-42.35-61.57a550.79,550.79,0,0,1-11.47-59.12c-5.72-42.58-2.49-65.66,11.15-79.65,11.9-12.17,30.65-16.52,62.74-14.58,28.94,1.75,64,8.53,76.4,11.54,32.3,7.86,55.24,17.84,62.32,41.07a40,40,0,0,1,1.76,11.93,38,38,0,0,1,28.64,43.09l.9.86a38.19,38.19,0,0,1,11,33.35c.29.26.58.54.86.81a38.12,38.12,0,0,1,8.69,41.57l32.46-.4c.73,0,2,0,2.78.06a38,38,0,0,1,15.11,71.77,126.11,126.11,0,0,0-55.52,56.51,37.79,37.79,0,0,1-33.78,21.44C1694.22,3046.13,1693.26,3046.11,1692.3,3046.05Z"/><path class="cls-10" d="M1774.8,2932.41a8.1,8.1,0,0,0-8-6.14l-69.34.86-15.53-15.9,22.6-23.16a8.09,8.09,0,1,0-11.58-11.3l-22.6,23.16-11.59-11.3,33.9-34.76a8.09,8.09,0,1,0-11.58-11.3l-33.9,34.76-11.59-11.3,45.21-46.34a8.09,8.09,0,0,0-11.59-11.3l-45.2,46.34-14.76-14.4c32.3-33.89,47.34-56.33,44.24-66.47-1.75-5.76-8-12.73-40.72-20.7-15.4-3.73-96.48-19.67-110.66-5.15s3.71,94.86,7.8,110.1c8.81,32.85,16,38.95,21.78,40.59a9.7,9.7,0,0,0,2.77.33c11.22-.14,32.61-16.07,63.51-47.1l14.74,14.38-45.21,46.34a8.09,8.09,0,0,0,11.58,11.3l45.21-46.34,11.59,11.3L1602,2923.67a8.09,8.09,0,0,0,11.59,11.3l33.9-34.76,11.59,11.3-22.61,23.17a8.09,8.09,0,0,0,11.58,11.3l22.61-23.17,15,15.37.87,70a8.09,8.09,0,0,0,6.33,7.8,7.84,7.84,0,0,0,1.86.19,8.06,8.06,0,0,0,7.18-4.56,156.56,156.56,0,0,1,68.75-70.06A8.09,8.09,0,0,0,1774.8,2932.41Zm-187.88-118.06a24.28,24.28,0,1,1-.43-34.32A24.23,24.23,0,0,1,1586.92,2814.35Z"/><g class="cls-8"><path class="cls-9" d="M1962.18,3302.56l-975-404v4.6a29.89,29.89,0,0,0,18.52,27.71l981.49,406.7V2123.74Z"/></g><path class="cls-3" d="M2007.18,2109.14V3367.5l1025.41-412.39a50,50,0,0,0,31.34-47.13l-16.74-1137.85Z"/><path class="cls-4" d="M2007.19,3387.5a20,20,0,0,1-20-20V2109.14a20,20,0,0,1,13.8-19l1040-339a20,20,0,0,1,26.19,18.72l16.74,1137.85a70.43,70.43,0,0,1-43.88,66l-1025.4,412.39A20,20,0,0,1,2007.19,3387.5Zm20-1263.84V3337.9l998-401.35a30.18,30.18,0,0,0,18.8-28.27l-16.34-1110.72Z"/><g class="cls-8"><path class="cls-9" d="M2057.18,3302.9l-30-1179.24V3337.9l998-401.35a30.16,30.16,0,0,0,18.8-28.27l0-2.21Z"/></g><path class="cls-3" d="M970,1778.75l-410,371c-33.23,30.07-23,84.63,18.92,100.57l927.81,353a60,60,0,0,0,65.38-15.34l448.62-485Z"/><path class="cls-4" d="M1528.25,2627.23a80.3,80.3,0,0,1-28.6-5.29l-927.8-353a80,80,0,0,1-25.23-134.09l410-371a20,20,0,0,1,19.31-4.29l1050.72,324.12a20,20,0,0,1,8.79,32.69l-448.62,485A79.67,79.67,0,0,1,1528.25,2627.23ZM975,1801.22,573.46,2164.54a40,40,0,0,0,12.61,67.05l927.81,353a39.84,39.84,0,0,0,43.58-10.23l427.05-461.71Z"/><g class="cls-8"><path class="cls-9" d="M1958.74,2104.67l-411.27,444.66a39.82,39.82,0,0,1-43.59,10.23l-927.81-353a40,40,0,0,1-15.72-10.89,40.9,40.9,0,0,0,.63,5.9,39.75,39.75,0,0,0,25.09,30l927.81,353a39.82,39.82,0,0,0,43.59-10.23l427-461.71Z"/></g><path class="cls-3" d="M2007.18,2098.69l414.93,494.79a60,60,0,0,0,67.47,17.46l934.1-358.49c41.23-15.83,51.82-69.25,19.74-99.6l-408.74-386.77Z"/><path class="cls-4" d="M2468.12,2634.92a80,80,0,0,1-61.33-28.59l-414.93-494.79a20,20,0,0,1,9.16-31.88l1027.5-332.61a20,20,0,0,1,19.9,4.5l408.75,386.77a80,80,0,0,1-26.32,132.8l-934.1,358.49A79.85,79.85,0,0,1,2468.12,2634.92Zm-426.54-526.35,395.85,472a40,40,0,0,0,45,11.64l934.09-358.49a40,40,0,0,0,13.17-66.4l-400.13-378.61Z"/><g class="cls-8"><path class="cls-9" d="M2482.42,2562.27a40,40,0,0,1-45-11.65l-376.07-448.45-19.78,6.4,395.85,472a40,40,0,0,0,45,11.65l934.1-358.5a39.24,39.24,0,0,0,24.9-29.56C3443,2196.24,2482.42,2562.27,2482.42,2562.27Z"/></g><g class="cls-5"><path class="cls-4" d="M2591.94,1833c-26.79-9.8-56.74-12-86.62-6.29-242.34,46.2-339.22,117.68-347.57,124.12-46,32.93-74.74,73.17-85.43,119.59-18.36,79.71,23.35,161.18,99.2,193.72a154.85,154.85,0,0,0,106,6,131.84,131.84,0,0,0,24-9.56c81.21-37.92,102.4-94.56,105.86-135.45a166.88,166.88,0,0,0-.65-33.66c-2-16.34,7.52-31.92,22.66-38.37L2625,1969.77c38.93-16.59,51.24-66.48,23.61-98.53C2634.05,1854.36,2615,1841.45,2591.94,1833Z"/></g><path class="cls-6" d="M2343.52,2026.58s57.23,123.28-83.66,188.69c0,0-51.45,29.3-112.74,3-65.89-28.26-103.39-100.4-87.3-170.26,8-34.76,29.49-73.33,77.72-107.77,0,0,92.65-73.43,339.13-120.4,25.28-4.82,51.58-3.44,75.75,5.4,29,10.61,60.93,33.26,72.56,81.37Z"/><path class="cls-4" d="M2199.93,2249.25a152.9,152.9,0,0,1-60.7-12.59c-75.61-32.43-117.21-113.66-98.9-193.13,10.67-46.3,39.34-86.44,85.24-119.31,8.26-6.37,105-77.83,347.36-124,29.78-5.67,59.64-3.51,86.36,6.26,44.53,16.3,74,49.31,85.13,95.46a20,20,0,0,1-11.6,23.1l-264.49,112.73c11.21,41.42,21.92,138.7-99.45,195.38C2263.57,2236,2236.8,2249.25,2199.93,2249.25Zm305.41-412.14a132.8,132.8,0,0,0-24.92,2.39c-237.25,45.21-329.6,115.76-330.51,116.47l-.75.56c-37.91,27.07-61.42,59.36-69.85,96-13.74,59.62,18.81,123,75.7,147.39,50.86,21.82,93.28-1.08,95.06-2.07.41-.23.94-.5,1.37-.7,50.86-23.62,78.79-57.57,83-101,3.27-33.5-9-61-9.11-61.25a20.06,20.06,0,0,1,10.33-26.74l264.72-112.83c-10.06-24.44-28.45-41.67-54.86-51.33A116.89,116.89,0,0,0,2505.34,1837.11Z"/><g class="cls-8"><path class="cls-9" d="M2104.31,2062.51c8.43-36.62,31.94-68.91,69.85-96l.75-.56c.91-.71,93.26-71.26,330.51-116.47a132.72,132.72,0,0,1,24.92-2.39,119.69,119.69,0,0,1,30.19,3.81,108.14,108.14,0,0,0-15-6.89,117,117,0,0,0-40.21-6.92,132.72,132.72,0,0,0-24.92,2.39c-237.25,45.21-329.6,115.76-330.51,116.47l-.75.56c-37.91,27.07-61.42,59.36-69.85,96-13.73,59.62,18.81,123,75.69,147.39a114.74,114.74,0,0,0,15.07,5.19C2119.4,2177.91,2091.4,2118.56,2104.31,2062.51Z"/></g><g class="cls-5"><path class="cls-4" d="M1643.61,1857.52c-79.57-47.44-182.89-21.3-230.33,58.27s-21.3,182.89,58.27,230.33,182.89,21.3,230.33-58.27S1723.17,1905,1643.61,1857.52Z"/></g><circle class="cls-6" cx="1561.45" cy="1949.56" r="147.49"/><path class="cls-4" d="M1561.16,2117.11a167.55,167.55,0,0,1-143.57-253.33c47.29-79.32,150.3-105.38,229.63-58.09a167.49,167.49,0,0,1-44.69,306.24A168.5,168.5,0,0,1,1561.16,2117.11Zm.51-295a127.42,127.42,0,1,0,65.07,18A127.58,127.58,0,0,0,1561.67,1822.09Z"/><g class="cls-5"><path class="cls-4" d="M1485.92,2041.24a147.46,147.46,0,0,0,222-109.1,148.07,148.07,0,0,0-4.18-21.39,147.46,147.46,0,0,1-283.31-4.27,146.31,146.31,0,0,0-5.35,25.67A147.19,147.19,0,0,0,1485.92,2041.24Z"/></g><g class="cls-11"><path class="cls-12" d="M2340.32,1871.7c-6.85,2-13.44,4.08-19.88,6.13l59.63,115.23,42.36-18.33-57-110.16C2356.79,1866.93,2348.38,1869.3,2340.32,1871.7Z"/><path class="cls-12" d="M2456.68,1843.05q-30.42,6.12-57.44,12.77l54.52,105.35,52.33-22.64Z"/></g><g class="cls-5"><path class="cls-4" d="M2529.44,1847.23c-.61-.23-1.24-.39-1.86-.6.09-1.44.3-2.85.28-4.3a59.53,59.53,0,0,1-36.67,55.58l-78.14,32.5a207.48,207.48,0,0,0-90.08,72.47,22.22,22.22,0,0,1,2.09-1.15l256-109.09C2570.73,1871.32,2553.52,1856,2529.44,1847.23Z"/></g><path class="cls-6" d="M2001.44,1971.73A20,20,0,0,1,1981.7,1955a79.18,79.18,0,0,0-38.75-56.18c-48.34-27.68-119.58-48.39-160.25-58.81l4.63,18.53a20,20,0,0,1-24.25,24.25c-78.86-19.71-162.14-101.12-201.76-144.12l-1.61,4.83a20,20,0,0,1-30.6,10c-66.75-47.68-87.44-138.06-93.85-190.54l-45.8,38.17a20,20,0,0,1-26.94-29.51c22.61-22.61,44.92-109.42,55.42-166.55l-40.66-30.5a20,20,0,0,1-7.29-21.27l16.86-61.85c-77.59-151.8-48.07-302.32-31.53-360.61,7.91-27.85,31.14-48.24,59.19-51.95a165,165,0,0,1,21.41-1.33c83,0,198.86,54.36,235.4,72.59,60.25-40.42,182.59-59.43,277.58-68.32,17.41-1.63,35.08-2.46,52.54-2.46s35.13.83,52.53,2.46c95,8.89,217.34,27.9,277.58,68.32C2368.09,931.86,2484,877.5,2567,877.5a167.42,167.42,0,0,1,18.76,1,72.44,72.44,0,0,1,61.85,52.33c16.53,58.28,46,208.79-31.54,360.55l16.87,61.85a20,20,0,0,1-7.3,21.27l-40.66,30.5c10.51,57.13,32.81,143.94,55.43,166.55a20,20,0,0,1-27,29.51l-45.8-38.17c-6.41,52.48-27.1,142.86-93.86,190.54a20,20,0,0,1-30.59-10l-1.61-4.83c-39.61,43-122.9,124.41-201.76,144.12a20,20,0,0,1-24.25-24.25l4.63-18.53c-40.67,10.42-111.91,31.13-160.25,58.81a79.2,79.2,0,0,0-38.75,56.18,20,20,0,0,1-19.73,16.74Z"/><path class="cls-4" d="M1435.92,897.5c93.71,0,237.35,76,237.35,76,54.36-45.29,199.76-64.58,277.5-71.86q25.29-2.37,50.67-2.37t50.67,2.37c77.74,7.28,223.14,26.57,277.49,71.86,0,0,143.64-76,237.35-76a146.86,146.86,0,0,1,16.52.88,52.64,52.64,0,0,1,44.85,37.91c16.48,58.1,44.93,205.45-33.66,352.8l18.93,69.42-50.48,37.86s25.24,151.47,63.11,189.33l-75.74-63.11s0,151.46-88.35,214.57l-12.62-37.86s-113.6,138.84-214.57,164.08l12.62-50.49s-123.17,26-197.57,68.56a99.55,99.55,0,0,0-48.55,70.28,99.58,99.58,0,0,0-48.55-70.28c-74.41-42.6-197.58-68.56-197.58-68.56l12.62,50.49c-101-25.24-214.57-164.08-214.57-164.08l-12.62,37.86c-88.35-63.11-88.35-214.57-88.35-214.57l-75.73,63.11c37.86-37.86,63.11-189.33,63.11-189.33l-50.49-37.86,18.93-69.42c-78.61-147.39-50.12-294.79-33.64-352.85,5.61-19.79,22.17-34.89,42.56-37.58a143.75,143.75,0,0,1,18.79-1.16m0-40a185.81,185.81,0,0,0-24,1.5c-36,4.75-65.72,30.78-75.81,66.32-16.93,59.69-46.95,212.48,29.46,368.19L1350.69,1348a40,40,0,0,0,14.59,42.53l30.69,23c-12.22,61.69-32.4,128.69-47.6,143.89a40,40,0,0,0,53.89,59l19-15.84c11.37,55.37,37.26,127,96.22,169.12a40,40,0,0,0,46.08.3c9.46,9.71,20.27,20.35,32.08,31.26,59.42,54.85,114.12,88.8,162.58,100.92a40,40,0,0,0,49.49-34.7c39.06,11.19,89.11,28,125.29,48.68a59.25,59.25,0,0,1,29,42.08,40,40,0,0,0,39.47,33.48h0a40,40,0,0,0,39.46-33.48,59.28,59.28,0,0,1,29-42.08c36.27-20.77,86.27-37.53,125.29-48.7a40,40,0,0,0,49.49,34.72c48.46-12.12,103.16-46.07,162.58-100.92,11.82-10.91,22.62-21.55,32.09-31.26a40,40,0,0,0,46.07-.3c59-42.11,84.85-113.75,96.22-169.12l19,15.84a40,40,0,0,0,53.89-59c-15.2-15.2-35.38-82.2-47.6-143.89l30.69-23a40,40,0,0,0,14.6-42.53l-14.86-54.47c76.4-155.68,46.4-308.45,29.48-368.13A92.4,92.4,0,0,0,2588,858.63a188.45,188.45,0,0,0-21-1.13c-80.43,0-188.52,47.69-234.31,69.79-66.64-38.52-184.49-56.79-276.81-65.44-18-1.68-36.32-2.54-54.39-2.54s-36.38.86-54.4,2.54c-92.32,8.65-210.17,26.92-276.81,65.44-45.78-22.1-153.88-69.79-234.31-69.79Z"/><g class="cls-8"><path class="cls-9" d="M1435.69,1418.32c-8.58,43.36-30.12,138.46-59,167.38l26.37-22c22.75-58.52,36.74-142.35,36.74-142.35Z"/></g><g class="cls-8"><path class="cls-9" d="M2628.32,936.29a52.64,52.64,0,0,0-44.85-37.91c-92.21-10.42-253.87,75.16-253.87,75.16-54.35-45.3-199.76-64.58-277.49-71.86a542.84,542.84,0,0,0-101.34,0c-20.87,2-46.63,4.78-74.18,8.74C1809.18,920.1,1731,936.59,1687,963.84a120.71,120.71,0,0,0-13.69,9.7s-164.35-87-256.14-74.88c-20.39,2.69-37,17.79-42.56,37.58a513.7,513.7,0,0,0-18.68,150.2,513.28,513.28,0,0,1,18.68-125.2c5.61-19.79,22.17-34.89,42.56-37.58,91.79-12.12,256.14,74.88,256.14,74.88,8.54-7.11,19.33-13.59,31.75-19.47,19.85,8.78,52,10.57,86.76,3.08,40.43-8.71,72.64-27.43,83.8-46.59,27.93-4,54.06-6.9,75.19-8.88a542.84,542.84,0,0,1,101.34,0c77.73,7.28,223.14,26.56,277.49,71.86,0,0,161.66-85.58,253.87-75.16a52.64,52.64,0,0,1,44.85,37.91A513.31,513.31,0,0,1,2647,1086.44,513.66,513.66,0,0,0,2628.32,936.29Z"/></g><g class="cls-8"><path class="cls-9" d="M2607.93,1362.75l5.66-4.24-14.48-53.12c-1.47,2.9-2.9,5.8-4.45,8.7Z"/></g><g class="cls-8"><path class="cls-9" d="M2240.94,1839.36l-6,24c2.23-.56,4.48-1.24,6.73-1.9l5.89-23.59S2245.16,1838.4,2240.94,1839.36Z"/></g><g class="cls-8"><path class="cls-9" d="M2563.11,1421.37s14,83.83,36.73,142.35l26.38,22c-28.92-28.92-50.46-124-59-167.38Z"/></g><g class="cls-8"><path class="cls-9" d="M1755.31,1837.89l5.9,23.59c2.24.66,4.49,1.34,6.72,1.9l-6-24C1757.71,1838.4,1755.31,1837.89,1755.31,1837.89Z"/></g><g class="cls-8"><path class="cls-9" d="M1394.94,1362.75l13.27-48.66c-1.55-2.9-3-5.8-4.44-8.7l-14.49,53.12Z"/></g><g class="cls-13"><ellipse class="cls-9" cx="2002.37" cy="1496.18" rx="175.18" ry="174.25" transform="translate(425.58 3435.71) rotate(-87.66)"/></g><path class="cls-4" d="M1915.88,1572.71a57.63,57.63,0,0,1-27-6.36c-27.26-14.2-32.84-46.67-33.06-48a12.5,12.5,0,0,1,24.66-4.08c.1.55,4.07,21.79,20.08,30,11.72,6,28,4.18,48.3-5.49,14.59-9.28,33.81-25.5,43.85-50.6a12.5,12.5,0,0,1,23.21,9.29c-12.67,31.68-36.55,51.66-54.35,62.85a12.33,12.33,0,0,1-1.23.68C1944.11,1568.79,1929.24,1572.71,1915.88,1572.71Z"/><path class="cls-4" d="M2090.46,1572.71c-13.36,0-28.22-3.92-44.47-11.74a12.33,12.33,0,0,1-1.23-.68l-1.3-.82c-16-10.06-40.24-25.25-53-57.25a12.5,12.5,0,0,1,23.21-9.29c9.77,24.45,28.26,36,43.11,45.36l.72.45c20.34,9.68,36.59,11.53,48.32,5.5,16.13-8.3,20-29.81,20.07-30a12.5,12.5,0,0,1,24.67,4.09c-.23,1.38-5.81,33.85-33.06,48A57.67,57.67,0,0,1,2090.46,1572.71Z"/><path class="cls-4" d="M2003.83,1517.25a12.5,12.5,0,0,1-12.5-12.5V1433a12.5,12.5,0,0,1,25,0v71.71A12.5,12.5,0,0,1,2003.83,1517.25Z"/><path class="cls-14" d="M1463.62,1184.45C1541.35,1041,1607,1017.13,1607,1017.13S1524,955.2,1459.38,957c-12.5.34-22.91,9.57-25.46,21.81C1427.78,1008.29,1423.78,1073.61,1463.62,1184.45Z"/><path class="cls-4" d="M1463.62,1197c-.31,0-.63,0-.94,0a12.5,12.5,0,0,1-10.82-8.24c-41-114-36.5-182.05-30.17-212.45A39.37,39.37,0,0,1,1459,944.46c68.28-1.8,151.94,60,155.48,62.65a12.5,12.5,0,0,1-3.21,21.77c-.52.2-63,25.41-136.7,161.53A12.5,12.5,0,0,1,1463.62,1197Zm-1.47-227.53c-.82,0-1.62,0-2.43,0a14.48,14.48,0,0,0-13.56,11.87c-5.3,25.49-9,80.36,20.32,172.62,49.28-83.94,92.89-121.8,116.87-137.84C1557.37,999.34,1505,969.42,1462.15,969.42Z"/><g class="cls-5"><path class="cls-4" d="M1456.16,1006.32a14.48,14.48,0,0,1,13.56-11.87q1.21,0,2.43,0c32,0,69.36,16.71,97,32.15,5.26-4.21,10-7.69,14.18-10.47-26-16.76-78.35-46.68-121.2-46.68q-1.22,0-2.43,0a14.48,14.48,0,0,0-13.56,11.87c-5.3,25.49-9,80.37,20.32,172.62.61-1,1.21-2,1.82-3C1448,1075.47,1451.42,1029.1,1456.16,1006.32Z"/></g><path class="cls-14" d="M2534.35,1184.45c-77.72-143.47-143.41-167.32-143.41-167.32s83-61.93,147.66-60.17c12.5.34,22.91,9.57,25.45,21.81C2570.19,1008.29,2574.19,1073.61,2534.35,1184.45Z"/><path class="cls-4" d="M2534.35,1197a12.5,12.5,0,0,1-11-6.55c-73.74-136.11-136.17-161.32-136.79-161.56a12.55,12.55,0,0,1-3.11-21.73c3.53-2.63,87.08-64.49,155.48-62.65,18.2.5,33.56,13.56,37.35,31.77,6.32,30.4,10.81,98.43-30.18,212.45a12.5,12.5,0,0,1-10.81,8.24Zm-119.73-180.86c24,16,67.59,53.9,116.88,137.85,29.33-92.26,25.62-147.13,20.32-172.62a14.48,14.48,0,0,0-13.56-11.87c-.81,0-1.63,0-2.44,0C2492.89,969.42,2440.57,999.33,2414.62,1016.09Z"/><g class="cls-5"><path class="cls-4" d="M2539.71,1006.32a14.48,14.48,0,0,0-13.56-11.87q-1.21,0-2.43,0c-32,0-69.36,16.71-97,32.15-5.26-4.21-10-7.69-14.18-10.47,26-16.76,78.34-46.68,121.2-46.68q1.22,0,2.43,0a14.48,14.48,0,0,1,13.56,11.87c5.3,25.49,9,80.37-20.32,172.62-.61-1-1.21-2-1.82-3C2547.84,1075.47,2544.44,1029.1,2539.71,1006.32Z"/></g><ellipse class="cls-15" cx="1741.72" cy="1217.14" rx="168.14" ry="153.89" transform="translate(342.9 2816.62) rotate(-83.78)"/><ellipse class="cls-15" cx="2260.32" cy="1229.87" rx="167.53" ry="153.89" transform="translate(792.63 3343.51) rotate(-83.78)"/><path class="cls-4" d="M1649.9,1095.89s50.64-45.27,136.81-30.07c0,0-18.81-42-85.26-27.92C1701.45,1037.9,1640.88,1053.87,1649.9,1095.89Z"/><path class="cls-4" d="M2357,1095.89s-50.63-45.27-136.81-30.07c0,0,18.81-42,85.26-27.92C2305.43,1037.9,2366,1053.87,2357,1095.89Z"/><g class="cls-16"><polygon class="cls-12" points="1850.75 862.45 1906.88 1002.21 1913.76 845.29 1850.75 862.45"/><polygon class="cls-12" points="2183.1 869.56 2110.26 1001.39 2122.66 844.8 2183.1 869.56"/><polyline class="cls-12" points="1973.99 832.52 2004.34 1035.7 2057.25 835.79 1983.7 829.8"/><path class="cls-12" d="M1442.16,1569.67a416.82,416.82,0,0,0,12.78,42.66c61.21-43.31,153.62-67.87,153.62-67.87C1545.65,1538.85,1483.63,1554.94,1442.16,1569.67Z"/><path class="cls-12" d="M1478.91,1665a350.06,350.06,0,0,0,27.6,45.62c72.47-66.48,158.83-115.36,158.83-115.36C1595.48,1607,1530.77,1635.56,1478.91,1665Z"/><path class="cls-12" d="M2559.3,1569.67a414.32,414.32,0,0,1-12.78,42.66c-61.2-43.31-153.61-67.87-153.61-67.87C2455.82,1538.85,2517.84,1554.94,2559.3,1569.67Z"/><path class="cls-12" d="M2522.56,1665a351.26,351.26,0,0,1-27.61,45.62c-72.46-66.48-158.82-115.36-158.82-115.36C2406,1607,2470.69,1635.56,2522.56,1665Z"/></g><path class="cls-4" d="M1940,1422.48s-3.93-42,66.47-41.3c0,0,59.53,1.52,60.36,37,0,0-5.94,42.51-58.62,48.77C2008.25,1467,1953.49,1466.46,1940,1422.48Z"/><g class="cls-5"><path class="cls-4" d="M2449.51,1684.3l12.62,37.86c54.44-38.88,75.3-111.23,83.32-161.09-16.86,22.82-46.8,50.93-97.93,66.94-34.52,10.81-64.86,32.14-83.66,62.37-7.36,11.82-17.93,25.08-33.14,39.07-17.91,16.48-43.81,21.8-67.18,14.21h0a110.23,110.23,0,0,0-56.84-3c-39.2,8.28-108.1,26-155,55.73a82.46,82.46,0,0,1-88.38,0c-46.91-29.72-115.81-47.45-155-55.73a110.23,110.23,0,0,0-56.84,3h0c-23.37,7.59-49.27,2.27-67.18-14.21-15.21-14-25.78-27.25-33.14-39.07-18.8-30.23-49.14-51.56-83.66-62.37-74-23.18-103.7-71.74-113.43-92.84,4.57,46.64,21.77,140.62,86.69,187l12.62-37.86S1664,1819.4,1763.9,1847.24l4,16.14-12.62-50.49,4,.87-4-15.87s123.17,26,197.58,68.56a99.56,99.56,0,0,1,48.55,70.28,99.53,99.53,0,0,1,48.55-70.28c74.4-42.6,197.57-68.56,197.57-68.56l-4,15.87,4-.87-12.62,50.49,4-16.14C2338.92,1819.4,2449.51,1684.3,2449.51,1684.3Z"/></g><g class="cls-8"><ellipse class="cls-9" cx="1984.26" cy="1407.08" rx="22.44" ry="12.36" transform="translate(-251.89 449.58) rotate(-12.16)"/></g><path class="cls-4" d="M1650,1005c-23.27,13-43.53,28.15-62.54,44.5a481.2,481.2,0,0,0-52.18,53.34c-7.68,9.82-15.76,19.32-22.79,29.73l-5.58,7.59-2.8,3.79-2.56,4c-3.39,5.32-6.9,10.58-10.47,15.84-3.76,5.16-6.82,10.74-10.17,16.2s-6.77,10.92-10.3,16.38c-6.56,11.14-12.9,22.52-20.61,33.66.69-6.63,1.78-13.19,3-19.76s2.37-13.19,4.08-19.64c1.93-6.37,3.93-12.74,6.07-19.09s4.18-12.78,7.14-18.8c5.5-12.24,11.17-24.52,18.54-35.88,1.72-2.92,3.56-5.76,5.35-8.63l2.7-4.3,3-4.09,12.39-16.17c17.58-20.72,38.17-39.15,61.49-53.23C1597,1016.61,1623,1006,1650,1005Z"/><path class="cls-4" d="M2350,1005c27,1,53,11.61,76.27,25.41,23.32,14.08,43.91,32.51,61.49,53.23l12.39,16.17,3,4.09,2.7,4.3c1.79,2.87,3.63,5.71,5.35,8.63,7.37,11.36,13,23.64,18.54,35.88,3,6,5,12.45,7.14,18.8s4.14,12.72,6.07,19.09c1.71,6.45,2.9,13.07,4.08,19.64s2.26,13.13,2.95,19.76c-7.71-11.14-14.05-22.52-20.61-33.66-3.53-5.46-7-10.91-10.3-16.38s-6.41-11-10.17-16.2c-3.57-5.26-7.08-10.52-10.47-15.84l-2.56-4-2.8-3.79-5.58-7.59c-7-10.41-15.11-19.91-22.79-29.73a481.2,481.2,0,0,0-52.18-53.34C2393.53,1033.15,2373.27,1018,2350,1005Z"/><ellipse class="cls-4" cx="1757.96" cy="1285.99" rx="115.84" ry="84.58" transform="translate(299.53 2903.76) rotate(-84.15)"/><ellipse class="cls-9" cx="1760.43" cy="1237.03" rx="36.54" ry="32.41" transform="translate(350.46 2862.26) rotate(-84.15)"/><g class="cls-5"><path class="cls-9" d="M1729.21,1314.93a23.57,23.57,0,1,0,21,25.85A23.58,23.58,0,0,0,1729.21,1314.93Z"/></g><ellipse class="cls-4" cx="2252.96" cy="1285.99" rx="84.58" ry="115.84" transform="translate(-119.31 236.26) rotate(-5.85)"/><ellipse class="cls-9" cx="2250.48" cy="1237.03" rx="32.41" ry="36.54" transform="translate(-114.33 235.74) rotate(-5.85)"/><g class="cls-5"><path class="cls-9" d="M2281.7,1314.93a23.57,23.57,0,1,1-21,25.85A23.58,23.58,0,0,1,2281.7,1314.93Z"/></g><g class="cls-8"><path class="cls-9" d="M1626.74,1840.05a126.71,126.71,0,0,0-65.08-18,128.51,128.51,0,0,0-52.82,11.44,126.65,126.65,0,0,0-54.31,46.71c-.86,1.34-1.76,2.65-2.59,4a127.6,127.6,0,0,0,1.06,132.22,127.36,127.36,0,0,1,8.94-112.22,131.55,131.55,0,0,1,8.28-12.14c9.89.75,23.12-2.69,36-10.14,17.19-9.93,28.54-23.91,29.25-34.62a128.44,128.44,0,0,1,36.16-5.28,127.54,127.54,0,0,1,108.26,60.4A126.45,126.45,0,0,0,1626.74,1840.05Z"/></g><path class="cls-17" d="M3155.43,2349.91l-129-173.25a16.52,16.52,0,0,0-25.33-1.41l-49.09,52.6-94.39,6.74a16.52,16.52,0,0,0-11.88,26.61l124.06,159.94Z"/><path class="cls-4" d="M2969.83,2433.64a12.51,12.51,0,0,1-9.89-4.84l-124.06-159.94a29,29,0,0,1,20.86-46.74l89.5-6.39,45.74-49a29,29,0,0,1,44.5,2.47l129,173.26a12.49,12.49,0,0,1-5.55,19.13l-185.6,71.23A12.49,12.49,0,0,1,2969.83,2433.64Zm43.36-251.14a4,4,0,0,0-2.93,1.28l-49.1,52.6a12.47,12.47,0,0,1-8.24,3.93l-94.39,6.75a4,4,0,0,0-2.89,6.47L2974,2406.15l161.54-62-119.12-160a4,4,0,0,0-3-1.61Z"/><g class="cls-8"><path class="cls-9" d="M2869.77,2257.45a3.11,3.11,0,0,1,2.24-5l94.39-6.74a13.41,13.41,0,0,0,8.85-4.23l46-49.31-5.58-7.5a3,3,0,0,0-2.32-1.24h-.19a3,3,0,0,0-2.26,1l-49.09,52.6a13.38,13.38,0,0,1-8.85,4.23l-94.39,6.74a3.11,3.11,0,0,0-2.23,5l117.95,152.07,7.67-2.94Z"/></g><path class="cls-4" d="M2790,2702.5a12.5,12.5,0,0,1-3.59-24.47l150-45a12.5,12.5,0,0,1,7.18,23.94l-150,45A12.44,12.44,0,0,1,2790,2702.5Z"/><path class="cls-4" d="M2805,2877.5a12.5,12.5,0,0,1-3.59-24.47l150-45a12.5,12.5,0,1,1,7.18,23.94l-150,45A12.44,12.44,0,0,1,2805,2877.5Z"/><path class="cls-4" d="M2855,2767.5a12.5,12.5,0,0,1-3.34-24.55l90-25a12.51,12.51,0,0,1,6.69,24.1l-90,25A13,13,0,0,1,2855,2767.5Z"/><g class="cls-18"><path class="cls-4" d="M3171.25,2301.11l.95-.89Z"/></g><g class="cls-18"><path class="cls-4" d="M3162.05,2309.44c-.9.76-1.8,1.52-2.71,2.26C3160.25,2311,3161.15,2310.2,3162.05,2309.44Z"/></g><g class="cls-18"><path class="cls-4" d="M3183.17,2288.28c-.52.62-1,1.24-1.55,1.84C3182.15,2289.52,3182.65,2288.9,3183.17,2288.28Z"/></g><g class="cls-18"><path class="cls-4" d="M3424.68,2187.37l-400.13-378.61-307.29,99.47,185.65,6.88a364.48,364.48,0,0,1,230.34,93.31l32.53,29.28c55.15,49.64,71.58,123.77,51.53,188.23A179.17,179.17,0,0,1,3147.45,2337l269.07-103.27a24.68,24.68,0,0,0,8.16-46.4Z"/></g><g class="cls-18"><path class="cls-4" d="M3206.62,2252.63l-.13.24Z"/></g><g class="cls-18"><path class="cls-4" d="M3439.56,2210.58a41.91,41.91,0,0,1-2.41,5.27A39.36,39.36,0,0,0,3439.56,2210.58Z"/></g><g class="cls-18"><path class="cls-4" d="M3191.62,2277.51c-.19.26-.4.52-.59.79C3191.22,2278,3191.43,2277.78,3191.62,2277.51Z"/></g><g class="cls-18"><path class="cls-4" d="M3441.42,2204.21a39.36,39.36,0,0,1-1.67,5.91A40.94,40.94,0,0,0,3441.42,2204.21Z"/></g><g class="cls-18"><path class="cls-4" d="M3199.73,2265.18l-.26.45Z"/></g><g class="cls-5"><path class="cls-4" d="M2000,2405l-299.66,292.35a242.77,242.77,0,0,1-254.7,53.57L967.17,2571.69,972.39,2405,1560,2595l460.77-492.12Z"/></g><g class="cls-5"><path class="cls-4" d="M2005,2110l-5,295,334.78,315.09a200.35,200.35,0,0,0,206.49,42.12L3059,2571.69l6-181.56-613,224.79L2040,2110Z"/></g><g class="cls-18"><path class="cls-4" d="M564.57,2212.15a40.25,40.25,0,0,1-1.83-4.32A38.32,38.32,0,0,0,564.57,2212.15Z"/></g><g class="cls-18"><path class="cls-4" d="M562.4,2207a40,40,0,0,1-1.42-5.37A41.53,41.53,0,0,0,562.4,2207Z"/></g><g class="cls-18"><path class="cls-4" d="M985,1821.22,583.46,2184.54A39.72,39.72,0,0,0,571,2221.33a40,40,0,0,0,15.12,10.26l168.73,64.19-10.73-20.71c-1.23-2.37-2.3-4.79-3.37-7.2l-6.63-12.8a130.93,130.93,0,0,1,23.67-152.81l17.61-17.61a543.07,543.07,0,0,1,361.1-158.57l165.83-7Z"/></g><g class="cls-18"><path class="cls-4" d="M571,2221.33a41.12,41.12,0,0,1-3.43-4.25A38.87,38.87,0,0,0,571,2221.33Z"/></g><g class="cls-18"><path class="cls-4" d="M567.46,2217a42.19,42.19,0,0,1-2.64-4.39A39.58,39.58,0,0,0,567.46,2217Z"/></g><path class="cls-9" d="M2552.84,2445.15c-20.85,4.11-40.68-6.88-53-29.39l-.55-1.07a52.71,52.71,0,0,1-5.39-19.55c-13.33,0-27.18-6.23-37.58-17.36a54.62,54.62,0,0,1-14.5-29.62c-1.77-13.31,2.4-25.79,11.43-34.24a36,36,0,0,1,3.38-2.79,57.09,57.09,0,0,1-4.82-25.78c.83-14.21,7.63-26.34,18.67-33.28a38.19,38.19,0,0,1,13-5.17,42.79,42.79,0,0,1,21.23,1.41c5.1-13.84,15.69-24.24,29.76-27.38l1-.21c18.23-3.58,36.32,6.43,46.59,24a35.93,35.93,0,0,1,5.35-1.62c.18,0,.69-.16.88-.19,22.27-4.39,44.28,12.63,50.11,38.75,3.78,16.93-.11,33.13-9.25,44a52.72,52.72,0,0,1,11.06,13.68c.2.35.39.71.57,1.06,10,19.73,8.24,34.9,5,44.14a45.08,45.08,0,0,1-24.4,26.09,81.44,81.44,0,0,1-18.41,5.68l-7.53,1.4c-1.25.25-2.08.44-2.63.59-.37.23-.75.44-1.12.65a50.69,50.69,0,0,0-4.79,4.64c-4.22,4.37-10,10.35-18.3,15.39A48.37,48.37,0,0,1,2552.84,2445.15Z"/><path class="cls-19" d="M2620.15,2350.86c10.35,20.41,3.43,33.42-8.37,38.78s-22.56,4.26-30.69,8.55l-.23.36c-8.13,4.3-13.19,14-24.28,20.71s-25.54,5.45-36.55-14.61c-9.14-18.92,4.29-27.76,4.76-56.06.41-24.93,13.85-30,13.85-30l.33-.18s11.93-8.19,32.59,5.51C2595.16,2339.54,2609.68,2332.63,2620.15,2350.86ZM2513.8,2321c9.73-6.12,10.66-22.14,2.08-35.78s-23.43-19.75-33.16-13.63-10.66,22.14-2.08,35.79S2504.07,2327.14,2513.8,2321Zm38.55-20c11.33-2.53,17.64-17.46,14.09-33.35s-15.6-26.72-26.93-24.19-17.65,17.46-14.1,33.35S2541,2303.52,2552.35,2301Zm40-35.35c-9.87,2.2-15.37,15.2-12.28,29s13.59,23.27,23.46,21.06,15.37-15.2,12.28-29S2602.24,2263.44,2592.37,2265.64ZM2499.88,2337c-9.68-10.35-23.52-13.15-30.9-6.24s-5.52,20.89,4.16,31.25,23.52,13.15,30.9,6.24S2509.56,2347.38,2499.88,2337Z"/><g class="cls-18"><path class="cls-4" d="M3032.51,2183.13S3113,2362,2974.38,2406.71l6.07,13.07,179.5-63Z"/></g><path class="cls-4" d="M1182.15,2956.91a68.33,68.33,0,0,1-25.26-4.87c-60.48-24-108.36-82.57-110.37-85a15,15,0,0,1,23.31-18.89c.77.94,45.25,55,98.14,76a38.26,38.26,0,0,0,30.75-1,42.19,42.19,0,0,0,22-25.13c9.76-30,31.09-44.36,58.56-39.36,35.09,6.39,37.08,31.12,35.82,46a15.41,15.41,0,0,1,14.16,9,15,15,0,0,1-7.72,19.76c-6.43,2.81-19.83,8.68-30.17.85-9.54-7.22-8-18.57-6.8-26.85,2-14.21,2-17-10.67-19.27-6.09-1.11-17.4-3.17-24.65,19.12a72.33,72.33,0,0,1-37.81,43A68.81,68.81,0,0,1,1182.15,2956.91Z"/><g class="cls-5"><path class="cls-4" d="M1284.78,3010.91a82.07,82.07,0,0,0,42.93-48.84c8.24-25.31,21.08-23,28-21.71,14.35,2.61,14.38,5.73,12.12,21.88-1.31,9.4-3.11,22.28,7.72,30.49,11.73,8.89,27,2.23,34.26-1a17,17,0,0,0,8.77-22.44,17.32,17.32,0,0,0-16.09-10.19c1.44-17-.82-45-40.67-52.29-31.17-5.68-55.41,10.62-66.49,44.7a48.15,48.15,0,0,1-17.57,24.1,225.73,225.73,0,0,0,14-78.34c0-125.08-101.76-226.85-226.84-226.85a225.42,225.42,0,0,0-114.26,31v136.7a79.26,79.26,0,0,0,49.06,73.43l257.13,106.55A78.49,78.49,0,0,0,1284.78,3010.91Z"/></g><path class="cls-9" d="M1030.8,3084.39c-115.69,0-209.81-94.12-209.81-209.8s94.12-209.81,209.81-209.81,209.81,94.12,209.81,209.81S1146.49,3084.39,1030.8,3084.39Z"/><path class="cls-4" d="M1030.8,2681.81c106.47,0,192.77,86.31,192.77,192.78s-86.3,192.77-192.77,192.77S838,2981.05,838,2874.59s86.31-192.78,192.78-192.78m0-34.06c-125.08,0-226.84,101.76-226.84,226.84s101.76,226.83,226.84,226.83,226.84-101.76,226.84-226.83-101.76-226.84-226.84-226.84Z"/><g class="cls-20"><rect class="cls-21" x="894.91" y="2624.93" width="44.24" height="553.04"/><path class="cls-4" d="M939.15,3183.78H894.91a5.81,5.81,0,0,1-5.81-5.81v-553a5.81,5.81,0,0,1,5.81-5.82h44.24a5.81,5.81,0,0,1,5.81,5.82v553A5.81,5.81,0,0,1,939.15,3183.78Zm-38.43-11.63h32.62V2630.74H900.72Z"/><rect class="cls-21" x="939.15" y="2624.93" width="44.24" height="553.04"/><path class="cls-4" d="M983.39,3183.78H939.15a5.81,5.81,0,0,1-5.81-5.81v-553a5.81,5.81,0,0,1,5.81-5.82h44.24a5.82,5.82,0,0,1,5.82,5.82v553A5.82,5.82,0,0,1,983.39,3183.78ZM945,3172.15h32.62V2630.74H945Z"/><rect class="cls-21" x="983.4" y="2624.93" width="44.24" height="553.04"/><path class="cls-4" d="M1027.64,3183.78H983.39a5.81,5.81,0,0,1-5.81-5.81v-553a5.81,5.81,0,0,1,5.81-5.82h44.25a5.81,5.81,0,0,1,5.81,5.82v553A5.81,5.81,0,0,1,1027.64,3183.78Zm-38.43-11.63h32.61V2630.74H989.21Z"/><rect class="cls-21" x="1027.64" y="2624.93" width="44.24" height="553.04"/><path class="cls-4" d="M1071.88,3183.78h-44.24a5.82,5.82,0,0,1-5.82-5.81v-553a5.82,5.82,0,0,1,5.82-5.82h44.24a5.82,5.82,0,0,1,5.82,5.82v553A5.82,5.82,0,0,1,1071.88,3183.78Zm-38.43-11.63h32.62V2630.74h-32.62Z"/><rect class="cls-21" x="1071.88" y="2624.93" width="44.24" height="553.04"/><path class="cls-4" d="M1116.13,3183.78h-44.25a5.81,5.81,0,0,1-5.81-5.81v-553a5.81,5.81,0,0,1,5.81-5.82h44.25a5.81,5.81,0,0,1,5.81,5.82v553A5.81,5.81,0,0,1,1116.13,3183.78Zm-38.43-11.63h32.61V2630.74H1077.7Z"/><rect class="cls-21" x="1116.13" y="2624.93" width="44.24" height="553.04"/><path class="cls-4" d="M1160.37,3183.78h-44.24a5.82,5.82,0,0,1-5.82-5.81v-553a5.82,5.82,0,0,1,5.82-5.82h44.24a5.81,5.81,0,0,1,5.81,5.82v553A5.81,5.81,0,0,1,1160.37,3183.78Zm-38.43-11.63h32.62V2630.74h-32.62Z"/><rect class="cls-21" x="1160.37" y="2624.93" width="44.24" height="553.04"/><path class="cls-4" d="M1204.61,3183.78h-44.24a5.81,5.81,0,0,1-5.81-5.81v-553a5.81,5.81,0,0,1,5.81-5.82h44.24a5.82,5.82,0,0,1,5.82,5.82v553A5.82,5.82,0,0,1,1204.61,3183.78Zm-38.43-11.63h32.62V2630.74h-32.62Z"/><rect class="cls-21" x="838.98" y="2813.59" width="44.24" height="553.04" transform="translate(-1932.83 1513.96) rotate(-45)"/><path class="cls-4" d="M1041,3307.1a5.77,5.77,0,0,1-4.11-1.71l-391.07-391a5.82,5.82,0,0,1,0-8.23l31.29-31.29a6,6,0,0,1,8.22,0l391.06,391.07a5.81,5.81,0,0,1,0,8.22l-31.28,31.28A5.8,5.8,0,0,1,1041,3307.1ZM658.15,2910.22,1041,3293.06l23.06-23.06L681.21,2887.16Z"/><rect class="cls-21" x="870.26" y="2782.3" width="44.24" height="553.04" transform="translate(-1901.54 1526.92) rotate(-45)"/><path class="cls-4" d="M1072.27,3275.81a5.81,5.81,0,0,1-4.11-1.7L677.1,2883.05a5.83,5.83,0,0,1,0-8.23l31.28-31.28a5.82,5.82,0,0,1,8.23,0l391.06,391.06a5.82,5.82,0,0,1,0,8.23l-31.29,31.28A5.81,5.81,0,0,1,1072.27,3275.81ZM689.43,2878.93l382.84,382.85,23.07-23.06L712.5,2855.87Z"/><rect class="cls-21" x="901.55" y="2751.02" width="44.24" height="553.04" transform="translate(-1870.26 1539.88) rotate(-45)"/><path class="cls-4" d="M1103.56,3244.53a5.85,5.85,0,0,1-4.12-1.7L708.38,2851.76a5.81,5.81,0,0,1,0-8.22l31.29-31.28a5.81,5.81,0,0,1,8.22,0l391.06,391a5.82,5.82,0,0,1,0,8.23l-31.28,31.29A5.81,5.81,0,0,1,1103.56,3244.53ZM720.72,2847.65l382.84,382.84,23.06-23.06L743.78,2824.59Z"/><rect class="cls-21" x="932.83" y="2719.73" width="44.24" height="553.04" transform="translate(-1838.98 1552.84) rotate(-45)"/><path class="cls-4" d="M1134.84,3213.24a5.83,5.83,0,0,1-4.11-1.7L739.67,2820.48a5.82,5.82,0,0,1,0-8.22L771,2781a5.84,5.84,0,0,1,8.23,0L1170.24,3172a5.82,5.82,0,0,1,0,8.22L1139,3211.54A5.8,5.8,0,0,1,1134.84,3213.24ZM752,2816.37l382.84,382.83,23.07-23.06L775.06,2793.31Z"/><rect class="cls-21" x="964.12" y="2688.45" width="44.24" height="553.04" transform="translate(-1807.69 1565.79) rotate(-45)"/><path class="cls-4" d="M1166.13,3182a5.77,5.77,0,0,1-4.11-1.71L771,2789.19a5.82,5.82,0,0,1,0-8.22l31.29-31.28a5.81,5.81,0,0,1,8.22,0l391.06,391.06a5.82,5.82,0,0,1,0,8.22l-31.28,31.28A5.8,5.8,0,0,1,1166.13,3182ZM783.28,2785.08l382.85,382.84,23.06-23.06L806.35,2762Z"/><rect class="cls-21" x="995.4" y="2657.16" width="44.24" height="553.04" transform="translate(-1776.4 1578.75) rotate(-45)"/><path class="cls-4" d="M1197.41,3150.67a5.8,5.8,0,0,1-4.11-1.7L802.24,2757.91a5.82,5.82,0,0,1,0-8.22l31.28-31.29a5.84,5.84,0,0,1,8.23,0l391.06,391.06a5.81,5.81,0,0,1,0,8.22L1201.52,3149A5.8,5.8,0,0,1,1197.41,3150.67ZM814.57,2753.8l382.84,382.84,23.06-23.07L837.64,2730.74Z"/><rect class="cls-21" x="1026.69" y="2625.88" width="44.24" height="553.04" transform="translate(-1745.12 1591.71) rotate(-45)"/><path class="cls-4" d="M1228.69,3119.39a5.8,5.8,0,0,1-4.11-1.71l-391.06-391a5.82,5.82,0,0,1,0-8.23l31.29-31.29a6,6,0,0,1,8.22,0l391.06,391.07a5.82,5.82,0,0,1,0,8.22l-31.28,31.28A5.81,5.81,0,0,1,1228.69,3119.39ZM845.86,2722.51l382.83,382.84,23.07-23.06L868.92,2699.45Z"/><rect class="cls-21" x="736.93" y="2854.96" width="553.04" height="44.24" transform="translate(-1163.13 739.99) rotate(-26.12)"/><path class="cls-4" d="M774.91,3024.5a5.81,5.81,0,0,1-5.22-3.26l-19.48-39.73a5.82,5.82,0,0,1,2.66-7.78l496.56-243.47a5.82,5.82,0,0,1,7.78,2.66l19.48,39.73a5.81,5.81,0,0,1-2.66,7.77L777.46,3023.9A5.68,5.68,0,0,1,774.91,3024.5Zm-11.71-42.88,14.37,29.28,486.12-238.36-14.36-29.28Z"/><rect class="cls-21" x="756.4" y="2894.68" width="553.04" height="44.24" transform="translate(-1178.64 752.62) rotate(-26.12)"/><path class="cls-4" d="M794.38,3064.22a5.8,5.8,0,0,1-5.22-3.25l-19.47-39.73a5.8,5.8,0,0,1,2.66-7.78L1268.91,2770a5.82,5.82,0,0,1,7.78,2.67l19.48,39.72a5.82,5.82,0,0,1-2.66,7.78L796.94,3063.63A5.85,5.85,0,0,1,794.38,3064.22Zm-11.7-42.88L797,3050.63l486.13-238.37L1268.81,2783Z"/><rect class="cls-21" x="775.88" y="2934.41" width="553.04" height="44.24" transform="translate(-1194.13 765.25) rotate(-26.12)"/><path class="cls-4" d="M813.87,3103.94a5.81,5.81,0,0,1-5.23-3.25L789.16,3061a5.82,5.82,0,0,1,2.66-7.78l496.57-243.48a5.82,5.82,0,0,1,7.78,2.66l19.48,39.72a5.81,5.81,0,0,1-2.67,7.78L816.42,3103.35A5.83,5.83,0,0,1,813.87,3103.94Zm-11.71-42.87,14.36,29.28L1302.65,2852l-14.36-29.29Z"/><rect class="cls-21" x="795.36" y="2974.13" width="553.04" height="44.24" transform="translate(-1209.64 777.89) rotate(-26.12)"/><path class="cls-4" d="M833.34,3143.67a5.86,5.86,0,0,1-5.22-3.26l-19.48-39.72a5.82,5.82,0,0,1,2.66-7.78l496.57-243.48a5.82,5.82,0,0,1,7.78,2.66l19.47,39.73a5.8,5.8,0,0,1-2.66,7.78L835.9,3143.08A5.89,5.89,0,0,1,833.34,3143.67Zm-11.7-42.88L836,3130.08l486.12-238.36-14.36-29.29Z"/><rect class="cls-21" x="814.84" y="3013.86" width="553.04" height="44.24" transform="translate(-1225.13 790.52) rotate(-26.12)"/><path class="cls-4" d="M852.82,3183.4a5.81,5.81,0,0,1-5.22-3.26l-19.48-39.73a5.81,5.81,0,0,1,2.66-7.77l496.56-243.48a5.81,5.81,0,0,1,7.78,2.66l19.48,39.73a5.82,5.82,0,0,1-2.66,7.78L855.38,3182.8A5.75,5.75,0,0,1,852.82,3183.4Zm-11.7-42.88,14.36,29.28,486.12-238.36-14.36-29.28Z"/><rect class="cls-21" x="834.32" y="3053.58" width="553.04" height="44.24" transform="translate(-1240.64 803.15) rotate(-26.12)"/><path class="cls-4" d="M872.3,3223.12a5.78,5.78,0,0,1-5.22-3.25l-19.48-39.73a5.81,5.81,0,0,1,2.66-7.78l496.56-243.47a5.81,5.81,0,0,1,7.78,2.66l19.48,39.72a5.82,5.82,0,0,1-2.66,7.78L874.85,3222.53A5.84,5.84,0,0,1,872.3,3223.12Zm-11.7-42.88L875,3209.53l486.12-238.36-14.36-29.29Z"/><rect class="cls-21" x="853.79" y="3093.31" width="553.04" height="44.24" transform="translate(-1256.14 815.79) rotate(-26.12)"/><path class="cls-4" d="M891.78,3262.85a5.82,5.82,0,0,1-5.23-3.26l-19.47-39.72a5.82,5.82,0,0,1,2.66-7.78l496.56-243.48a5.82,5.82,0,0,1,7.78,2.66l19.48,39.73a5.81,5.81,0,0,1-2.66,7.77L894.33,3262.25A5.68,5.68,0,0,1,891.78,3262.85ZM880.07,3220l14.36,29.28,486.13-238.36-14.36-29.28Z"/></g><g class="cls-8"><path class="cls-4" d="M1152.35,2725a192,192,0,0,1,17.9,81.12c0,106.47-86.31,192.77-192.77,192.77a192,192,0,0,1-121.56-43.17,192.78,192.78,0,0,0,174.88,111.65c106.47,0,192.77-86.31,192.77-192.77A192.37,192.37,0,0,0,1152.35,2725Z"/></g><g class="cls-13"><path class="cls-9" d="M853.24,2898.21c0-110,89.19-199.2,199.2-199.2a198.31,198.31,0,0,1,103.36,28.88,192,192,0,0,0-125-46.08c-106.47,0-192.78,86.31-192.78,192.78a191.81,191.81,0,0,0,35.82,111.84A198.33,198.33,0,0,1,853.24,2898.21Z"/></g><g class="cls-5"><path class="cls-4" d="M2325.05,2025.83S2241.92,2202.92,2066,2134l38.76,55.08,95.89,40.8,71.4-14.28s49-28.8,51-34.68,28.57-55.08,28.57-55.08L2360,2030Z"/></g></g></g></svg>