<svg xmlns="http://www.w3.org/2000/svg" viewBox="0 0 4000 4000"><defs><style>.cls-1{fill:#0bcbff;}.cls-2{fill:#09c5d8;}.cls-3{opacity:0.65;}.cls-4{fill:#fff;}.cls-5{fill:#caf0f2;}.cls-6{fill:#000072;}.cls-7{opacity:0.3;}.cls-8{opacity:0.25;}</style></defs><g id="Layer_2" data-name="Layer 2"><g id="Layer_1-2" data-name="Layer 1"><rect class="cls-1" width="4000" height="4000"/><path class="cls-2" d="M2680.33,2910.83c-116.64,48.06-246.13,80.05-385.74,91.56a1346.62,1346.62,0,0,1-204.3,1.15c-206.47-14.58-408.09-76.26-590.67-177.69-284.93-158.32-518.45-362.24-556.29-553.17q-2.73-13.74-4.07-27.34-19.21-18.77-37-37.6c-.33-.33-.67-.72-1-1-201.48-213.47-271.41-438-170.36-676.9q8.21-19.5,18-39.09c1.68-3.36,3.5-6.57,5.47-9.73a109.62,109.62,0,0,1,12-15.78,1.1,1.1,0,0,0,.09-.15,114.64,114.64,0,0,1,36.64-26.81,111.91,111.91,0,0,1,44.84-10.12c417.78-6.28,904.23,101.63,1290.36,340.85l314.23,193.47c36.59,22.54,75,42.21,115.15,57.7,467.56,180.13,640-343.39,347.56-472.6-93.86-27.67-188.19-27.91-283.06-1.72-50.5,13.9-93.52-38.47-71.36-85.9,40.57-86.85,130.11-164.16,265.7-164.16-40.48-51.94-57.75-85.18-50.55-160.29,1.53-15.58,3-31.22,3.78-46.9,10.08-191.65-22.39-347.13-95.34-467.37-14.34-23.64,5.32-50.4,29.35-48.53a32.53,32.53,0,0,1,12.42,3.55c255.48,129.73,365.12,456.91,319.75,885q7,7,14,14,35.1,35.76,65.13,72.8h0c112.32,138.37,171.89,288.48,186.37,438C3348.22,2364.67,3096.09,2739.66,2680.33,2910.83Z"/><g class="cls-3"><path class="cls-4" d="M2785.7,1088.56c10.07-191.65-22.4-347.13-95.34-467.37-16.74-27.62,12.95-59.56,41.77-45,4.41,2.25,8.78,4.51,13,6.9a31.2,31.2,0,0,0-3.64,38.08c72.95,120.24,105.41,275.72,95.34,467.37-.81,15.68-2.25,31.32-3.79,46.9-3.35,35-1.39,60.87,5.76,83.79,0,.1,0,.14,0,.24,6.09,37.36-7.2,64.84-10.51,71-37.55-49-53.42-82.49-46.47-155C2783.45,1119.88,2784.88,1104.24,2785.7,1088.56Z"/></g><g class="cls-3"><path class="cls-4" d="M958.44,2299.68a293.94,293.94,0,0,0,8.35,45.85,358.21,358.21,0,0,1-19.95-57.31C950.67,2292.06,954.51,2295.85,958.44,2299.68Z"/></g><g class="cls-3"><path class="cls-4" d="M2810.54,1297.47l-1.68-1.25s-17.12,44.94-71.74,72.52l-.34.14c-75.73,28.11-128.34,84.41-156.83,145.37a60.54,60.54,0,0,0-5.27,17.46c-18.32-17.22-26.28-45.28-13.91-71.8,38.89-83.26,122.78-157.74,249.1-163.78C2810.11,1296.56,2810.3,1297,2810.54,1297.47Z"/></g><g class="cls-3"><path class="cls-4" d="M3052.79,1712.56c96.63,194-88.49,507.37-466,361.9-40.14-15.49-78.56-35.15-115.15-57.69L2157.43,1823.3c-386.12-239.22-872.58-347.13-1290.35-340.85a111.87,111.87,0,0,0-44.84,10.12,113.05,113.05,0,0,0-36.64,26.81.53.53,0,0,1-.1.14,114.6,114.6,0,0,0-12,15.78c-2,3.17-3.79,6.38-5.47,9.74-69.06,138.7-80.52,272.55-42,402.19-59.86-146.52-56-298.36,22.78-456.53,1.68-3.36,3.5-6.57,5.47-9.73a109.62,109.62,0,0,1,12-15.78,1.1,1.1,0,0,0,.09-.15,114.64,114.64,0,0,1,36.64-26.81,111.91,111.91,0,0,1,44.84-10.12c417.78-6.28,904.23,101.63,1290.36,340.85l314.23,193.47c36.59,22.54,75,42.21,115.15,57.7C2911.5,2152.59,3095.71,1904.5,3052.79,1712.56Z"/></g><g class="cls-3"><path class="cls-4" d="M939.26,2245.34a288.67,288.67,0,0,0,7.58,42.88c-110.55-110.55-186-224.07-220.76-341C767.61,2049.09,839.93,2148.37,939.26,2245.34Z"/></g><path class="cls-5" d="M2294.59,3002.39c-276.43,22.78-552.49-41.83-795-176.54C1201.07,2660,958.92,2444,939.26,2245.34c-242.2-236.48-323.92-486.5-190.4-754.64,1.68-3.36,3.5-6.57,5.47-9.73,7.76-10.27,12.08-15.93,12.08-15.93s169.63-51,366.27,131.27S1508.39,1855.05,1769,1932.7s219.08,251.88,231.07,335,82.25,236.59,410,297.35,824.28,43.45,901.35-579.16C3358.58,2470.9,2931.83,2949.82,2294.59,3002.39Z"/><path class="cls-4" d="M1790.84,2086.57c-268.58,274.57-677.26,286.26-855.22,155.2,63.59,68.32,103.56,115.33,158.81,158.42,120.85,94.27,283,113.18,424.27,53.68C1683.86,2384.3,1793.61,2244.48,1790.84,2086.57Z"/><path class="cls-2" d="M1441.15,2792.27c-115.48,18.71-235.53,64.27-358.64,128.15a1.6,1.6,0,0,1-.38.24q-12.37,6.33-24.84,13.1-21.09,11.29-42.35,23.35t-42.69,24.65c-38.17,22.54-85.46-9.83-78.07-53.52,26-153.09,96.78-281.38,220.61-380.41l40.09,30Z"/><g class="cls-3"><path class="cls-4" d="M1218.57,2625.57,1139,2574.68c-116.21,107.91-177.31,241.1-191.94,395.72a52,52,0,0,0,1.54,18.65c-31.37,1.78-60.33-25.9-54.43-60.81,26-153.09,96.78-281.38,220.61-380.41Z"/></g><path class="cls-2" d="M2720.43,1770.35c-2.45,1.25-4.85,2.5-7.25,3.84a822.05,822.05,0,0,0-97,59.71c-57.07,41.1-105.17,87.77-144.79,139.8l-145.65-85.37L2098.3,1755.05l-166.42-97.55c274.13-77.93,568.65-65,790,62.69C2741.53,1731.51,2740.57,1760,2720.43,1770.35Z"/><g class="cls-3"><path class="cls-4" d="M2733,1757.74c-206.08-101.24-465.92-111.55-712.48-48.3l-88.63-51.94c274.13-77.93,568.65-65,790,62.69A28.33,28.33,0,0,1,2733,1757.74Z"/></g><path class="cls-6" d="M2184.34,3026.1c-238.62,0-476.44-62.6-694-183.49C1150.79,2654,943.9,2440,921,2254.26c-123.38-121.67-202.86-245.9-236.29-369.35-35.89-132.49-20.06-268,47-402.74a131.36,131.36,0,0,1,115.93-73.25c215.71-3.21,444.7,24.06,662,78.94,236.76,59.8,451.64,148.88,638.7,264.78l314.16,193.44c37.34,23,75,41.88,112,56.13,232.44,89.54,391-2.34,445.07-133.14,44.06-106.6,20-244.87-111-303.49-88.92-26-180.2-26.43-271.33-1.28a79.09,79.09,0,0,1-82.25-25.54,80.62,80.62,0,0,1-11.59-87c46.25-99,136.88-162,246.67-173.34-28.33-42.38-39.46-79.92-33.23-144.78,1.5-15.56,2.91-30.79,3.71-46.08,9.75-185.49-21.41-339.06-92.6-456.45a51,51,0,0,1,66.86-72c130.42,66.21,225.33,181,282.09,341.3,54.24,153.09,70.71,339.31,49,553.62,251.21,250.89,331.07,571.65,219,881.42-136.9,378.49-525,647.78-988.78,686Q2240.32,3026.11,2184.34,3026.1ZM882.48,1447c-11.47,0-22.86.08-34.29.25a93.12,93.12,0,0,0-82.15,52c-124,249.07-63,488.62,186.62,732.35a19.14,19.14,0,0,1,5.69,11.84c17,172.09,222.85,383.53,550.58,565.61C1753.85,2945.14,2025,3005.4,2293,2983.26c448.85-37,824-296.43,955.85-660.85,107.7-297.74,28.82-606.65-216.41-847.52a19.2,19.2,0,0,1-5.64-15.71c45.3-427.46-67.46-743.05-309.36-865.84-7.89-4-13.29.49-15.24,2.6a12.1,12.1,0,0,0-1.45,15.28c75.27,124.1,108.27,285,98.11,478.37-.84,16.06-2.29,31.74-3.83,47.73-6.73,70,9,98.45,46.57,146.63a19.19,19.19,0,0,1-15.13,31c-110.69,0-203.52,57.23-248.3,153.08a42.69,42.69,0,0,0,6.13,46c10.76,12.75,26.74,17.73,42.73,13.31,98.55-27.19,197.34-26.58,293.59,1.83a17.41,17.41,0,0,1,2.32.85c69.8,30.83,118.8,83.88,141.71,153.4,20.95,63.54,17.54,134.69-9.59,200.34-61.17,148-237.74,253.13-494.33,154.28-39.18-15.1-79-35-118.34-59.26l-314.2-193.47C1784.69,1572.45,1321.45,1447,882.48,1447Z"/><path class="cls-6" d="M2471.37,1992.86a19.18,19.18,0,0,1-15.25-30.81c64.19-84.22,150.16-154.46,255.52-208.76a9.43,9.43,0,0,0,5.27-8.34,8.81,8.81,0,0,0-4.58-8.14c-207.55-119.71-490.1-141.9-775.2-60.85a19.19,19.19,0,1,1-10.49-36.91c295-83.87,588.37-60.35,804.86,64.52a46.89,46.89,0,0,1,23.77,42.28,48,48,0,0,1-26.05,41.55c-100.26,51.66-181.88,118.25-242.58,197.91A19.15,19.15,0,0,1,2471.37,1992.86Z"/><path class="cls-2" d="M2754.24,3139.79h-371.4c-239.13-41-370.68-171.26-414.85-374.08,106.33,83.92,319.31,61.67,328.52-28.78q27.19,4.74,53.19,11c191.21,45.66,335.19,150.6,452.07,289.58C2835.77,3078,2807.19,3139.79,2754.24,3139.79Z"/><g class="cls-3"><path class="cls-4" d="M2790.93,3127.94a60.9,60.9,0,0,1-36.69,11.85h-371.4c-239.13-41-370.68-171.26-414.85-374.08,20,15.82,43.93,27.86,69.49,36.4,51.46,149.39,168.1,252.36,361.71,300.46l370.4,27.39A62.21,62.21,0,0,0,2790.93,3127.94Z"/></g><path class="cls-6" d="M1975,2764.17c14.61,47.22,32.75,92.87,57.76,134.09A427,427,0,0,0,2125,3006.83c36.38,30.51,77.68,55.13,121.93,73.76,44.19,18.89,91.23,31.59,139.12,40.29l-3.24-.27h348c11.13-.12,24.87.39,31.39-.79a40.66,40.66,0,0,0,21-10.4c11.88-10.85,17-29,12.19-44.08a44.47,44.47,0,0,0-5-10.83l-3.71-5.09-5.64-6.43c-7.6-8.5-14.86-17.31-22.71-25.56-30.68-33.7-64.05-64.71-99-93.54-35.27-28.46-72.13-54.84-111-78.11a853.88,853.88,0,0,0-122.1-60.14,1024.15,1024.15,0,0,0-131-41.62l-.05,0a7.21,7.21,0,0,1,2.51-14.16,734.33,734.33,0,0,1,269,83.48,715,715,0,0,1,118.11,79.43c36.78,30.06,70.34,63.67,102.1,98.6,8.08,8.63,15.51,17.79,23.3,26.66l5.77,6.7c2.13,2.7,4.43,5.95,6.56,8.94a82.89,82.89,0,0,1,9.55,20.62,80.81,80.81,0,0,1,.4,45,82.55,82.55,0,0,1-23.23,38.28,79.21,79.21,0,0,1-40.44,20.06,123,123,0,0,1-20.68,1.37H2382.8a21.15,21.15,0,0,1-3.2-.27c-50.25-8.72-100.13-21.71-148-41.09-47.75-19.52-93.43-46.11-132.39-81-39.09-34.64-71-77.12-94.11-123.27s-37.33-96-44.09-146.13a7.22,7.22,0,0,1,14-3.1Z"/><path class="cls-6" d="M945.63,3008.32a71.62,71.62,0,0,1-70.37-83.27c27.41-161.42,104-293.38,227.56-392.2a19.19,19.19,0,0,1,24,30c-116,92.76-187.91,216.79-213.69,368.65a33,33,0,0,0,49.37,33.77c179.63-106.36,335.2-169.14,475.6-191.92a19.18,19.18,0,0,1,6.14,37.87c-135.58,22-286.76,83.18-462.19,187.07A71.32,71.32,0,0,1,945.63,3008.32Z"/><path class="cls-6" d="M2136.37,2032.5a180.63,180.63,0,0,1,20.78,59.45,190.86,190.86,0,0,1-.14,64.11,201.86,201.86,0,0,1-58.57,110.57,5.73,5.73,0,0,1-9.14-6.55l0-.06c8.52-18.31,16.86-36,23.38-54.1a287,287,0,0,0,18.43-111.34c-.47-19.13-2.84-38.41-5.41-58.44v-.07a5.73,5.73,0,0,1,10.65-3.57Z"/><path class="cls-6" d="M2236,2084.59c7.46,16.44,10.69,33.61,11.82,51.18a178.2,178.2,0,0,1-4.86,52.57c-1.88,8.68-5,17.08-8.1,25.4-1.72,4.11-3.76,8.1-5.69,12.1-1,2-1.92,4-3,5.94l-3.55,5.68c-9.1,15.28-21.65,28.32-35.47,38.85a5.71,5.71,0,0,1-8.56-7.11l.24-.46c7.52-14.88,15.63-28.28,21-43.06l2.32-5.34,1.9-5.52,3.83-11c2-7.5,4.45-14.81,6-22.43a404.49,404.49,0,0,0,7.7-46.21c1.69-15.67,2.65-31.89,3.52-48.06l0-.53a5.72,5.72,0,0,1,10.92-2Z"/><path class="cls-6" d="M2330.86,2167.83c5.38,12.78,6.95,25.89,6.58,39.31a109.94,109.94,0,0,1-8.83,39.45,96.21,96.21,0,0,1-23.6,33.72c-9.9,9.65-22.56,16-35.29,19.48a5.77,5.77,0,0,1-6-9.22l.46-.56c7.92-9.57,15.76-17.38,21.55-26.78a147.35,147.35,0,0,0,15.32-28.35,256.85,256.85,0,0,0,10.5-31.36c2.92-10.89,5.41-22.5,8.19-34.14l.15-.64a5.8,5.8,0,0,1,7-4.3A5.89,5.89,0,0,1,2330.86,2167.83Z"/><ellipse class="cls-6" cx="787.26" cy="1848.13" rx="16.34" ry="45.34"/><ellipse class="cls-6" cx="1159.73" cy="1853.41" rx="16.34" ry="45.34" transform="translate(-915.46 1165.18) rotate(-39.62)"/><path class="cls-6" d="M1840.38,1791.79c-45.39,37.28-105.07,42.43-144,13.2h0c-17.42-13.12-30.67-33.11-36.61-60.19,26.86,1.52,53.94-2.78,74.86-7.72a306.66,306.66,0,0,0,38-11.26c15.18-7.46,28.17-11.13,39.35-11.64C1853.37,1712.24,1872.43,1765.51,1840.38,1791.79Z"/><path class="cls-4" d="M1696.43,1805h0c-17.42-13.12-30.67-33.11-36.61-60.19,26.86,1.52,53.94-2.78,74.86-7.72C1734.64,1737.08,1748.47,1788.5,1696.43,1805Z"/><path class="cls-6" d="M1755.49,1836.46a116.48,116.48,0,0,1-38.29-6.3c-36.08-12.52-60.87-41.87-69.78-82.65a12.66,12.66,0,0,1,13.07-15.34c49.86,2.82,101.72-16,107.08-18,16.24-7.91,30.57-12,43.79-12.67,24.05-1.11,45.14,12.82,53.86,35.51,9,23.43,2.41,48.77-16.81,64.54C1820.7,1824.33,1787.4,1836.46,1755.49,1836.46Zm-78.72-78.77c9.1,23.7,26,40.68,48.73,48.57,33.54,11.64,74.47,2.35,106.86-24.24,12.93-10.61,13.06-26,9.24-35.9s-13.58-20.06-29.06-19.31c-9.7.45-21.26,3.94-34.37,10.37-.32.16-.65.31-1,.44C1775,1738.47,1728.24,1756.41,1676.77,1757.69Z"/><path class="cls-6" d="M1657.13,1757.18l-50.35-17.26a6.37,6.37,0,0,1,2.66-12.37l53,4.88a12.74,12.74,0,1,1-2.34,25.38A13.09,13.09,0,0,1,1657.13,1757.18Z"/><ellipse class="cls-4" cx="1764.24" cy="1775.11" rx="10.19" ry="14.76"/><path class="cls-6" d="M1351.36,2507c-96.4,0-191.26-31.22-268.73-91.65-46.85-36.54-83.45-76.31-129.79-126.65-9.84-10.69-20.19-21.94-31.26-33.83A19.19,19.19,0,0,1,947,2226.32c87.29,64.29,229.27,90.82,379.73,70.94,171.19-22.6,331.14-102.19,450.39-224.11a19.19,19.19,0,0,1,32.9,13.08c2.85,162.71-105.92,310.36-283.88,385.32A450.22,450.22,0,0,1,1351.36,2507Zm-327.17-197.92c27.35,28.71,52.35,52.86,82,76,113.85,88.81,269,108.4,405,51.12,145.47-61.28,240.56-174.28,257.67-302-120.6,108.69-274,179.58-437.16,201.12C1219.8,2350.09,1111.65,2340.25,1024.19,2309.05Z"/><path class="cls-6" d="M1721.42,2076a97.25,97.25,0,0,1,53.2-17c5-.17,10.06.58,15.11,1.1a118.51,118.51,0,0,1,15,3.89,92.06,92.06,0,0,1,26.69,15.42c15.74,13,26.34,29.38,33.7,45.94a170.66,170.66,0,0,1,13.7,51.4,7.41,7.41,0,0,1-13.41,5.09l-.09-.13c-10-14-18.68-27.89-27.94-40.52s-19-23.84-29.64-31.9A82.38,82.38,0,0,0,1772,2093.5c-13.69-2.88-29.19-2.92-46.38-3.78h-.28a7.54,7.54,0,0,1-3.9-13.75Z"/><path class="cls-6" d="M1342.92,2437.18a14.36,14.36,0,0,1-9.31-3.41l-65.42-55.47-53.39,34.23a14.4,14.4,0,0,1-18-2l-33.9-34.53-13,10.76a14.39,14.39,0,0,1-16.11,1.52l-165.63-91.16A14.39,14.39,0,0,1,982,2271.87l157,86.44,15.64-12.94a14.4,14.4,0,0,1,19.45,1l35,35.62,52.51-33.66a14.4,14.4,0,0,1,17.07,1.14l63.64,54,65.77-63a14.4,14.4,0,0,1,19.12-.7l47.68,39.42,55.89-83.49a14.4,14.4,0,0,1,19.67-4.14l37.17,23.6,35.1-66.9a14.39,14.39,0,0,1,23.42-3l13,14.44c77.73-68.76,117.52-169.61,117.93-170.66a14.39,14.39,0,0,1,26.84,10.4c-1.85,4.78-46.39,117.92-137,191.42a14.39,14.39,0,0,1-19.74-1.53l-8.55-9.47-32.77,62.46a14.39,14.39,0,0,1-20.45,5.47l-38.5-24.45L1490,2408.42a14.39,14.39,0,0,1-21.12,3.08l-50.08-41.4-65.89,63.08A14.37,14.37,0,0,1,1342.92,2437.18Z"/><g class="cls-7"><path class="cls-6" d="M2713.18,1774.14v0a822.05,822.05,0,0,0-97,59.71c-57.07,41.1-105.17,87.77-144.79,139.8l-145.65-85.37c.1-1.24.19-2.49.34-3.74C2349.22,1661.34,2713.18,1774.14,2713.18,1774.14Z"/></g><g class="cls-7"><path class="cls-6" d="M2981.87,1444.2A54.71,54.71,0,0,1,2948,1385c59.82-386.27-42.69-636.68-234.77-812.19l.53-.19a32.53,32.53,0,0,1,12.42,3.55c255.48,129.73,365.12,456.91,319.75,885q7,7,14,14Z"/></g><g class="cls-7"><path class="cls-6" d="M1143.9,2577.85h11l286.27,214.42c-115.48,18.71-235.53,64.27-358.64,128.15C1323.17,2784,1143.9,2577.85,1143.9,2577.85Z"/></g><g class="cls-7"><path class="cls-6" d="M2754.24,3139.79H2550.46c2.3-3.93,4.79-8,7.43-12,128-195-127.09-340-208.19-379.89,191.21,45.66,335.19,150.6,452.07,289.58C2835.77,3078,2807.19,3139.79,2754.24,3139.79Z"/></g><g class="cls-7"><path class="cls-6" d="M1856.48,2142.81l-65.94-63.65c-237,265.84-708.7,314.48-888.31,128.58-.33-.33-.67-.72-1-1-201.48-213.47-271.41-438-170.36-676.9-42.35,511.53,290.25,674.5,967.16,517.34C1698,2047.13,1838.5,1966.75,1856.48,2142.81Z"/></g><g class="cls-7"><path class="cls-6" d="M2090.29,3003.54c-206.47-14.58-408.09-76.26-590.67-177.69-284.93-158.32-518.45-362.24-556.29-553.17l7.82-14.15s117.5,172.75,267.42,208c190.74,60.67,338.26-30.17,341.72-32.32-133.48,118.5-263.3,93.95-263.3,93.95,115.29,82.11,352.45,221.52,676.66,261.09C1973.65,2789.3,2021.42,2954.52,2090.29,3003.54Z"/></g><g class="cls-7"><path class="cls-6" d="M2680.33,2910.83c-41.87-35.44-167.95-135.34-267.23-145.12C2887,2653.72,3433.15,2258.53,3125,1548h0c112.32,138.37,171.89,288.48,186.37,438C3348.22,2364.67,3096.09,2739.66,2680.33,2910.83Z"/></g><g class="cls-8"><path class="cls-4" d="M3036.63,2200.47c22.49,62.16-58,148.27-179.75,192.32s-238.71,29.38-261.2-32.79,109-62.21,230.79-106.26S3014.14,2138.31,3036.63,2200.47Z"/></g><g class="cls-8"><path class="cls-4" d="M2434.7,2396.64a66.86,66.86,0,0,1-23.67-91.53c18.74-31.8,51.81-29,83.61-10.23s50.32,46.29,31.58,78.1A66.85,66.85,0,0,1,2434.7,2396.64Z"/></g></g></g></svg>